{"glyphs":{"0":{"ha":842,"x_min":69,"x_max":772,"o":"m 421 -19 q 237 44 317 -19 q 113 225 157 108 q 69 494 69 342 q 113 753 69 640 q 237 929 157 867 q 421 992 317 992 q 605 928 525 992 q 728 753 685 865 q 772 494 772 640 q 728 225 772 342 q 606 44 685 108 q 421 -19 526 -19 m 421 151 q 547 236 500 151 q 594 494 594 321 q 547 738 594 654 q 421 821 499 821 q 295 738 343 821 q 247 494 247 654 q 295 237 247 322 q 421 151 343 151 z "},"1":{"ha":465,"x_min":56,"x_max":338,"o":"m 168 721 q 67 671 122 683 l 56 821 q 149 879 104 836 q 210 972 193 922 l 338 972 l 338 0 l 168 0 l 168 721 z "},"2":{"ha":625,"x_min":64,"x_max":569,"o":"m 254 364 q 349 566 324 496 q 374 700 374 636 q 343 790 374 758 q 257 821 313 821 q 99 754 182 821 l 79 921 q 315 992 186 992 q 490 917 429 992 q 551 729 551 842 q 522 555 551 642 q 408 311 492 468 l 331 164 l 569 164 l 569 0 l 64 0 l 254 364 z "},"3":{"ha":639,"x_min":33,"x_max":569,"o":"m 403 515 q 525 427 481 489 q 569 276 569 365 q 487 58 569 136 q 265 -19 404 -19 q 33 40 132 -19 l 76 190 q 158 147 117 161 q 247 133 199 133 q 356 169 317 133 q 394 276 394 206 q 354 386 394 349 q 240 424 314 424 l 197 424 l 197 590 l 239 590 q 328 624 297 590 q 360 721 360 658 q 329 807 360 775 q 243 839 299 839 q 92 793 169 839 l 65 944 q 276 992 157 992 q 465 924 396 992 q 535 743 535 856 q 403 515 535 586 z "},"4":{"ha":694,"x_min":3,"x_max":636,"o":"m 636 363 l 636 222 l 553 222 l 553 0 l 383 0 l 383 222 l 3 222 l 438 972 l 553 972 l 553 363 l 636 363 m 383 363 l 383 631 l 238 363 l 383 363 z "},"5":{"ha":636,"x_min":56,"x_max":581,"o":"m 303 611 q 504 531 428 611 q 581 310 581 450 q 541 135 581 210 q 432 22 501 61 q 274 -18 363 -18 q 56 38 153 -18 l 97 197 q 257 149 178 149 q 367 190 326 149 q 408 303 408 232 q 365 422 408 379 q 239 465 321 465 q 104 446 182 465 l 167 972 l 542 972 l 531 800 l 294 800 l 271 610 q 303 611 281 611 z "},"6":{"ha":650,"x_min":56,"x_max":603,"o":"m 361 585 q 485 547 429 585 q 572 442 540 510 q 603 289 603 374 q 531 63 603 146 q 332 -19 460 -19 q 129 76 203 -19 q 56 329 56 171 q 108 608 56 475 q 242 839 161 740 q 406 993 322 938 l 526 892 q 360 746 432 825 q 251 563 288 667 q 361 585 300 585 m 335 131 q 413 173 385 131 q 442 285 442 215 q 413 394 442 353 q 335 435 385 435 q 256 394 283 435 q 228 285 228 354 q 256 173 228 215 q 335 131 283 131 z "},"7":{"ha":600,"x_min":47,"x_max":589,"o":"m 589 972 l 281 0 l 111 0 l 374 817 l 47 817 l 47 972 l 589 972 z "},"8":{"ha":719,"x_min":67,"x_max":653,"o":"m 526 529 q 619 426 586 492 q 653 279 653 361 q 617 124 653 192 q 515 18 582 56 q 360 -19 449 -19 q 204 18 271 -19 q 102 124 138 56 q 67 279 67 192 q 101 428 67 363 q 196 531 135 493 q 132 617 156 567 q 108 729 108 668 q 135 857 108 797 q 218 954 161 917 q 360 992 275 992 q 502 954 446 992 q 585 857 558 917 q 611 729 611 797 q 589 614 611 665 q 526 529 567 563 m 360 853 q 288 819 313 853 q 264 728 264 785 q 289 638 264 674 q 360 601 314 601 q 431 638 406 601 q 456 728 456 674 q 431 819 456 785 q 360 853 407 853 m 360 133 q 455 176 421 133 q 489 290 489 218 q 454 401 489 358 q 360 444 419 444 q 265 401 300 444 q 231 290 231 358 q 265 176 231 218 q 360 133 299 133 z "},"9":{"ha":650,"x_min":47,"x_max":594,"o":"m 318 993 q 521 898 447 993 q 594 644 594 803 q 542 366 594 499 q 408 135 489 233 q 244 -19 328 36 l 124 82 q 290 228 218 149 q 399 411 363 307 q 289 389 350 389 q 165 426 221 389 q 78 532 110 464 q 47 685 47 600 q 119 910 47 828 q 318 993 190 993 m 315 539 q 394 579 367 539 q 422 689 422 619 q 394 801 422 758 q 315 843 367 843 q 237 801 265 843 q 208 689 208 758 q 237 580 208 621 q 315 539 265 539 z "},"\r":{"ha":268,"x_min":0,"x_max":0,"o":""}," ":{"ha":268,"x_min":0,"x_max":0,"o":""},"A":{"ha":743,"x_min":-3,"x_max":746,"o":"m 510 232 l 233 232 l 167 0 l -3 0 l 293 972 l 449 972 l 746 0 l 576 0 l 510 232 m 465 388 l 371 717 l 278 388 l 465 388 z "},"Á":{"ha":743,"x_min":-3,"x_max":746,"o":"m 510 232 l 233 232 l 167 0 l -3 0 l 293 972 l 449 972 l 746 0 l 576 0 l 510 232 m 465 388 l 371 717 l 278 388 l 465 388 m 263 1150 l 481 1261 l 481 1118 l 263 1054 l 263 1150 z "},"Ă":{"ha":743,"x_min":-3,"x_max":746,"o":"m 510 232 l 233 232 l 167 0 l -3 0 l 293 972 l 449 972 l 746 0 l 576 0 l 510 232 m 465 388 l 371 717 l 278 388 l 465 388 m 371 1063 q 226 1114 281 1063 q 171 1239 171 1165 l 289 1239 q 311 1178 289 1200 q 371 1157 333 1157 q 431 1178 408 1157 q 453 1239 453 1200 l 571 1239 q 516 1113 571 1164 q 371 1063 461 1063 z "},"Ắ":{"ha":743,"x_min":-3,"x_max":746,"o":"m 510 232 l 233 232 l 167 0 l -3 0 l 293 972 l 449 972 l 746 0 l 576 0 l 510 232 m 465 388 l 371 717 l 278 388 l 465 388 m 371 1063 q 226 1114 281 1063 q 171 1239 171 1165 l 289 1239 q 311 1178 289 1200 q 371 1157 333 1157 q 431 1178 408 1157 q 453 1239 453 1200 l 571 1239 q 516 1113 571 1164 q 371 1063 461 1063 m 263 1399 l 481 1510 l 481 1367 l 263 1303 l 263 1399 z "},"Ặ":{"ha":743,"x_min":-3,"x_max":746,"o":"m 510 232 l 233 232 l 167 0 l -3 0 l 293 972 l 449 972 l 746 0 l 576 0 l 510 232 m 465 388 l 371 717 l 278 388 l 465 388 m 371 1093 q 231 1145 283 1093 q 178 1275 178 1197 l 290 1275 q 311 1215 290 1236 q 371 1193 332 1193 q 431 1215 410 1193 q 451 1275 451 1236 l 564 1275 q 511 1145 564 1197 q 371 1093 458 1093 m 304 -112 l 438 -112 l 438 -247 l 304 -247 l 304 -112 z "},"Ằ":{"ha":743,"x_min":-3,"x_max":746,"o":"m 510 232 l 233 232 l 167 0 l -3 0 l 293 972 l 449 972 l 746 0 l 576 0 l 510 232 m 465 388 l 371 717 l 278 388 l 465 388 m 371 1063 q 226 1114 281 1063 q 171 1239 171 1165 l 289 1239 q 311 1178 289 1200 q 371 1157 333 1157 q 431 1178 408 1157 q 453 1239 453 1200 l 571 1239 q 516 1113 571 1164 q 371 1063 461 1063 m 261 1367 l 261 1510 l 479 1399 l 479 1303 l 261 1367 z "},"Ẳ":{"ha":743,"x_min":-3,"x_max":746,"o":"m 510 232 l 233 232 l 167 0 l -3 0 l 293 972 l 449 972 l 746 0 l 576 0 l 510 232 m 465 388 l 371 717 l 278 388 l 465 388 m 371 1063 q 226 1114 281 1063 q 171 1239 171 1165 l 289 1239 q 311 1178 289 1200 q 371 1157 333 1157 q 431 1178 408 1157 q 453 1239 453 1200 l 571 1239 q 516 1113 571 1164 q 371 1063 461 1063 m 363 1321 q 395 1338 385 1328 q 406 1368 406 1349 q 360 1407 406 1407 q 292 1388 331 1407 l 268 1472 q 368 1492 315 1492 q 459 1463 424 1492 q 494 1385 494 1435 q 466 1308 494 1338 q 378 1260 438 1279 l 363 1321 z "},"Ẵ":{"ha":743,"x_min":-3,"x_max":746,"o":"m 510 232 l 233 232 l 167 0 l -3 0 l 293 972 l 449 972 l 746 0 l 576 0 l 510 232 m 465 388 l 371 717 l 278 388 l 465 388 m 371 1063 q 226 1114 281 1063 q 171 1239 171 1165 l 289 1239 q 311 1178 289 1200 q 371 1157 333 1157 q 431 1178 408 1157 q 453 1239 453 1200 l 571 1239 q 516 1113 571 1164 q 371 1063 461 1063 m 478 1307 q 435 1314 456 1307 q 379 1338 414 1321 q 340 1355 360 1347 q 306 1363 321 1363 q 265 1317 265 1363 l 160 1317 q 264 1463 160 1463 q 307 1456 286 1463 q 363 1432 328 1449 q 401 1415 382 1422 q 436 1407 421 1407 q 476 1453 476 1407 l 582 1453 q 478 1307 582 1307 z "},"Â":{"ha":743,"x_min":-3,"x_max":746,"o":"m 510 232 l 233 232 l 167 0 l -3 0 l 293 972 l 449 972 l 746 0 l 576 0 l 510 232 m 465 388 l 371 717 l 278 388 l 465 388 m 540 1138 l 540 1035 l 371 1126 l 201 1035 l 201 1138 l 371 1257 l 540 1138 z "},"Ấ":{"ha":743,"x_min":-3,"x_max":746,"o":"m 510 232 l 233 232 l 167 0 l -3 0 l 293 972 l 449 972 l 746 0 l 576 0 l 510 232 m 465 388 l 371 717 l 278 388 l 465 388 m 546 1425 l 700 1425 l 572 1249 l 468 1249 l 546 1425 m 540 1151 l 540 1049 l 371 1140 l 201 1049 l 201 1151 l 371 1271 l 540 1151 z "},"Ậ":{"ha":743,"x_min":-3,"x_max":746,"o":"m 510 232 l 233 232 l 167 0 l -3 0 l 293 972 l 449 972 l 746 0 l 576 0 l 510 232 m 465 388 l 371 717 l 278 388 l 465 388 m 215 1171 l 371 1303 l 526 1171 l 526 1061 l 371 1158 l 215 1061 l 215 1171 m 304 -112 l 438 -112 l 438 -247 l 304 -247 l 304 -112 z "},"Ầ":{"ha":743,"x_min":-3,"x_max":746,"o":"m 510 232 l 233 232 l 167 0 l -3 0 l 293 972 l 449 972 l 746 0 l 576 0 l 510 232 m 465 388 l 371 717 l 278 388 l 465 388 m 507 1249 l 407 1425 l 550 1425 l 607 1249 l 507 1249 m 540 1151 l 540 1049 l 371 1140 l 201 1049 l 201 1151 l 371 1271 l 540 1151 z "},"Ẩ":{"ha":743,"x_min":-3,"x_max":746,"o":"m 510 232 l 233 232 l 167 0 l -3 0 l 293 972 l 449 972 l 746 0 l 576 0 l 510 232 m 465 388 l 371 717 l 278 388 l 465 388 m 540 1138 l 540 1035 l 371 1126 l 201 1035 l 201 1138 l 371 1257 l 540 1138 m 489 1278 q 522 1295 511 1285 q 532 1325 532 1306 q 486 1364 532 1364 q 418 1344 457 1364 l 394 1429 q 494 1449 442 1449 q 585 1420 550 1449 q 621 1342 621 1392 q 592 1265 621 1294 q 504 1217 564 1236 l 489 1278 z "},"Ẫ":{"ha":743,"x_min":-3,"x_max":746,"o":"m 510 232 l 233 232 l 167 0 l -3 0 l 293 972 l 449 972 l 746 0 l 576 0 l 510 232 m 465 388 l 371 717 l 278 388 l 465 388 m 540 1138 l 540 1035 l 371 1126 l 201 1035 l 201 1138 l 371 1257 l 540 1138 m 478 1307 q 435 1314 456 1307 q 379 1338 414 1321 q 340 1355 360 1347 q 306 1363 321 1363 q 265 1317 265 1363 l 160 1317 q 264 1463 160 1463 q 307 1456 286 1463 q 363 1432 328 1449 q 401 1415 382 1422 q 436 1407 421 1407 q 476 1453 476 1407 l 582 1453 q 478 1307 582 1307 z "},"Ȁ":{"ha":743,"x_min":-3,"x_max":746,"o":"m 510 232 l 233 232 l 167 0 l -3 0 l 293 972 l 449 972 l 746 0 l 576 0 l 510 232 m 465 388 l 371 717 l 278 388 l 465 388 m 217 1094 l 92 1313 l 246 1313 l 321 1094 l 217 1094 m 415 1094 l 301 1313 l 456 1313 l 519 1094 l 415 1094 z "},"Ä":{"ha":743,"x_min":-3,"x_max":746,"o":"m 510 232 l 233 232 l 167 0 l -3 0 l 293 972 l 449 972 l 746 0 l 576 0 l 510 232 m 465 388 l 371 717 l 278 388 l 465 388 m 192 1207 l 319 1207 l 319 1088 l 192 1088 l 192 1207 m 422 1207 l 550 1207 l 550 1088 l 422 1088 l 422 1207 z "},"Ạ":{"ha":743,"x_min":-3,"x_max":746,"o":"m 510 232 l 233 232 l 167 0 l -3 0 l 293 972 l 449 972 l 746 0 l 576 0 l 510 232 m 465 388 l 371 717 l 278 388 l 465 388 m 304 -112 l 438 -112 l 438 -247 l 304 -247 l 304 -112 z "},"À":{"ha":743,"x_min":-3,"x_max":746,"o":"m 510 232 l 233 232 l 167 0 l -3 0 l 293 972 l 449 972 l 746 0 l 576 0 l 510 232 m 465 388 l 371 717 l 278 388 l 465 388 m 261 1118 l 261 1261 l 479 1150 l 479 1054 l 261 1118 z "},"Ả":{"ha":743,"x_min":-3,"x_max":746,"o":"m 510 232 l 233 232 l 167 0 l -3 0 l 293 972 l 449 972 l 746 0 l 576 0 l 510 232 m 465 388 l 371 717 l 278 388 l 465 388 m 342 1071 q 380 1117 368 1099 q 392 1160 392 1136 q 343 1206 392 1206 q 278 1185 313 1206 l 254 1267 q 349 1288 300 1288 q 440 1255 404 1288 q 475 1165 475 1222 q 455 1089 475 1122 q 393 1019 435 1056 l 342 1071 z "},"Ȃ":{"ha":743,"x_min":-3,"x_max":746,"o":"m 510 232 l 233 232 l 167 0 l -3 0 l 293 972 l 449 972 l 746 0 l 576 0 l 510 232 m 465 388 l 371 717 l 278 388 l 465 388 m 371 1260 q 516 1209 461 1260 q 571 1083 571 1158 l 453 1083 q 431 1144 453 1122 q 371 1165 408 1165 q 311 1144 333 1165 q 289 1083 289 1122 l 171 1083 q 226 1208 171 1157 q 371 1260 281 1260 z "},"Ā":{"ha":743,"x_min":-3,"x_max":746,"o":"m 510 232 l 233 232 l 167 0 l -3 0 l 293 972 l 449 972 l 746 0 l 576 0 l 510 232 m 465 388 l 371 717 l 278 388 l 465 388 m 157 1201 l 585 1201 l 585 1101 l 157 1101 l 157 1201 z "},"Ą":{"ha":743,"x_min":-3,"x_max":772,"o":"m 510 232 l 233 232 l 167 0 l -3 0 l 293 972 l 449 972 l 746 0 l 576 0 l 510 232 m 465 388 l 371 717 l 278 388 l 465 388 m 706 0 q 637 -77 661 -43 q 613 -144 613 -111 q 630 -192 613 -176 q 678 -208 647 -208 q 749 -192 711 -208 l 772 -268 q 663 -293 725 -293 q 563 -262 601 -293 q 524 -174 524 -231 q 549 -85 524 -125 q 619 0 574 -44 l 706 0 z "},"Å":{"ha":743,"x_min":-3,"x_max":746,"o":"m 510 232 l 233 232 l 167 0 l -3 0 l 293 972 l 449 972 l 746 0 l 576 0 l 510 232 m 465 388 l 371 717 l 278 388 l 465 388 m 371 1047 q 276 1086 313 1047 q 240 1182 240 1125 q 276 1278 240 1239 q 371 1318 313 1318 q 466 1278 431 1318 q 501 1182 501 1239 q 466 1086 501 1125 q 371 1047 431 1047 m 371 1119 q 409 1137 394 1119 q 424 1182 424 1154 q 409 1227 424 1210 q 371 1244 394 1244 q 333 1227 347 1244 q 318 1182 318 1210 q 333 1137 318 1154 q 371 1119 347 1119 z "},"Ǻ":{"ha":743,"x_min":-3,"x_max":746,"o":"m 510 232 l 233 232 l 167 0 l -3 0 l 293 972 l 449 972 l 746 0 l 576 0 l 510 232 m 465 388 l 371 717 l 278 388 l 465 388 m 371 1047 q 276 1086 313 1047 q 240 1182 240 1125 q 276 1278 240 1239 q 371 1318 313 1318 q 466 1278 431 1318 q 501 1182 501 1239 q 466 1086 501 1125 q 371 1047 431 1047 m 371 1119 q 409 1137 394 1119 q 424 1182 424 1154 q 409 1227 424 1210 q 371 1244 394 1244 q 333 1227 347 1244 q 318 1182 318 1210 q 333 1137 318 1154 q 371 1119 347 1119 m 263 1450 l 481 1561 l 481 1418 l 263 1354 l 263 1450 z "},"Ã":{"ha":743,"x_min":-3,"x_max":746,"o":"m 510 232 l 233 232 l 167 0 l -3 0 l 293 972 l 449 972 l 746 0 l 576 0 l 510 232 m 465 388 l 371 717 l 278 388 l 465 388 m 478 1079 q 435 1086 456 1079 q 379 1110 414 1093 q 340 1127 360 1119 q 306 1135 321 1135 q 265 1089 265 1135 l 160 1089 q 264 1235 160 1235 q 307 1228 286 1235 q 363 1204 328 1221 q 401 1187 382 1194 q 436 1179 421 1179 q 476 1225 476 1179 l 582 1225 q 478 1079 582 1079 z "},"Æ":{"ha":1088,"x_min":-11,"x_max":1047,"o":"m 1047 156 l 1047 0 l 489 0 l 489 244 l 265 244 l 167 0 l -11 0 l 396 972 l 1035 972 l 1035 817 l 658 817 l 658 588 l 949 588 l 949 432 l 658 432 l 658 156 l 1047 156 m 489 400 l 489 796 l 329 400 l 489 400 z "},"Ǽ":{"ha":1088,"x_min":-11,"x_max":1047,"o":"m 1047 156 l 1047 0 l 489 0 l 489 244 l 265 244 l 167 0 l -11 0 l 396 972 l 1035 972 l 1035 817 l 658 817 l 658 588 l 949 588 l 949 432 l 658 432 l 658 156 l 1047 156 m 489 400 l 489 796 l 329 400 l 489 400 m 607 1150 l 825 1261 l 825 1118 l 607 1054 l 607 1150 z "},"B":{"ha":782,"x_min":92,"x_max":732,"o":"m 571 526 q 732 276 732 464 q 658 73 732 146 q 456 0 585 0 l 92 0 l 92 972 l 417 972 q 595 913 536 972 q 654 738 654 853 q 571 526 654 589 m 261 588 l 386 588 q 463 615 438 588 q 488 701 488 643 q 463 790 488 763 q 386 817 438 817 l 261 817 l 261 588 m 425 156 q 523 187 489 156 q 557 293 557 218 q 522 403 557 371 q 425 435 486 435 l 261 435 l 261 156 l 425 156 z "},"C":{"ha":728,"x_min":42,"x_max":692,"o":"m 471 -19 q 251 42 349 -19 q 98 219 154 104 q 42 486 42 333 q 97 753 42 639 q 251 930 153 868 q 474 992 350 992 q 692 946 593 992 l 672 776 q 582 810 621 799 q 496 821 543 821 q 299 732 369 821 q 228 486 228 643 q 299 240 228 329 q 494 151 369 151 q 582 163 543 151 q 672 196 621 174 l 692 26 q 471 -19 600 -19 z "},"Ć":{"ha":728,"x_min":42,"x_max":692,"o":"m 471 -19 q 251 42 349 -19 q 98 219 154 104 q 42 486 42 333 q 97 753 42 639 q 251 930 153 868 q 474 992 350 992 q 692 946 593 992 l 672 776 q 582 810 621 799 q 496 821 543 821 q 299 732 369 821 q 228 486 228 643 q 299 240 228 329 q 494 151 369 151 q 582 163 543 151 q 672 196 621 174 l 692 26 q 471 -19 600 -19 m 349 1150 l 567 1261 l 567 1118 l 349 1054 l 349 1150 z "},"Č":{"ha":728,"x_min":42,"x_max":692,"o":"m 471 -19 q 251 42 349 -19 q 98 219 154 104 q 42 486 42 333 q 97 753 42 639 q 251 930 153 868 q 474 992 350 992 q 692 946 593 992 l 672 776 q 582 810 621 799 q 496 821 543 821 q 299 732 369 821 q 228 486 228 643 q 299 240 228 329 q 494 151 369 151 q 582 163 543 151 q 672 196 621 174 l 692 26 q 471 -19 600 -19 m 288 1203 l 288 1306 l 457 1214 l 626 1306 l 626 1203 l 457 1083 l 288 1203 z "},"Ç":{"ha":728,"x_min":42,"x_max":692,"o":"m 692 26 q 529 -17 619 -8 l 511 -79 q 593 -111 564 -81 q 622 -196 622 -142 q 582 -297 622 -261 q 478 -332 542 -332 q 378 -314 424 -332 l 404 -237 q 474 -253 443 -253 q 522 -239 504 -253 q 539 -200 539 -225 q 479 -147 539 -147 q 424 -157 456 -147 l 458 -19 q 244 47 339 -15 q 96 223 150 110 q 42 486 42 336 q 97 753 42 639 q 251 930 153 868 q 474 992 350 992 q 692 946 593 992 l 672 776 q 582 810 621 799 q 496 821 543 821 q 299 732 369 821 q 228 486 228 643 q 299 240 228 329 q 494 151 369 151 q 582 163 543 151 q 672 196 621 174 l 692 26 z "},"Ḉ":{"ha":728,"x_min":42,"x_max":692,"o":"m 567 1118 l 349 1054 l 349 1150 l 567 1261 l 567 1118 m 692 26 q 529 -17 619 -8 l 511 -79 q 593 -111 564 -81 q 622 -196 622 -142 q 582 -297 622 -261 q 478 -332 542 -332 q 378 -314 424 -332 l 404 -237 q 474 -253 443 -253 q 522 -239 504 -253 q 539 -200 539 -225 q 479 -147 539 -147 q 424 -157 456 -147 l 458 -19 q 244 47 339 -15 q 96 223 150 110 q 42 486 42 336 q 97 753 42 639 q 251 930 153 868 q 474 992 350 992 q 692 946 593 992 l 672 776 q 582 810 621 799 q 496 821 543 821 q 299 732 369 821 q 228 486 228 643 q 299 240 228 329 q 494 151 369 151 q 582 163 543 151 q 672 196 621 174 l 692 26 z "},"Ĉ":{"ha":728,"x_min":42,"x_max":692,"o":"m 471 -19 q 251 42 349 -19 q 98 219 154 104 q 42 486 42 333 q 97 753 42 639 q 251 930 153 868 q 474 992 350 992 q 692 946 593 992 l 672 776 q 582 810 621 799 q 496 821 543 821 q 299 732 369 821 q 228 486 228 643 q 299 240 228 329 q 494 151 369 151 q 582 163 543 151 q 672 196 621 174 l 692 26 q 471 -19 600 -19 m 626 1138 l 626 1035 l 457 1126 l 288 1035 l 288 1138 l 457 1257 l 626 1138 z "},"Ċ":{"ha":728,"x_min":42,"x_max":692,"o":"m 471 -19 q 251 42 349 -19 q 98 219 154 104 q 42 486 42 333 q 97 753 42 639 q 251 930 153 868 q 474 992 350 992 q 692 946 593 992 l 672 776 q 582 810 621 799 q 496 821 543 821 q 299 732 369 821 q 228 486 228 643 q 299 240 228 329 q 494 151 369 151 q 582 163 543 151 q 672 196 621 174 l 692 26 q 471 -19 600 -19 m 388 1235 l 526 1235 l 526 1100 l 388 1100 l 388 1235 z "},"D":{"ha":860,"x_min":92,"x_max":817,"o":"m 92 972 l 406 972 q 618 914 525 972 q 764 746 711 856 q 817 486 817 636 q 764 226 817 336 q 618 58 711 117 q 406 0 525 0 l 92 0 l 92 972 m 406 156 q 574 243 517 156 q 631 486 631 331 q 574 729 631 642 q 406 817 517 817 l 261 817 l 261 156 l 406 156 z "},"Ǆ":{"ha":1503,"x_min":92,"x_max":1492,"o":"m 92 972 l 406 972 q 618 914 525 972 q 764 746 711 856 q 817 486 817 636 q 764 226 817 336 q 618 58 711 117 q 406 0 525 0 l 92 0 l 92 972 m 406 156 q 574 243 517 156 q 631 486 631 331 q 574 729 631 642 q 406 817 517 817 l 261 817 l 261 156 l 406 156 m 1492 156 l 1492 0 l 850 0 l 1242 817 l 906 817 l 906 972 l 1486 972 l 1097 156 l 1492 156 m 1040 1192 l 1040 1301 l 1196 1204 l 1351 1301 l 1351 1192 l 1196 1061 l 1040 1192 z "},"Ð":{"ha":868,"x_min":19,"x_max":825,"o":"m 100 415 l 19 415 l 19 560 l 100 560 l 100 972 l 414 972 q 626 914 533 972 q 772 746 719 856 q 825 486 825 636 q 772 226 825 336 q 626 58 719 117 q 414 0 533 0 l 100 0 l 100 415 m 414 156 q 582 243 525 156 q 639 486 639 331 q 582 729 639 642 q 414 817 525 817 l 269 817 l 269 560 l 419 560 l 419 415 l 269 415 l 269 156 l 414 156 z "},"Ď":{"ha":860,"x_min":92,"x_max":817,"o":"m 92 972 l 406 972 q 618 914 525 972 q 764 746 711 856 q 817 486 817 636 q 764 226 817 336 q 618 58 711 117 q 406 0 525 0 l 92 0 l 92 972 m 406 156 q 574 243 517 156 q 631 486 631 331 q 574 729 631 642 q 406 817 517 817 l 261 817 l 261 156 l 406 156 m 261 1203 l 261 1306 l 431 1214 l 600 1306 l 600 1203 l 431 1083 l 261 1203 z "},"Đ":{"ha":868,"x_min":19,"x_max":825,"o":"m 100 415 l 19 415 l 19 560 l 100 560 l 100 972 l 414 972 q 626 914 533 972 q 772 746 719 856 q 825 486 825 636 q 772 226 825 336 q 626 58 719 117 q 414 0 533 0 l 100 0 l 100 415 m 414 156 q 582 243 525 156 q 639 486 639 331 q 582 729 639 642 q 414 817 525 817 l 269 817 l 269 560 l 419 560 l 419 415 l 269 415 l 269 156 l 414 156 z "},"Ḍ":{"ha":860,"x_min":92,"x_max":817,"o":"m 92 972 l 406 972 q 618 914 525 972 q 764 746 711 856 q 817 486 817 636 q 764 226 817 336 q 618 58 711 117 q 406 0 525 0 l 92 0 l 92 972 m 406 156 q 574 243 517 156 q 631 486 631 331 q 574 729 631 642 q 406 817 517 817 l 261 817 l 261 156 l 406 156 m 364 -112 l 497 -112 l 497 -247 l 364 -247 l 364 -112 z "},"Ḏ":{"ha":860,"x_min":92,"x_max":817,"o":"m 92 972 l 406 972 q 618 914 525 972 q 764 746 711 856 q 817 486 817 636 q 764 226 817 336 q 618 58 711 117 q 406 0 525 0 l 92 0 l 92 972 m 406 156 q 574 243 517 156 q 631 486 631 331 q 574 729 631 642 q 406 817 517 817 l 261 817 l 261 156 l 406 156 m 231 -129 l 631 -129 l 631 -236 l 231 -236 l 231 -129 z "},"ǅ":{"ha":1410,"x_min":92,"x_max":1389,"o":"m 92 972 l 406 972 q 618 914 525 972 q 764 746 711 856 q 817 486 817 636 q 764 226 817 336 q 618 58 711 117 q 406 0 525 0 l 92 0 l 92 972 m 406 156 q 574 243 517 156 q 631 486 631 331 q 574 729 631 642 q 406 817 517 817 l 261 817 l 261 156 l 406 156 m 1117 140 l 1381 140 l 1381 0 l 878 0 l 1150 554 l 896 554 l 896 694 l 1389 694 l 1117 140 m 988 914 l 988 1024 l 1143 926 l 1299 1024 l 1299 914 l 1143 783 l 988 914 z "},"E":{"ha":690,"x_min":92,"x_max":650,"o":"m 92 972 l 638 972 l 638 817 l 261 817 l 261 588 l 551 588 l 551 432 l 261 432 l 261 156 l 650 156 l 650 0 l 92 0 l 92 972 z "},"É":{"ha":690,"x_min":92,"x_max":650,"o":"m 92 972 l 638 972 l 638 817 l 261 817 l 261 588 l 551 588 l 551 432 l 261 432 l 261 156 l 650 156 l 650 0 l 92 0 l 92 972 m 257 1190 l 475 1324 l 475 1164 l 257 1081 l 257 1190 z "},"Ĕ":{"ha":690,"x_min":92,"x_max":650,"o":"m 92 972 l 638 972 l 638 817 l 261 817 l 261 588 l 551 588 l 551 432 l 261 432 l 261 156 l 650 156 l 650 0 l 92 0 l 92 972 m 365 1093 q 225 1145 278 1093 q 172 1275 172 1197 l 285 1275 q 306 1215 285 1236 q 365 1193 326 1193 q 425 1215 404 1193 q 446 1275 446 1236 l 558 1275 q 506 1145 558 1197 q 365 1093 453 1093 z "},"Ě":{"ha":690,"x_min":92,"x_max":650,"o":"m 92 972 l 638 972 l 638 817 l 261 817 l 261 588 l 551 588 l 551 432 l 261 432 l 261 156 l 650 156 l 650 0 l 92 0 l 92 972 m 210 1192 l 210 1301 l 365 1204 l 521 1301 l 521 1192 l 365 1061 l 210 1192 z "},"Ḝ":{"ha":690,"x_min":92,"x_max":650,"o":"m 92 972 l 638 972 l 638 817 l 261 817 l 261 588 l 551 588 l 551 432 l 261 432 l 261 156 l 650 156 l 650 0 l 92 0 l 92 972 m 399 -79 q 481 -111 451 -81 q 510 -196 510 -142 q 469 -297 510 -261 q 365 -332 429 -332 q 265 -314 311 -332 l 292 -237 q 361 -253 329 -253 q 409 -239 392 -253 q 426 -200 426 -225 q 367 -147 426 -147 q 311 -157 343 -147 l 350 0 l 422 0 l 399 -79 m 365 1063 q 220 1114 275 1063 q 165 1239 165 1165 l 283 1239 q 306 1178 283 1200 q 365 1157 328 1157 q 425 1178 403 1157 q 447 1239 447 1200 l 565 1239 q 510 1113 565 1164 q 365 1063 456 1063 z "},"Ê":{"ha":690,"x_min":92,"x_max":650,"o":"m 92 972 l 638 972 l 638 817 l 261 817 l 261 588 l 551 588 l 551 432 l 261 432 l 261 156 l 650 156 l 650 0 l 92 0 l 92 972 m 210 1171 l 365 1303 l 521 1171 l 521 1061 l 365 1158 l 210 1061 l 210 1171 z "},"Ế":{"ha":690,"x_min":92,"x_max":694,"o":"m 92 972 l 638 972 l 638 817 l 261 817 l 261 588 l 551 588 l 551 432 l 261 432 l 261 156 l 650 156 l 650 0 l 92 0 l 92 972 m 540 1425 l 694 1425 l 567 1249 l 463 1249 l 540 1425 m 535 1151 l 535 1049 l 365 1140 l 196 1049 l 196 1151 l 365 1271 l 535 1151 z "},"Ệ":{"ha":690,"x_min":92,"x_max":650,"o":"m 92 972 l 638 972 l 638 817 l 261 817 l 261 588 l 551 588 l 551 432 l 261 432 l 261 156 l 650 156 l 650 0 l 92 0 l 92 972 m 210 1171 l 365 1303 l 521 1171 l 521 1061 l 365 1158 l 210 1061 l 210 1171 m 304 -112 l 438 -112 l 438 -247 l 304 -247 l 304 -112 z "},"Ề":{"ha":690,"x_min":92,"x_max":650,"o":"m 92 972 l 638 972 l 638 817 l 261 817 l 261 588 l 551 588 l 551 432 l 261 432 l 261 156 l 650 156 l 650 0 l 92 0 l 92 972 m 501 1249 l 401 1425 l 544 1425 l 601 1249 l 501 1249 m 535 1151 l 535 1049 l 365 1140 l 196 1049 l 196 1151 l 365 1271 l 535 1151 z "},"Ể":{"ha":690,"x_min":92,"x_max":650,"o":"m 92 972 l 638 972 l 638 817 l 261 817 l 261 588 l 551 588 l 551 432 l 261 432 l 261 156 l 650 156 l 650 0 l 92 0 l 92 972 m 535 1138 l 535 1035 l 365 1126 l 196 1035 l 196 1138 l 365 1257 l 535 1138 m 483 1278 q 516 1295 506 1285 q 526 1325 526 1306 q 481 1364 526 1364 q 413 1344 451 1364 l 389 1429 q 489 1449 436 1449 q 580 1420 544 1449 q 615 1342 615 1392 q 587 1265 615 1294 q 499 1217 558 1236 l 483 1278 z "},"Ễ":{"ha":690,"x_min":92,"x_max":650,"o":"m 92 972 l 638 972 l 638 817 l 261 817 l 261 588 l 551 588 l 551 432 l 261 432 l 261 156 l 650 156 l 650 0 l 92 0 l 92 972 m 535 1138 l 535 1035 l 365 1126 l 196 1035 l 196 1138 l 365 1257 l 535 1138 m 472 1307 q 429 1314 450 1307 q 374 1338 408 1321 q 335 1355 354 1347 q 300 1363 315 1363 q 260 1317 260 1363 l 154 1317 q 258 1463 154 1463 q 301 1456 281 1463 q 357 1432 322 1449 q 396 1415 376 1422 q 431 1407 415 1407 q 471 1453 471 1407 l 576 1453 q 472 1307 576 1307 z "},"Ȅ":{"ha":690,"x_min":86,"x_max":650,"o":"m 92 972 l 638 972 l 638 817 l 261 817 l 261 588 l 551 588 l 551 432 l 261 432 l 261 156 l 650 156 l 650 0 l 92 0 l 92 972 m 211 1094 l 86 1313 l 240 1313 l 315 1094 l 211 1094 m 410 1094 l 296 1313 l 450 1313 l 514 1094 l 410 1094 z "},"Ë":{"ha":690,"x_min":92,"x_max":650,"o":"m 92 972 l 638 972 l 638 817 l 261 817 l 261 588 l 551 588 l 551 432 l 261 432 l 261 156 l 650 156 l 650 0 l 92 0 l 92 972 m 186 1224 l 314 1224 l 314 1099 l 186 1099 l 186 1224 m 417 1224 l 544 1224 l 544 1099 l 417 1099 l 417 1224 z "},"Ė":{"ha":690,"x_min":92,"x_max":650,"o":"m 92 972 l 638 972 l 638 817 l 261 817 l 261 588 l 551 588 l 551 432 l 261 432 l 261 156 l 650 156 l 650 0 l 92 0 l 92 972 m 296 1235 l 435 1235 l 435 1100 l 296 1100 l 296 1235 z "},"Ẹ":{"ha":690,"x_min":92,"x_max":650,"o":"m 92 972 l 638 972 l 638 817 l 261 817 l 261 588 l 551 588 l 551 432 l 261 432 l 261 156 l 650 156 l 650 0 l 92 0 l 92 972 m 304 -112 l 438 -112 l 438 -247 l 304 -247 l 304 -112 z "},"È":{"ha":690,"x_min":92,"x_max":650,"o":"m 92 972 l 638 972 l 638 817 l 261 817 l 261 588 l 551 588 l 551 432 l 261 432 l 261 156 l 650 156 l 650 0 l 92 0 l 92 972 m 256 1167 l 256 1332 l 474 1193 l 474 1078 l 256 1167 z "},"Ẻ":{"ha":690,"x_min":92,"x_max":650,"o":"m 92 972 l 638 972 l 638 817 l 261 817 l 261 588 l 551 588 l 551 432 l 261 432 l 261 156 l 650 156 l 650 0 l 92 0 l 92 972 m 336 1071 q 374 1117 363 1099 q 386 1160 386 1136 q 338 1206 386 1206 q 272 1185 307 1206 l 249 1267 q 343 1288 294 1288 q 434 1255 399 1288 q 469 1165 469 1222 q 449 1089 469 1122 q 388 1019 429 1056 l 336 1071 z "},"Ȇ":{"ha":690,"x_min":92,"x_max":650,"o":"m 92 972 l 638 972 l 638 817 l 261 817 l 261 588 l 551 588 l 551 432 l 261 432 l 261 156 l 650 156 l 650 0 l 92 0 l 92 972 m 365 1260 q 510 1209 456 1260 q 565 1083 565 1158 l 447 1083 q 425 1144 447 1122 q 365 1165 403 1165 q 306 1144 328 1165 q 283 1083 283 1122 l 165 1083 q 220 1208 165 1157 q 365 1260 275 1260 z "},"Ē":{"ha":690,"x_min":92,"x_max":650,"o":"m 92 972 l 638 972 l 638 817 l 261 817 l 261 588 l 551 588 l 551 432 l 261 432 l 261 156 l 650 156 l 650 0 l 92 0 l 92 972 m 151 1201 l 579 1201 l 579 1101 l 151 1101 l 151 1201 z "},"Ḗ":{"ha":690,"x_min":92,"x_max":650,"o":"m 92 972 l 638 972 l 638 817 l 261 817 l 261 588 l 551 588 l 551 432 l 261 432 l 261 156 l 650 156 l 650 0 l 92 0 l 92 972 m 151 1201 l 579 1201 l 579 1101 l 151 1101 l 151 1201 m 257 1389 l 475 1500 l 475 1357 l 257 1293 l 257 1389 z "},"Ḕ":{"ha":690,"x_min":92,"x_max":650,"o":"m 92 972 l 638 972 l 638 817 l 261 817 l 261 588 l 551 588 l 551 432 l 261 432 l 261 156 l 650 156 l 650 0 l 92 0 l 92 972 m 151 1201 l 579 1201 l 579 1101 l 151 1101 l 151 1201 m 256 1357 l 256 1500 l 474 1389 l 474 1293 l 256 1357 z "},"Ę":{"ha":690,"x_min":92,"x_max":717,"o":"m 92 972 l 638 972 l 638 817 l 261 817 l 261 588 l 551 588 l 551 432 l 261 432 l 261 156 l 650 156 l 650 0 l 92 0 l 92 972 m 650 0 q 581 -77 606 -43 q 557 -144 557 -111 q 574 -192 557 -176 q 622 -208 592 -208 q 693 -192 656 -208 l 717 -268 q 607 -293 669 -293 q 507 -262 546 -293 q 468 -174 468 -231 q 493 -85 468 -125 q 564 0 518 -44 l 650 0 z "},"Ẽ":{"ha":690,"x_min":92,"x_max":650,"o":"m 92 972 l 638 972 l 638 817 l 261 817 l 261 588 l 551 588 l 551 432 l 261 432 l 261 156 l 650 156 l 650 0 l 92 0 l 92 972 m 461 1081 q 414 1090 435 1081 q 368 1115 393 1099 q 335 1135 349 1129 q 307 1142 321 1142 q 278 1128 289 1142 q 268 1092 268 1114 l 156 1092 q 188 1217 158 1174 q 269 1260 217 1260 q 317 1251 296 1260 q 363 1225 338 1242 q 396 1205 382 1211 q 424 1199 410 1199 q 452 1213 442 1199 q 463 1249 463 1226 l 575 1249 q 543 1124 572 1167 q 461 1081 514 1081 z "},"F":{"ha":629,"x_min":92,"x_max":608,"o":"m 92 972 l 608 972 l 608 817 l 261 817 l 261 588 l 529 588 l 529 432 l 261 432 l 261 0 l 92 0 l 92 972 z "},"G":{"ha":793,"x_min":42,"x_max":738,"o":"m 475 -19 q 248 43 346 -19 q 96 220 150 106 q 42 486 42 335 q 99 753 42 639 q 256 930 156 868 q 482 992 356 992 q 710 946 606 992 l 690 776 q 595 810 636 799 q 504 821 554 821 q 301 732 374 821 q 228 486 228 643 q 295 239 228 326 q 490 151 363 151 q 568 164 533 151 l 568 332 l 457 332 l 457 488 l 738 488 l 738 51 q 622 -1 690 18 q 475 -19 554 -19 z "},"Ğ":{"ha":793,"x_min":42,"x_max":738,"o":"m 475 -19 q 248 43 346 -19 q 96 220 150 106 q 42 486 42 335 q 99 753 42 639 q 256 930 156 868 q 482 992 356 992 q 710 946 606 992 l 690 776 q 595 810 636 799 q 504 821 554 821 q 301 732 374 821 q 228 486 228 643 q 295 239 228 326 q 490 151 363 151 q 568 164 533 151 l 568 332 l 457 332 l 457 488 l 738 488 l 738 51 q 622 -1 690 18 q 475 -19 554 -19 m 479 1063 q 334 1114 389 1063 q 279 1239 279 1165 l 397 1239 q 419 1178 397 1200 q 479 1157 442 1157 q 539 1178 517 1157 q 561 1239 561 1200 l 679 1239 q 624 1113 679 1164 q 479 1063 569 1063 z "},"Ǧ":{"ha":793,"x_min":42,"x_max":738,"o":"m 475 -19 q 248 43 346 -19 q 96 220 150 106 q 42 486 42 335 q 99 753 42 639 q 256 930 156 868 q 482 992 356 992 q 710 946 606 992 l 690 776 q 595 810 636 799 q 504 821 554 821 q 301 732 374 821 q 228 486 228 643 q 295 239 228 326 q 490 151 363 151 q 568 164 533 151 l 568 332 l 457 332 l 457 488 l 738 488 l 738 51 q 622 -1 690 18 q 475 -19 554 -19 m 310 1203 l 310 1306 l 479 1214 l 649 1306 l 649 1203 l 479 1083 l 310 1203 z "},"Ĝ":{"ha":793,"x_min":42,"x_max":738,"o":"m 475 -19 q 248 43 346 -19 q 96 220 150 106 q 42 486 42 335 q 99 753 42 639 q 256 930 156 868 q 482 992 356 992 q 710 946 606 992 l 690 776 q 595 810 636 799 q 504 821 554 821 q 301 732 374 821 q 228 486 228 643 q 295 239 228 326 q 490 151 363 151 q 568 164 533 151 l 568 332 l 457 332 l 457 488 l 738 488 l 738 51 q 622 -1 690 18 q 475 -19 554 -19 m 649 1138 l 649 1035 l 479 1126 l 310 1035 l 310 1138 l 479 1257 l 649 1138 z "},"Ģ":{"ha":793,"x_min":42,"x_max":738,"o":"m 475 -19 q 248 43 346 -19 q 96 220 150 106 q 42 486 42 335 q 99 753 42 639 q 256 930 156 868 q 482 992 356 992 q 710 946 606 992 l 690 776 q 595 810 636 799 q 504 821 554 821 q 301 732 374 821 q 228 486 228 643 q 295 239 228 326 q 490 151 363 151 q 568 164 533 151 l 568 332 l 457 332 l 457 488 l 738 488 l 738 51 q 622 -1 690 18 q 475 -19 554 -19 m 400 -414 l 460 -261 l 414 -261 l 414 -126 l 553 -126 l 553 -244 l 464 -414 l 400 -414 z "},"Ġ":{"ha":793,"x_min":42,"x_max":738,"o":"m 475 -19 q 248 43 346 -19 q 96 220 150 106 q 42 486 42 335 q 99 753 42 639 q 256 930 156 868 q 482 992 356 992 q 710 946 606 992 l 690 776 q 595 810 636 799 q 504 821 554 821 q 301 732 374 821 q 228 486 228 643 q 295 239 228 326 q 490 151 363 151 q 568 164 533 151 l 568 332 l 457 332 l 457 488 l 738 488 l 738 51 q 622 -1 690 18 q 475 -19 554 -19 m 410 1235 l 549 1235 l 549 1100 l 410 1100 l 410 1235 z "},"Ḡ":{"ha":793,"x_min":42,"x_max":738,"o":"m 475 -19 q 248 43 346 -19 q 96 220 150 106 q 42 486 42 335 q 99 753 42 639 q 256 930 156 868 q 482 992 356 992 q 710 946 606 992 l 690 776 q 595 810 636 799 q 504 821 554 821 q 301 732 374 821 q 228 486 228 643 q 295 239 228 326 q 490 151 363 151 q 568 164 533 151 l 568 332 l 457 332 l 457 488 l 738 488 l 738 51 q 622 -1 690 18 q 475 -19 554 -19 m 265 1201 l 693 1201 l 693 1101 l 265 1101 l 265 1201 z "},"H":{"ha":883,"x_min":92,"x_max":792,"o":"m 92 972 l 261 972 l 261 588 l 622 588 l 622 972 l 792 972 l 792 0 l 622 0 l 622 421 l 261 421 l 261 0 l 92 0 l 92 972 z "},"Ħ":{"ha":908,"x_min":28,"x_max":881,"o":"m 881 678 l 804 678 l 804 0 l 635 0 l 635 421 l 274 421 l 274 0 l 104 0 l 104 678 l 28 678 l 28 803 l 104 803 l 104 972 l 274 972 l 274 803 l 635 803 l 635 972 l 804 972 l 804 803 l 881 803 l 881 678 m 635 678 l 274 678 l 274 588 l 635 588 l 635 678 z "},"Ḫ":{"ha":883,"x_min":92,"x_max":792,"o":"m 92 972 l 261 972 l 261 588 l 622 588 l 622 972 l 792 972 l 792 0 l 622 0 l 622 421 l 261 421 l 261 0 l 92 0 l 92 972 m 442 -319 q 301 -267 354 -319 q 249 -137 249 -215 l 361 -137 q 382 -198 361 -176 q 442 -219 403 -219 q 501 -198 481 -219 q 522 -137 522 -176 l 635 -137 q 582 -267 635 -215 q 442 -319 529 -319 z "},"Ĥ":{"ha":883,"x_min":92,"x_max":792,"o":"m 92 972 l 261 972 l 261 588 l 622 588 l 622 972 l 792 972 l 792 0 l 622 0 l 622 421 l 261 421 l 261 0 l 92 0 l 92 972 m 611 1138 l 611 1035 l 442 1126 l 272 1035 l 272 1138 l 442 1257 l 611 1138 z "},"Ḥ":{"ha":883,"x_min":92,"x_max":792,"o":"m 92 972 l 261 972 l 261 588 l 622 588 l 622 972 l 792 972 l 792 0 l 622 0 l 622 421 l 261 421 l 261 0 l 92 0 l 92 972 m 375 -112 l 508 -112 l 508 -247 l 375 -247 l 375 -112 z "},"I":{"ha":336,"x_min":83,"x_max":253,"o":"m 83 972 l 253 972 l 253 0 l 83 0 l 83 972 z "},"Ĳ":{"ha":833,"x_min":83,"x_max":750,"o":"m 83 972 l 253 972 l 253 463 l 83 463 l 83 972 m 257 338 q 302 199 265 247 q 417 151 339 151 q 546 220 511 151 q 581 421 581 289 l 581 972 l 750 972 l 750 375 q 666 85 750 190 q 417 -19 582 -19 q 183 68 267 -19 q 86 313 100 156 l 257 338 z "},"Í":{"ha":336,"x_min":60,"x_max":278,"o":"m 83 972 l 253 972 l 253 0 l 83 0 l 83 972 m 60 1190 l 278 1324 l 278 1164 l 60 1081 l 60 1190 z "},"Ĭ":{"ha":336,"x_min":-25,"x_max":361,"o":"m 83 972 l 253 972 l 253 0 l 83 0 l 83 972 m 168 1093 q 28 1145 81 1093 q -25 1275 -25 1197 l 88 1275 q 108 1215 88 1236 q 168 1193 129 1193 q 228 1215 207 1193 q 249 1275 249 1236 l 361 1275 q 308 1145 361 1197 q 168 1093 256 1093 z "},"Î":{"ha":336,"x_min":13,"x_max":324,"o":"m 83 972 l 253 972 l 253 0 l 83 0 l 83 972 m 13 1171 l 168 1303 l 324 1171 l 324 1061 l 168 1158 l 13 1061 l 13 1171 z "},"Ȉ":{"ha":336,"x_min":-111,"x_max":317,"o":"m 83 972 l 253 972 l 253 0 l 83 0 l 83 972 m 14 1094 l -111 1313 l 43 1313 l 118 1094 l 14 1094 m 213 1094 l 99 1313 l 253 1313 l 317 1094 l 213 1094 z "},"Ï":{"ha":336,"x_min":-11,"x_max":347,"o":"m 83 972 l 253 972 l 253 0 l 83 0 l 83 972 m -11 1224 l 117 1224 l 117 1099 l -11 1099 l -11 1224 m 219 1224 l 347 1224 l 347 1099 l 219 1099 l 219 1224 z "},"Ḯ":{"ha":336,"x_min":-11,"x_max":347,"o":"m 83 972 l 253 972 l 253 0 l 83 0 l 83 972 m -11 1207 l 117 1207 l 117 1088 l -11 1088 l -11 1207 m 219 1207 l 347 1207 l 347 1088 l 219 1088 l 219 1207 m 60 1358 l 278 1469 l 278 1326 l 60 1263 l 60 1358 z "},"İ":{"ha":336,"x_min":83,"x_max":253,"o":"m 83 972 l 253 972 l 253 0 l 83 0 l 83 972 m 99 1235 l 238 1235 l 238 1100 l 99 1100 l 99 1235 z "},"Ị":{"ha":336,"x_min":83,"x_max":253,"o":"m 83 972 l 253 972 l 253 0 l 83 0 l 83 972 m 101 -112 l 235 -112 l 235 -247 l 101 -247 l 101 -112 z "},"Ì":{"ha":336,"x_min":58,"x_max":276,"o":"m 83 972 l 253 972 l 253 0 l 83 0 l 83 972 m 58 1167 l 58 1332 l 276 1193 l 276 1078 l 58 1167 z "},"Ỉ":{"ha":336,"x_min":51,"x_max":272,"o":"m 83 972 l 253 972 l 253 0 l 83 0 l 83 972 m 139 1071 q 177 1117 165 1099 q 189 1160 189 1136 q 140 1206 189 1206 q 75 1185 110 1206 l 51 1267 q 146 1288 97 1288 q 237 1255 201 1288 q 272 1165 272 1222 q 252 1089 272 1122 q 190 1019 232 1056 l 139 1071 z "},"Ȋ":{"ha":336,"x_min":-32,"x_max":368,"o":"m 83 972 l 253 972 l 253 0 l 83 0 l 83 972 m 168 1260 q 313 1209 258 1260 q 368 1083 368 1158 l 250 1083 q 228 1144 250 1122 q 168 1165 206 1165 q 108 1144 131 1165 q 86 1083 86 1122 l -32 1083 q 23 1208 -32 1157 q 168 1260 78 1260 z "},"Ī":{"ha":336,"x_min":-46,"x_max":382,"o":"m 83 972 l 253 972 l 253 0 l 83 0 l 83 972 m -46 1201 l 382 1201 l 382 1101 l -46 1101 l -46 1201 z "},"Į":{"ha":336,"x_min":71,"x_max":319,"o":"m 83 972 l 253 972 l 253 0 l 83 0 l 83 972 m 253 0 q 184 -77 208 -43 q 160 -144 160 -111 q 177 -192 160 -176 q 225 -208 194 -208 q 296 -192 258 -208 l 319 -268 q 210 -293 272 -293 q 110 -262 149 -293 q 71 -174 71 -231 q 96 -85 71 -125 q 167 0 121 -44 l 253 0 z "},"Ĩ":{"ha":336,"x_min":-42,"x_max":378,"o":"m 83 972 l 253 972 l 253 0 l 83 0 l 83 972 m 264 1081 q 217 1090 238 1081 q 171 1115 196 1099 q 138 1135 151 1129 q 110 1142 124 1142 q 81 1128 92 1142 q 71 1092 71 1114 l -42 1092 q -10 1217 -39 1174 q 72 1260 19 1260 q 119 1251 99 1260 q 165 1225 140 1242 q 199 1205 185 1211 q 226 1199 213 1199 q 255 1213 244 1199 q 265 1249 265 1226 l 378 1249 q 346 1124 375 1167 q 264 1081 317 1081 z "},"J":{"ha":336,"x_min":-6,"x_max":250,"o":"m -6 -89 q 60 -69 40 -89 q 81 -1 81 -49 l 81 972 l 250 972 l 250 -33 q 193 -187 250 -136 q 36 -239 136 -239 l 7 -239 l -6 -89 z "},"Ĵ":{"ha":336,"x_min":-6,"x_max":335,"o":"m -6 -89 q 60 -69 40 -89 q 81 -1 81 -49 l 81 972 l 250 972 l 250 -33 q 193 -187 250 -136 q 36 -239 136 -239 l 7 -239 l -6 -89 m 335 1138 l 335 1035 l 165 1126 l -4 1035 l -4 1138 l 165 1257 l 335 1138 z "},"K":{"ha":731,"x_min":75,"x_max":744,"o":"m 75 972 l 244 972 l 244 0 l 75 0 l 75 972 m 251 514 l 544 972 l 744 972 l 443 514 l 744 0 l 544 0 l 251 514 z "},"Ķ":{"ha":731,"x_min":75,"x_max":744,"o":"m 75 972 l 244 972 l 244 0 l 75 0 l 75 972 m 251 514 l 544 972 l 744 972 l 443 514 l 744 0 l 544 0 l 251 514 m 311 -414 l 371 -261 l 325 -261 l 325 -126 l 464 -126 l 464 -244 l 375 -414 l 311 -414 z "},"L":{"ha":597,"x_min":92,"x_max":589,"o":"m 92 972 l 261 972 l 261 156 l 589 156 l 589 0 l 92 0 l 92 972 z "},"Ǉ":{"ha":933,"x_min":92,"x_max":847,"o":"m 92 972 l 261 972 l 261 156 l 589 156 l 589 0 l 92 0 l 92 972 m 592 -89 q 658 -69 638 -89 q 678 -1 678 -49 l 678 972 l 847 972 l 847 -33 q 790 -187 847 -136 q 633 -239 733 -239 l 604 -239 l 592 -89 z "},"Ĺ":{"ha":597,"x_min":68,"x_max":589,"o":"m 92 972 l 261 972 l 261 156 l 589 156 l 589 0 l 92 0 l 92 972 m 68 1150 l 286 1261 l 286 1118 l 68 1054 l 68 1150 z "},"Ľ":{"ha":597,"x_min":92,"x_max":589,"o":"m 92 972 l 261 972 l 261 156 l 589 156 l 589 0 l 92 0 l 92 972 m 457 972 l 589 972 l 549 726 l 457 726 l 457 972 z "},"Ļ":{"ha":597,"x_min":92,"x_max":589,"o":"m 92 972 l 261 972 l 261 156 l 589 156 l 589 0 l 92 0 l 92 972 m 257 -414 l 317 -261 l 271 -261 l 271 -126 l 410 -126 l 410 -244 l 321 -414 l 257 -414 z "},"Ŀ":{"ha":597,"x_min":92,"x_max":589,"o":"m 92 972 l 261 972 l 261 156 l 589 156 l 589 0 l 92 0 l 92 972 m 389 635 l 561 635 l 561 454 l 389 454 l 389 635 z "},"Ḷ":{"ha":597,"x_min":92,"x_max":589,"o":"m 92 972 l 261 972 l 261 156 l 589 156 l 589 0 l 92 0 l 92 972 m 274 -112 l 407 -112 l 407 -247 l 274 -247 l 274 -112 z "},"ǈ":{"ha":886,"x_min":92,"x_max":825,"o":"m 92 972 l 261 972 l 261 156 l 589 156 l 589 0 l 92 0 l 92 972 m 658 972 l 825 972 l 825 800 l 658 800 l 658 972 m 593 -194 q 643 -175 628 -194 q 658 -108 658 -156 l 658 694 l 825 694 l 825 -154 q 783 -291 825 -246 q 650 -336 742 -336 l 607 -336 l 593 -194 z "},"Ḻ":{"ha":597,"x_min":92,"x_max":589,"o":"m 92 972 l 261 972 l 261 156 l 589 156 l 589 0 l 92 0 l 92 972 m 140 -129 l 540 -129 l 540 -236 l 140 -236 l 140 -129 z "},"Ł":{"ha":610,"x_min":28,"x_max":601,"o":"m 601 156 l 601 0 l 104 0 l 104 510 l 28 489 l 28 628 l 104 649 l 104 972 l 274 972 l 274 694 l 497 756 l 497 617 l 274 556 l 274 156 l 601 156 z "},"M":{"ha":1014,"x_min":50,"x_max":956,"o":"m 781 0 l 710 625 l 503 196 l 296 625 l 225 0 l 50 0 l 172 972 l 310 972 l 503 546 l 696 972 l 833 972 l 956 0 l 781 0 z "},"Ṃ":{"ha":1014,"x_min":50,"x_max":956,"o":"m 781 0 l 710 625 l 503 196 l 296 625 l 225 0 l 50 0 l 172 972 l 310 972 l 503 546 l 696 972 l 833 972 l 956 0 l 781 0 m 443 -112 l 576 -112 l 576 -247 l 443 -247 l 443 -112 z "},"N":{"ha":849,"x_min":92,"x_max":757,"o":"m 92 972 l 265 972 l 588 364 l 588 972 l 757 972 l 757 0 l 608 0 l 261 647 l 261 0 l 92 0 l 92 972 z "},"Ǌ":{"ha":1185,"x_min":92,"x_max":1099,"o":"m 92 972 l 265 972 l 588 364 l 588 972 l 757 972 l 757 0 l 608 0 l 261 647 l 261 0 l 92 0 l 92 972 m 843 -89 q 909 -69 889 -89 q 929 -1 929 -49 l 929 972 l 1099 972 l 1099 -33 q 1042 -187 1099 -136 q 885 -239 985 -239 l 856 -239 l 843 -89 z "},"Ń":{"ha":849,"x_min":92,"x_max":757,"o":"m 92 972 l 265 972 l 588 364 l 588 972 l 757 972 l 757 0 l 608 0 l 261 647 l 261 0 l 92 0 l 92 972 m 318 1150 l 536 1261 l 536 1118 l 318 1054 l 318 1150 z "},"Ň":{"ha":849,"x_min":92,"x_max":757,"o":"m 92 972 l 265 972 l 588 364 l 588 972 l 757 972 l 757 0 l 608 0 l 261 647 l 261 0 l 92 0 l 92 972 m 257 1203 l 257 1306 l 426 1214 l 596 1306 l 596 1203 l 426 1083 l 257 1203 z "},"Ņ":{"ha":849,"x_min":92,"x_max":757,"o":"m 92 972 l 265 972 l 588 364 l 588 972 l 757 972 l 757 0 l 608 0 l 261 647 l 261 0 l 92 0 l 92 972 m 351 -414 l 411 -261 l 365 -261 l 365 -126 l 504 -126 l 504 -244 l 415 -414 l 351 -414 z "},"Ṅ":{"ha":849,"x_min":92,"x_max":757,"o":"m 92 972 l 265 972 l 588 364 l 588 972 l 757 972 l 757 0 l 608 0 l 261 647 l 261 0 l 92 0 l 92 972 m 357 1235 l 496 1235 l 496 1100 l 357 1100 l 357 1235 z "},"Ṇ":{"ha":849,"x_min":92,"x_max":757,"o":"m 92 972 l 265 972 l 588 364 l 588 972 l 757 972 l 757 0 l 608 0 l 261 647 l 261 0 l 92 0 l 92 972 m 368 -112 l 501 -112 l 501 -247 l 368 -247 l 368 -112 z "},"Ŋ":{"ha":907,"x_min":83,"x_max":824,"o":"m 824 69 q 728 -194 824 -104 q 475 -285 633 -285 q 356 -268 413 -285 l 374 -119 q 476 -129 421 -129 q 606 -81 558 -129 q 654 58 654 -33 l 654 553 q 603 763 654 690 q 453 836 551 836 q 335 810 386 836 q 253 736 285 783 l 253 0 l 83 0 l 83 972 l 226 972 l 235 879 q 352 963 285 933 q 496 992 419 992 q 740 881 656 992 q 824 581 824 771 l 824 69 z "},"ǋ":{"ha":1126,"x_min":92,"x_max":1065,"o":"m 92 972 l 265 972 l 588 364 l 588 972 l 757 972 l 757 0 l 608 0 l 261 647 l 261 0 l 92 0 l 92 972 m 899 972 l 1065 972 l 1065 800 l 899 800 l 899 972 m 833 -194 q 883 -175 868 -194 q 899 -108 899 -156 l 899 694 l 1065 694 l 1065 -154 q 1024 -291 1065 -246 q 890 -336 982 -336 l 847 -336 l 833 -194 z "},"Ṉ":{"ha":849,"x_min":92,"x_max":757,"o":"m 92 972 l 265 972 l 588 364 l 588 972 l 757 972 l 757 0 l 608 0 l 261 647 l 261 0 l 92 0 l 92 972 m 235 -129 l 635 -129 l 635 -236 l 235 -236 l 235 -129 z "},"Ñ":{"ha":849,"x_min":92,"x_max":757,"o":"m 92 972 l 265 972 l 588 364 l 588 972 l 757 972 l 757 0 l 608 0 l 261 647 l 261 0 l 92 0 l 92 972 m 522 1081 q 475 1090 496 1081 q 429 1115 454 1099 q 396 1135 410 1129 q 368 1142 382 1142 q 340 1128 350 1142 q 329 1092 329 1114 l 217 1092 q 249 1217 219 1174 q 331 1260 278 1260 q 378 1251 357 1260 q 424 1225 399 1242 q 457 1205 443 1211 q 485 1199 471 1199 q 513 1213 503 1199 q 524 1249 524 1226 l 636 1249 q 604 1124 633 1167 q 522 1081 575 1081 z "},"O":{"ha":908,"x_min":42,"x_max":867,"o":"m 454 -19 q 241 44 335 -19 q 94 222 147 107 q 42 486 42 336 q 94 751 42 636 q 241 928 147 865 q 454 992 335 992 q 667 929 574 992 q 814 751 761 867 q 867 486 867 636 q 814 221 867 336 q 667 43 761 106 q 454 -19 574 -19 m 454 151 q 626 243 567 151 q 686 486 686 335 q 626 729 686 638 q 454 821 567 821 q 282 729 342 821 q 222 486 222 638 q 282 243 222 335 q 454 151 342 151 z "},"Ó":{"ha":908,"x_min":42,"x_max":867,"o":"m 454 -19 q 241 44 335 -19 q 94 222 147 107 q 42 486 42 336 q 94 751 42 636 q 241 928 147 865 q 454 992 335 992 q 667 929 574 992 q 814 751 761 867 q 867 486 867 636 q 814 221 867 336 q 667 43 761 106 q 454 -19 574 -19 m 454 151 q 626 243 567 151 q 686 486 686 335 q 626 729 686 638 q 454 821 567 821 q 282 729 342 821 q 222 486 222 638 q 282 243 222 335 q 454 151 342 151 m 346 1190 l 564 1324 l 564 1164 l 346 1081 l 346 1190 z "},"Ŏ":{"ha":908,"x_min":42,"x_max":867,"o":"m 454 -19 q 241 44 335 -19 q 94 222 147 107 q 42 486 42 336 q 94 751 42 636 q 241 928 147 865 q 454 992 335 992 q 667 929 574 992 q 814 751 761 867 q 867 486 867 636 q 814 221 867 336 q 667 43 761 106 q 454 -19 574 -19 m 454 151 q 626 243 567 151 q 686 486 686 335 q 626 729 686 638 q 454 821 567 821 q 282 729 342 821 q 222 486 222 638 q 282 243 222 335 q 454 151 342 151 m 454 1063 q 309 1114 364 1063 q 254 1239 254 1165 l 372 1239 q 394 1178 372 1200 q 454 1157 417 1157 q 514 1178 492 1157 q 536 1239 536 1200 l 654 1239 q 599 1113 654 1164 q 454 1063 544 1063 z "},"Ô":{"ha":908,"x_min":42,"x_max":867,"o":"m 454 -19 q 241 44 335 -19 q 94 222 147 107 q 42 486 42 336 q 94 751 42 636 q 241 928 147 865 q 454 992 335 992 q 667 929 574 992 q 814 751 761 867 q 867 486 867 636 q 814 221 867 336 q 667 43 761 106 q 454 -19 574 -19 m 454 151 q 626 243 567 151 q 686 486 686 335 q 626 729 686 638 q 454 821 567 821 q 282 729 342 821 q 222 486 222 638 q 282 243 222 335 q 454 151 342 151 m 299 1171 l 454 1303 l 610 1171 l 610 1061 l 454 1158 l 299 1061 l 299 1171 z "},"Ố":{"ha":908,"x_min":42,"x_max":867,"o":"m 454 -19 q 241 44 335 -19 q 94 222 147 107 q 42 486 42 336 q 94 751 42 636 q 241 928 147 865 q 454 992 335 992 q 667 929 574 992 q 814 751 761 867 q 867 486 867 636 q 814 221 867 336 q 667 43 761 106 q 454 -19 574 -19 m 454 151 q 626 243 567 151 q 686 486 686 335 q 626 729 686 638 q 454 821 567 821 q 282 729 342 821 q 222 486 222 638 q 282 243 222 335 q 454 151 342 151 m 629 1425 l 783 1425 l 656 1249 l 551 1249 l 629 1425 m 624 1151 l 624 1049 l 454 1140 l 285 1049 l 285 1151 l 454 1271 l 624 1151 z "},"Ộ":{"ha":908,"x_min":42,"x_max":867,"o":"m 454 -19 q 241 44 335 -19 q 94 222 147 107 q 42 486 42 336 q 94 751 42 636 q 241 928 147 865 q 454 992 335 992 q 667 929 574 992 q 814 751 761 867 q 867 486 867 636 q 814 221 867 336 q 667 43 761 106 q 454 -19 574 -19 m 454 151 q 626 243 567 151 q 686 486 686 335 q 626 729 686 638 q 454 821 567 821 q 282 729 342 821 q 222 486 222 638 q 282 243 222 335 q 454 151 342 151 m 299 1171 l 454 1303 l 610 1171 l 610 1061 l 454 1158 l 299 1061 l 299 1171 m 388 -112 l 521 -112 l 521 -247 l 388 -247 l 388 -112 z "},"Ồ":{"ha":908,"x_min":42,"x_max":867,"o":"m 454 -19 q 241 44 335 -19 q 94 222 147 107 q 42 486 42 336 q 94 751 42 636 q 241 928 147 865 q 454 992 335 992 q 667 929 574 992 q 814 751 761 867 q 867 486 867 636 q 814 221 867 336 q 667 43 761 106 q 454 -19 574 -19 m 454 151 q 626 243 567 151 q 686 486 686 335 q 626 729 686 638 q 454 821 567 821 q 282 729 342 821 q 222 486 222 638 q 282 243 222 335 q 454 151 342 151 m 590 1249 l 490 1425 l 633 1425 l 690 1249 l 590 1249 m 624 1151 l 624 1049 l 454 1140 l 285 1049 l 285 1151 l 454 1271 l 624 1151 z "},"Ổ":{"ha":908,"x_min":42,"x_max":867,"o":"m 454 -19 q 241 44 335 -19 q 94 222 147 107 q 42 486 42 336 q 94 751 42 636 q 241 928 147 865 q 454 992 335 992 q 667 929 574 992 q 814 751 761 867 q 867 486 867 636 q 814 221 867 336 q 667 43 761 106 q 454 -19 574 -19 m 454 151 q 626 243 567 151 q 686 486 686 335 q 626 729 686 638 q 454 821 567 821 q 282 729 342 821 q 222 486 222 638 q 282 243 222 335 q 454 151 342 151 m 624 1138 l 624 1035 l 454 1126 l 285 1035 l 285 1138 l 454 1257 l 624 1138 m 572 1278 q 605 1295 594 1285 q 615 1325 615 1306 q 569 1364 615 1364 q 501 1344 540 1364 l 478 1429 q 578 1449 525 1449 q 669 1420 633 1449 q 704 1342 704 1392 q 676 1265 704 1294 q 588 1217 647 1236 l 572 1278 z "},"Ỗ":{"ha":908,"x_min":42,"x_max":867,"o":"m 454 -19 q 241 44 335 -19 q 94 222 147 107 q 42 486 42 336 q 94 751 42 636 q 241 928 147 865 q 454 992 335 992 q 667 929 574 992 q 814 751 761 867 q 867 486 867 636 q 814 221 867 336 q 667 43 761 106 q 454 -19 574 -19 m 454 151 q 626 243 567 151 q 686 486 686 335 q 626 729 686 638 q 454 821 567 821 q 282 729 342 821 q 222 486 222 638 q 282 243 222 335 q 454 151 342 151 m 624 1138 l 624 1035 l 454 1126 l 285 1035 l 285 1138 l 454 1257 l 624 1138 m 561 1307 q 518 1314 539 1307 q 463 1338 497 1321 q 424 1355 443 1347 q 389 1363 404 1363 q 349 1317 349 1363 l 243 1317 q 347 1463 243 1463 q 390 1456 369 1463 q 446 1432 411 1449 q 485 1415 465 1422 q 519 1407 504 1407 q 560 1453 560 1407 l 665 1453 q 561 1307 665 1307 z "},"Ȍ":{"ha":908,"x_min":42,"x_max":867,"o":"m 454 -19 q 241 44 335 -19 q 94 222 147 107 q 42 486 42 336 q 94 751 42 636 q 241 928 147 865 q 454 992 335 992 q 667 929 574 992 q 814 751 761 867 q 867 486 867 636 q 814 221 867 336 q 667 43 761 106 q 454 -19 574 -19 m 454 151 q 626 243 567 151 q 686 486 686 335 q 626 729 686 638 q 454 821 567 821 q 282 729 342 821 q 222 486 222 638 q 282 243 222 335 q 454 151 342 151 m 300 1094 l 175 1313 l 329 1313 l 404 1094 l 300 1094 m 499 1094 l 385 1313 l 539 1313 l 603 1094 l 499 1094 z "},"Ö":{"ha":908,"x_min":42,"x_max":867,"o":"m 454 -19 q 241 44 335 -19 q 94 222 147 107 q 42 486 42 336 q 94 751 42 636 q 241 928 147 865 q 454 992 335 992 q 667 929 574 992 q 814 751 761 867 q 867 486 867 636 q 814 221 867 336 q 667 43 761 106 q 454 -19 574 -19 m 454 151 q 626 243 567 151 q 686 486 686 335 q 626 729 686 638 q 454 821 567 821 q 282 729 342 821 q 222 486 222 638 q 282 243 222 335 q 454 151 342 151 m 275 1224 l 403 1224 l 403 1099 l 275 1099 l 275 1224 m 506 1224 l 633 1224 l 633 1099 l 506 1099 l 506 1224 z "},"Ȫ":{"ha":908,"x_min":42,"x_max":867,"o":"m 454 -19 q 241 44 335 -19 q 94 222 147 107 q 42 486 42 336 q 94 751 42 636 q 241 928 147 865 q 454 992 335 992 q 667 929 574 992 q 814 751 761 867 q 867 486 867 636 q 814 221 867 336 q 667 43 761 106 q 454 -19 574 -19 m 454 151 q 626 243 567 151 q 686 486 686 335 q 626 729 686 638 q 454 821 567 821 q 282 729 342 821 q 222 486 222 638 q 282 243 222 335 q 454 151 342 151 m 275 1207 l 403 1207 l 403 1088 l 275 1088 l 275 1207 m 506 1207 l 633 1207 l 633 1088 l 506 1088 l 506 1207 m 240 1410 l 668 1410 l 668 1310 l 240 1310 l 240 1410 z "},"Ȱ":{"ha":908,"x_min":42,"x_max":867,"o":"m 454 -19 q 241 44 335 -19 q 94 222 147 107 q 42 486 42 336 q 94 751 42 636 q 241 928 147 865 q 454 992 335 992 q 667 929 574 992 q 814 751 761 867 q 867 486 867 636 q 814 221 867 336 q 667 43 761 106 q 454 -19 574 -19 m 454 151 q 626 243 567 151 q 686 486 686 335 q 626 729 686 638 q 454 821 567 821 q 282 729 342 821 q 222 486 222 638 q 282 243 222 335 q 454 151 342 151 m 385 1235 l 524 1235 l 524 1100 l 385 1100 l 385 1235 m 240 1451 l 668 1451 l 668 1351 l 240 1351 l 240 1451 z "},"Ọ":{"ha":908,"x_min":42,"x_max":867,"o":"m 454 -19 q 241 44 335 -19 q 94 222 147 107 q 42 486 42 336 q 94 751 42 636 q 241 928 147 865 q 454 992 335 992 q 667 929 574 992 q 814 751 761 867 q 867 486 867 636 q 814 221 867 336 q 667 43 761 106 q 454 -19 574 -19 m 454 151 q 626 243 567 151 q 686 486 686 335 q 626 729 686 638 q 454 821 567 821 q 282 729 342 821 q 222 486 222 638 q 282 243 222 335 q 454 151 342 151 m 388 -112 l 521 -112 l 521 -247 l 388 -247 l 388 -112 z "},"Ò":{"ha":908,"x_min":42,"x_max":867,"o":"m 454 -19 q 241 44 335 -19 q 94 222 147 107 q 42 486 42 336 q 94 751 42 636 q 241 928 147 865 q 454 992 335 992 q 667 929 574 992 q 814 751 761 867 q 867 486 867 636 q 814 221 867 336 q 667 43 761 106 q 454 -19 574 -19 m 454 151 q 626 243 567 151 q 686 486 686 335 q 626 729 686 638 q 454 821 567 821 q 282 729 342 821 q 222 486 222 638 q 282 243 222 335 q 454 151 342 151 m 344 1167 l 344 1332 l 563 1193 l 563 1078 l 344 1167 z "},"Ỏ":{"ha":908,"x_min":42,"x_max":867,"o":"m 454 -19 q 241 44 335 -19 q 94 222 147 107 q 42 486 42 336 q 94 751 42 636 q 241 928 147 865 q 454 992 335 992 q 667 929 574 992 q 814 751 761 867 q 867 486 867 636 q 814 221 867 336 q 667 43 761 106 q 454 -19 574 -19 m 454 151 q 626 243 567 151 q 686 486 686 335 q 626 729 686 638 q 454 821 567 821 q 282 729 342 821 q 222 486 222 638 q 282 243 222 335 q 454 151 342 151 m 425 1071 q 463 1117 451 1099 q 475 1160 475 1136 q 426 1206 475 1206 q 361 1185 396 1206 l 338 1267 q 432 1288 383 1288 q 523 1255 488 1288 q 558 1165 558 1222 q 538 1089 558 1122 q 476 1019 518 1056 l 425 1071 z "},"Ơ":{"ha":908,"x_min":42,"x_max":867,"o":"m 714 892 q 826 721 786 825 q 867 486 867 617 q 814 221 867 336 q 667 43 761 106 q 454 -19 574 -19 q 241 44 335 -19 q 94 222 147 107 q 42 486 42 336 q 94 751 42 636 q 241 928 147 865 q 454 992 335 992 q 578 972 519 992 q 675 1075 675 975 l 815 1075 q 788 965 815 1011 q 714 892 761 919 m 454 151 q 626 243 567 151 q 686 486 686 335 q 626 729 686 638 q 454 821 567 821 q 282 729 342 821 q 222 486 222 638 q 282 243 222 335 q 454 151 342 151 z "},"Ớ":{"ha":908,"x_min":42,"x_max":867,"o":"m 714 892 q 826 721 786 825 q 867 486 867 617 q 814 221 867 336 q 667 43 761 106 q 454 -19 574 -19 q 241 44 335 -19 q 94 222 147 107 q 42 486 42 336 q 94 751 42 636 q 241 928 147 865 q 454 992 335 992 q 578 972 519 992 q 675 1075 675 975 l 815 1075 q 788 965 815 1011 q 714 892 761 919 m 454 151 q 626 243 567 151 q 686 486 686 335 q 626 729 686 638 q 454 821 567 821 q 282 729 342 821 q 222 486 222 638 q 282 243 222 335 q 454 151 342 151 m 346 1190 l 564 1324 l 564 1164 l 346 1081 l 346 1190 z "},"Ợ":{"ha":908,"x_min":42,"x_max":867,"o":"m 714 892 q 826 721 786 825 q 867 486 867 617 q 814 221 867 336 q 667 43 761 106 q 454 -19 574 -19 q 241 44 335 -19 q 94 222 147 107 q 42 486 42 336 q 94 751 42 636 q 241 928 147 865 q 454 992 335 992 q 578 972 519 992 q 675 1075 675 975 l 815 1075 q 788 965 815 1011 q 714 892 761 919 m 454 151 q 626 243 567 151 q 686 486 686 335 q 626 729 686 638 q 454 821 567 821 q 282 729 342 821 q 222 486 222 638 q 282 243 222 335 q 454 151 342 151 m 388 -112 l 521 -112 l 521 -247 l 388 -247 l 388 -112 z "},"Ờ":{"ha":908,"x_min":42,"x_max":867,"o":"m 714 892 q 826 721 786 825 q 867 486 867 617 q 814 221 867 336 q 667 43 761 106 q 454 -19 574 -19 q 241 44 335 -19 q 94 222 147 107 q 42 486 42 336 q 94 751 42 636 q 241 928 147 865 q 454 992 335 992 q 578 972 519 992 q 675 1075 675 975 l 815 1075 q 788 965 815 1011 q 714 892 761 919 m 454 151 q 626 243 567 151 q 686 486 686 335 q 626 729 686 638 q 454 821 567 821 q 282 729 342 821 q 222 486 222 638 q 282 243 222 335 q 454 151 342 151 m 344 1167 l 344 1332 l 563 1193 l 563 1078 l 344 1167 z "},"Ở":{"ha":908,"x_min":42,"x_max":867,"o":"m 714 892 q 826 721 786 825 q 867 486 867 617 q 814 221 867 336 q 667 43 761 106 q 454 -19 574 -19 q 241 44 335 -19 q 94 222 147 107 q 42 486 42 336 q 94 751 42 636 q 241 928 147 865 q 454 992 335 992 q 578 972 519 992 q 675 1075 675 975 l 815 1075 q 788 965 815 1011 q 714 892 761 919 m 454 151 q 626 243 567 151 q 686 486 686 335 q 626 729 686 638 q 454 821 567 821 q 282 729 342 821 q 222 486 222 638 q 282 243 222 335 q 454 151 342 151 m 425 1071 q 463 1117 451 1099 q 475 1160 475 1136 q 426 1206 475 1206 q 361 1185 396 1206 l 338 1267 q 432 1288 383 1288 q 523 1255 488 1288 q 558 1165 558 1222 q 538 1089 558 1122 q 476 1019 518 1056 l 425 1071 z "},"Ỡ":{"ha":908,"x_min":42,"x_max":867,"o":"m 714 892 q 826 721 786 825 q 867 486 867 617 q 814 221 867 336 q 667 43 761 106 q 454 -19 574 -19 q 241 44 335 -19 q 94 222 147 107 q 42 486 42 336 q 94 751 42 636 q 241 928 147 865 q 454 992 335 992 q 578 972 519 992 q 675 1075 675 975 l 815 1075 q 788 965 815 1011 q 714 892 761 919 m 454 151 q 626 243 567 151 q 686 486 686 335 q 626 729 686 638 q 454 821 567 821 q 282 729 342 821 q 222 486 222 638 q 282 243 222 335 q 454 151 342 151 m 550 1081 q 503 1090 524 1081 q 457 1115 482 1099 q 424 1135 438 1129 q 396 1142 410 1142 q 367 1128 378 1142 q 357 1092 357 1114 l 244 1092 q 276 1217 247 1174 q 358 1260 306 1260 q 406 1251 385 1260 q 451 1225 426 1242 q 485 1205 471 1211 q 513 1199 499 1199 q 541 1213 531 1199 q 551 1249 551 1226 l 664 1249 q 632 1124 661 1167 q 550 1081 603 1081 z "},"Ő":{"ha":908,"x_min":42,"x_max":867,"o":"m 454 -19 q 241 44 335 -19 q 94 222 147 107 q 42 486 42 336 q 94 751 42 636 q 241 928 147 865 q 454 992 335 992 q 667 929 574 992 q 814 751 761 867 q 867 486 867 636 q 814 221 867 336 q 667 43 761 106 q 454 -19 574 -19 m 454 151 q 626 243 567 151 q 686 486 686 335 q 626 729 686 638 q 454 821 567 821 q 282 729 342 821 q 222 486 222 638 q 282 243 222 335 q 454 151 342 151 m 375 1313 l 529 1313 l 401 1094 l 297 1094 l 375 1313 m 585 1313 l 739 1313 l 600 1094 l 496 1094 l 585 1313 z "},"Ȏ":{"ha":908,"x_min":42,"x_max":867,"o":"m 454 -19 q 241 44 335 -19 q 94 222 147 107 q 42 486 42 336 q 94 751 42 636 q 241 928 147 865 q 454 992 335 992 q 667 929 574 992 q 814 751 761 867 q 867 486 867 636 q 814 221 867 336 q 667 43 761 106 q 454 -19 574 -19 m 454 151 q 626 243 567 151 q 686 486 686 335 q 626 729 686 638 q 454 821 567 821 q 282 729 342 821 q 222 486 222 638 q 282 243 222 335 q 454 151 342 151 m 454 1260 q 599 1209 544 1260 q 654 1083 654 1158 l 536 1083 q 514 1144 536 1122 q 454 1165 492 1165 q 394 1144 417 1165 q 372 1083 372 1122 l 254 1083 q 309 1208 254 1157 q 454 1260 364 1260 z "},"Ō":{"ha":908,"x_min":42,"x_max":867,"o":"m 454 -19 q 241 44 335 -19 q 94 222 147 107 q 42 486 42 336 q 94 751 42 636 q 241 928 147 865 q 454 992 335 992 q 667 929 574 992 q 814 751 761 867 q 867 486 867 636 q 814 221 867 336 q 667 43 761 106 q 454 -19 574 -19 m 454 151 q 626 243 567 151 q 686 486 686 335 q 626 729 686 638 q 454 821 567 821 q 282 729 342 821 q 222 486 222 638 q 282 243 222 335 q 454 151 342 151 m 240 1201 l 668 1201 l 668 1101 l 240 1101 l 240 1201 z "},"Ṓ":{"ha":908,"x_min":42,"x_max":867,"o":"m 454 -19 q 241 44 335 -19 q 94 222 147 107 q 42 486 42 336 q 94 751 42 636 q 241 928 147 865 q 454 992 335 992 q 667 929 574 992 q 814 751 761 867 q 867 486 867 636 q 814 221 867 336 q 667 43 761 106 q 454 -19 574 -19 m 454 151 q 626 243 567 151 q 686 486 686 335 q 626 729 686 638 q 454 821 567 821 q 282 729 342 821 q 222 486 222 638 q 282 243 222 335 q 454 151 342 151 m 240 1201 l 668 1201 l 668 1101 l 240 1101 l 240 1201 m 346 1389 l 564 1500 l 564 1357 l 346 1293 l 346 1389 z "},"Ṑ":{"ha":908,"x_min":42,"x_max":867,"o":"m 454 -19 q 241 44 335 -19 q 94 222 147 107 q 42 486 42 336 q 94 751 42 636 q 241 928 147 865 q 454 992 335 992 q 667 929 574 992 q 814 751 761 867 q 867 486 867 636 q 814 221 867 336 q 667 43 761 106 q 454 -19 574 -19 m 454 151 q 626 243 567 151 q 686 486 686 335 q 626 729 686 638 q 454 821 567 821 q 282 729 342 821 q 222 486 222 638 q 282 243 222 335 q 454 151 342 151 m 240 1201 l 668 1201 l 668 1101 l 240 1101 l 240 1201 m 344 1357 l 344 1500 l 563 1389 l 563 1293 l 344 1357 z "},"Ǫ":{"ha":908,"x_min":42,"x_max":867,"o":"m 511 -15 q 455 -83 475 -51 q 435 -144 435 -114 q 452 -192 435 -176 q 500 -208 469 -208 q 571 -192 533 -208 l 594 -268 q 485 -293 547 -293 q 385 -262 424 -293 q 346 -174 346 -231 q 366 -93 346 -131 q 424 -18 386 -56 q 226 55 313 -10 q 90 231 139 119 q 42 486 42 343 q 94 751 42 636 q 241 928 147 865 q 454 992 335 992 q 667 929 574 992 q 814 751 761 867 q 867 486 867 636 q 822 240 867 349 q 696 65 776 131 q 511 -15 615 -1 m 222 486 q 282 243 222 335 q 454 151 342 151 q 626 243 567 151 q 686 486 686 335 q 626 729 686 638 q 454 821 567 821 q 282 729 342 821 q 222 486 222 638 z "},"Ø":{"ha":908,"x_min":42,"x_max":867,"o":"m 743 863 q 835 699 803 794 q 867 486 867 603 q 814 221 867 336 q 667 43 761 106 q 454 -19 574 -19 q 253 36 343 -19 l 196 -61 l 64 -61 l 165 110 q 74 274 106 178 q 42 486 42 369 q 94 751 42 636 q 241 928 147 865 q 454 992 335 992 q 656 936 565 992 l 713 1033 l 844 1033 l 743 863 m 222 486 q 264 276 222 360 l 568 789 q 454 821 519 821 q 282 729 342 821 q 222 486 222 638 m 454 151 q 626 243 567 151 q 686 486 686 335 q 644 696 686 613 l 340 183 q 454 151 389 151 z "},"Ǿ":{"ha":908,"x_min":42,"x_max":867,"o":"m 743 863 q 835 699 803 794 q 867 486 867 603 q 814 221 867 336 q 667 43 761 106 q 454 -19 574 -19 q 253 36 343 -19 l 196 -61 l 64 -61 l 165 110 q 74 274 106 178 q 42 486 42 369 q 94 751 42 636 q 241 928 147 865 q 454 992 335 992 q 656 936 565 992 l 713 1033 l 844 1033 l 743 863 m 222 486 q 264 276 222 360 l 568 789 q 454 821 519 821 q 282 729 342 821 q 222 486 222 638 m 454 151 q 626 243 567 151 q 686 486 686 335 q 644 696 686 613 l 340 183 q 454 151 389 151 m 349 1190 l 567 1324 l 567 1164 l 349 1081 l 349 1190 z "},"Õ":{"ha":908,"x_min":42,"x_max":867,"o":"m 454 -19 q 241 44 335 -19 q 94 222 147 107 q 42 486 42 336 q 94 751 42 636 q 241 928 147 865 q 454 992 335 992 q 667 929 574 992 q 814 751 761 867 q 867 486 867 636 q 814 221 867 336 q 667 43 761 106 q 454 -19 574 -19 m 454 151 q 626 243 567 151 q 686 486 686 335 q 626 729 686 638 q 454 821 567 821 q 282 729 342 821 q 222 486 222 638 q 282 243 222 335 q 454 151 342 151 m 550 1081 q 503 1090 524 1081 q 457 1115 482 1099 q 424 1135 438 1129 q 396 1142 410 1142 q 367 1128 378 1142 q 357 1092 357 1114 l 244 1092 q 276 1217 247 1174 q 358 1260 306 1260 q 406 1251 385 1260 q 451 1225 426 1242 q 485 1205 471 1211 q 513 1199 499 1199 q 541 1213 531 1199 q 551 1249 551 1226 l 664 1249 q 632 1124 661 1167 q 550 1081 603 1081 z "},"Ṍ":{"ha":908,"x_min":42,"x_max":867,"o":"m 454 -19 q 241 44 335 -19 q 94 222 147 107 q 42 486 42 336 q 94 751 42 636 q 241 928 147 865 q 454 992 335 992 q 667 929 574 992 q 814 751 761 867 q 867 486 867 636 q 814 221 867 336 q 667 43 761 106 q 454 -19 574 -19 m 454 151 q 626 243 567 151 q 686 486 686 335 q 626 729 686 638 q 454 821 567 821 q 282 729 342 821 q 222 486 222 638 q 282 243 222 335 q 454 151 342 151 m 561 1079 q 518 1086 539 1079 q 463 1110 497 1093 q 424 1127 443 1119 q 389 1135 404 1135 q 349 1089 349 1135 l 243 1089 q 347 1235 243 1235 q 390 1228 369 1235 q 446 1204 411 1221 q 485 1187 465 1194 q 519 1179 504 1179 q 560 1225 560 1179 l 665 1225 q 561 1079 665 1079 m 346 1378 l 564 1489 l 564 1346 l 346 1282 l 346 1378 z "},"Ṏ":{"ha":908,"x_min":42,"x_max":867,"o":"m 454 -19 q 241 44 335 -19 q 94 222 147 107 q 42 486 42 336 q 94 751 42 636 q 241 928 147 865 q 454 992 335 992 q 667 929 574 992 q 814 751 761 867 q 867 486 867 636 q 814 221 867 336 q 667 43 761 106 q 454 -19 574 -19 m 454 151 q 626 243 567 151 q 686 486 686 335 q 626 729 686 638 q 454 821 567 821 q 282 729 342 821 q 222 486 222 638 q 282 243 222 335 q 454 151 342 151 m 561 1079 q 518 1086 539 1079 q 463 1110 497 1093 q 424 1127 443 1119 q 389 1135 404 1135 q 349 1089 349 1135 l 243 1089 q 347 1235 243 1235 q 390 1228 369 1235 q 446 1204 411 1221 q 485 1187 465 1194 q 519 1179 504 1179 q 560 1225 560 1179 l 665 1225 q 561 1079 665 1079 m 275 1435 l 403 1435 l 403 1315 l 275 1315 l 275 1435 m 506 1435 l 633 1435 l 633 1315 l 506 1315 l 506 1435 z "},"Ȭ":{"ha":908,"x_min":42,"x_max":867,"o":"m 454 -19 q 241 44 335 -19 q 94 222 147 107 q 42 486 42 336 q 94 751 42 636 q 241 928 147 865 q 454 992 335 992 q 667 929 574 992 q 814 751 761 867 q 867 486 867 636 q 814 221 867 336 q 667 43 761 106 q 454 -19 574 -19 m 454 151 q 626 243 567 151 q 686 486 686 335 q 626 729 686 638 q 454 821 567 821 q 282 729 342 821 q 222 486 222 638 q 282 243 222 335 q 454 151 342 151 m 561 1079 q 518 1086 539 1079 q 463 1110 497 1093 q 424 1127 443 1119 q 389 1135 404 1135 q 349 1089 349 1135 l 243 1089 q 347 1235 243 1235 q 390 1228 369 1235 q 446 1204 411 1221 q 485 1187 465 1194 q 519 1179 504 1179 q 560 1225 560 1179 l 665 1225 q 561 1079 665 1079 m 240 1429 l 668 1429 l 668 1329 l 240 1329 l 240 1429 z "},"Œ":{"ha":1293,"x_min":42,"x_max":1253,"o":"m 1253 172 l 1253 0 l 694 0 l 694 90 q 440 -19 588 -19 q 235 44 325 -19 q 93 222 144 107 q 42 486 42 336 q 93 751 42 636 q 235 928 144 865 q 440 992 325 992 q 694 882 588 992 l 694 972 l 1240 972 l 1240 800 l 869 800 l 869 593 l 1154 593 l 1154 421 l 869 421 l 869 172 l 1253 172 m 454 151 q 622 243 564 151 q 681 486 681 335 q 622 729 681 638 q 454 821 564 821 q 286 729 344 821 q 228 486 228 638 q 286 243 228 335 q 454 151 344 151 z "},"P":{"ha":721,"x_min":83,"x_max":693,"o":"m 83 972 l 367 972 q 606 891 518 972 q 693 650 693 810 q 606 409 693 490 q 367 328 518 328 l 253 328 l 253 0 l 83 0 l 83 972 m 351 475 q 476 515 433 475 q 518 650 518 556 q 474 782 518 739 q 351 825 431 825 l 253 825 l 253 475 l 351 475 z "},"Þ":{"ha":736,"x_min":83,"x_max":708,"o":"m 83 972 l 253 972 l 253 771 l 397 771 q 629 701 550 771 q 708 500 708 631 q 629 299 708 369 q 397 229 550 229 l 253 229 l 253 0 l 83 0 l 83 972 m 376 368 q 502 401 465 368 q 539 500 539 435 q 503 601 539 571 q 376 632 467 632 l 253 632 l 253 368 l 376 368 z "},"Q":{"ha":908,"x_min":42,"x_max":874,"o":"m 764 -19 l 685 56 q 454 -19 586 -19 q 241 44 335 -19 q 94 222 147 107 q 42 486 42 336 q 94 751 42 636 q 241 928 147 865 q 454 992 335 992 q 667 929 574 992 q 814 751 761 867 q 867 486 867 636 q 788 171 867 303 l 874 90 l 764 -19 m 454 151 q 557 176 514 151 l 453 275 l 563 385 l 654 297 q 686 486 686 378 q 626 729 686 638 q 454 821 567 821 q 282 729 342 821 q 222 486 222 638 q 282 243 222 335 q 454 151 342 151 z "},"R":{"ha":746,"x_min":85,"x_max":742,"o":"m 85 972 l 368 972 q 607 899 521 972 q 693 672 693 826 q 657 514 693 582 q 556 408 621 446 l 742 0 l 551 0 l 393 361 l 378 361 l 254 361 l 254 0 l 85 0 l 85 972 m 353 508 q 476 546 433 508 q 518 667 518 583 q 476 788 518 750 q 353 825 433 825 l 254 825 l 254 508 l 353 508 z "},"Ŕ":{"ha":746,"x_min":85,"x_max":742,"o":"m 85 972 l 368 972 q 607 899 521 972 q 693 672 693 826 q 657 514 693 582 q 556 408 621 446 l 742 0 l 551 0 l 393 361 l 378 361 l 254 361 l 254 0 l 85 0 l 85 972 m 353 508 q 476 546 433 508 q 518 667 518 583 q 476 788 518 750 q 353 825 433 825 l 254 825 l 254 508 l 353 508 m 265 1150 l 483 1261 l 483 1118 l 265 1054 l 265 1150 z "},"Ř":{"ha":746,"x_min":85,"x_max":742,"o":"m 85 972 l 368 972 q 607 899 521 972 q 693 672 693 826 q 657 514 693 582 q 556 408 621 446 l 742 0 l 551 0 l 393 361 l 378 361 l 254 361 l 254 0 l 85 0 l 85 972 m 353 508 q 476 546 433 508 q 518 667 518 583 q 476 788 518 750 q 353 825 433 825 l 254 825 l 254 508 l 353 508 m 204 1203 l 204 1306 l 374 1214 l 543 1306 l 543 1203 l 374 1083 l 204 1203 z "},"Ŗ":{"ha":746,"x_min":85,"x_max":742,"o":"m 85 972 l 368 972 q 607 899 521 972 q 693 672 693 826 q 657 514 693 582 q 556 408 621 446 l 742 0 l 551 0 l 393 361 l 378 361 l 254 361 l 254 0 l 85 0 l 85 972 m 353 508 q 476 546 433 508 q 518 667 518 583 q 476 788 518 750 q 353 825 433 825 l 254 825 l 254 508 l 353 508 m 319 -414 l 379 -261 l 333 -261 l 333 -126 l 472 -126 l 472 -244 l 383 -414 l 319 -414 z "},"Ȑ":{"ha":746,"x_min":85,"x_max":742,"o":"m 85 972 l 368 972 q 607 899 521 972 q 693 672 693 826 q 657 514 693 582 q 556 408 621 446 l 742 0 l 551 0 l 393 361 l 378 361 l 254 361 l 254 0 l 85 0 l 85 972 m 353 508 q 476 546 433 508 q 518 667 518 583 q 476 788 518 750 q 353 825 433 825 l 254 825 l 254 508 l 353 508 m 219 1094 l 94 1313 l 249 1313 l 324 1094 l 219 1094 m 418 1094 l 304 1313 l 458 1313 l 522 1094 l 418 1094 z "},"Ṛ":{"ha":746,"x_min":85,"x_max":742,"o":"m 85 972 l 368 972 q 607 899 521 972 q 693 672 693 826 q 657 514 693 582 q 556 408 621 446 l 742 0 l 551 0 l 393 361 l 378 361 l 254 361 l 254 0 l 85 0 l 85 972 m 353 508 q 476 546 433 508 q 518 667 518 583 q 476 788 518 750 q 353 825 433 825 l 254 825 l 254 508 l 353 508 m 336 -112 l 469 -112 l 469 -247 l 336 -247 l 336 -112 z "},"Ȓ":{"ha":746,"x_min":85,"x_max":742,"o":"m 85 972 l 368 972 q 607 899 521 972 q 693 672 693 826 q 657 514 693 582 q 556 408 621 446 l 742 0 l 551 0 l 393 361 l 378 361 l 254 361 l 254 0 l 85 0 l 85 972 m 353 508 q 476 546 433 508 q 518 667 518 583 q 476 788 518 750 q 353 825 433 825 l 254 825 l 254 508 l 353 508 m 374 1260 q 519 1209 464 1260 q 574 1083 574 1158 l 456 1083 q 433 1144 456 1122 q 374 1165 411 1165 q 314 1144 336 1165 q 292 1083 292 1122 l 174 1083 q 228 1208 174 1157 q 374 1260 283 1260 z "},"Ṟ":{"ha":746,"x_min":85,"x_max":742,"o":"m 85 972 l 368 972 q 607 899 521 972 q 693 672 693 826 q 657 514 693 582 q 556 408 621 446 l 742 0 l 551 0 l 393 361 l 378 361 l 254 361 l 254 0 l 85 0 l 85 972 m 353 508 q 476 546 433 508 q 518 667 518 583 q 476 788 518 750 q 353 825 433 825 l 254 825 l 254 508 l 353 508 m 203 -129 l 603 -129 l 603 -236 l 203 -236 l 203 -129 z "},"S":{"ha":704,"x_min":57,"x_max":669,"o":"m 336 -19 q 187 -3 261 -19 q 57 40 113 13 l 78 229 q 347 151 219 151 q 451 178 414 151 q 489 256 489 206 q 470 320 489 293 q 410 373 451 347 q 293 433 369 399 q 113 551 169 489 q 57 715 57 614 q 96 858 57 796 q 208 956 135 921 q 383 992 282 992 q 636 935 510 992 l 618 751 q 488 803 547 786 q 369 821 429 821 q 272 796 306 821 q 238 722 238 771 q 260 659 238 685 q 315 615 282 633 q 433 556 347 596 q 613 431 557 496 q 669 263 669 365 q 581 57 669 133 q 336 -19 492 -19 z "},"Ś":{"ha":704,"x_min":57,"x_max":669,"o":"m 336 -19 q 187 -3 261 -19 q 57 40 113 13 l 78 229 q 347 151 219 151 q 451 178 414 151 q 489 256 489 206 q 470 320 489 293 q 410 373 451 347 q 293 433 369 399 q 113 551 169 489 q 57 715 57 614 q 96 858 57 796 q 208 956 135 921 q 383 992 282 992 q 636 935 510 992 l 618 751 q 488 803 547 786 q 369 821 429 821 q 272 796 306 821 q 238 722 238 771 q 260 659 238 685 q 315 615 282 633 q 433 556 347 596 q 613 431 557 496 q 669 263 669 365 q 581 57 669 133 q 336 -19 492 -19 m 268 1150 l 486 1261 l 486 1118 l 268 1054 l 268 1150 z "},"Ṥ":{"ha":704,"x_min":57,"x_max":669,"o":"m 336 -19 q 187 -3 261 -19 q 57 40 113 13 l 78 229 q 347 151 219 151 q 451 178 414 151 q 489 256 489 206 q 470 320 489 293 q 410 373 451 347 q 293 433 369 399 q 113 551 169 489 q 57 715 57 614 q 96 858 57 796 q 208 956 135 921 q 383 992 282 992 q 636 935 510 992 l 618 751 q 488 803 547 786 q 369 821 429 821 q 272 796 306 821 q 238 722 238 771 q 260 659 238 685 q 315 615 282 633 q 433 556 347 596 q 613 431 557 496 q 669 263 669 365 q 581 57 669 133 q 336 -19 492 -19 m 268 1150 l 486 1261 l 486 1118 l 268 1054 l 268 1150 m 307 1460 l 446 1460 l 446 1325 l 307 1325 l 307 1460 z "},"Š":{"ha":704,"x_min":57,"x_max":669,"o":"m 336 -19 q 187 -3 261 -19 q 57 40 113 13 l 78 229 q 347 151 219 151 q 451 178 414 151 q 489 256 489 206 q 470 320 489 293 q 410 373 451 347 q 293 433 369 399 q 113 551 169 489 q 57 715 57 614 q 96 858 57 796 q 208 956 135 921 q 383 992 282 992 q 636 935 510 992 l 618 751 q 488 803 547 786 q 369 821 429 821 q 272 796 306 821 q 238 722 238 771 q 260 659 238 685 q 315 615 282 633 q 433 556 347 596 q 613 431 557 496 q 669 263 669 365 q 581 57 669 133 q 336 -19 492 -19 m 221 1192 l 221 1301 l 376 1204 l 532 1301 l 532 1192 l 376 1061 l 221 1192 z "},"Ṧ":{"ha":704,"x_min":57,"x_max":669,"o":"m 336 -19 q 187 -3 261 -19 q 57 40 113 13 l 78 229 q 347 151 219 151 q 451 178 414 151 q 489 256 489 206 q 470 320 489 293 q 410 373 451 347 q 293 433 369 399 q 113 551 169 489 q 57 715 57 614 q 96 858 57 796 q 208 956 135 921 q 383 992 282 992 q 636 935 510 992 l 618 751 q 488 803 547 786 q 369 821 429 821 q 272 796 306 821 q 238 722 238 771 q 260 659 238 685 q 315 615 282 633 q 433 556 347 596 q 613 431 557 496 q 669 263 669 365 q 581 57 669 133 q 336 -19 492 -19 m 207 1203 l 207 1306 l 376 1214 l 546 1306 l 546 1203 l 376 1083 l 207 1203 m 307 1493 l 446 1493 l 446 1358 l 307 1358 l 307 1493 z "},"Ş":{"ha":704,"x_min":57,"x_max":669,"o":"m 669 263 q 603 78 669 151 q 418 -12 538 6 l 399 -79 q 481 -111 451 -81 q 510 -196 510 -142 q 469 -297 510 -261 q 365 -332 429 -332 q 265 -314 311 -332 l 292 -237 q 361 -253 331 -253 q 409 -239 392 -253 q 426 -200 426 -225 q 367 -147 426 -147 q 311 -157 343 -147 l 346 -19 l 336 -19 q 187 -3 261 -19 q 57 40 113 13 l 78 229 q 347 151 219 151 q 451 178 414 151 q 489 256 489 206 q 470 320 489 293 q 410 373 451 347 q 293 433 369 399 q 113 551 169 489 q 57 715 57 614 q 96 858 57 796 q 208 956 135 921 q 383 992 282 992 q 636 935 510 992 l 618 751 q 488 803 547 786 q 369 821 429 821 q 272 796 306 821 q 238 722 238 771 q 260 659 238 685 q 315 615 282 633 q 433 556 347 596 q 613 431 557 496 q 669 263 669 365 z "},"Ŝ":{"ha":704,"x_min":57,"x_max":669,"o":"m 336 -19 q 187 -3 261 -19 q 57 40 113 13 l 78 229 q 347 151 219 151 q 451 178 414 151 q 489 256 489 206 q 470 320 489 293 q 410 373 451 347 q 293 433 369 399 q 113 551 169 489 q 57 715 57 614 q 96 858 57 796 q 208 956 135 921 q 383 992 282 992 q 636 935 510 992 l 618 751 q 488 803 547 786 q 369 821 429 821 q 272 796 306 821 q 238 722 238 771 q 260 659 238 685 q 315 615 282 633 q 433 556 347 596 q 613 431 557 496 q 669 263 669 365 q 581 57 669 133 q 336 -19 492 -19 m 546 1138 l 546 1035 l 376 1126 l 207 1035 l 207 1138 l 376 1257 l 546 1138 z "},"Ș":{"ha":704,"x_min":57,"x_max":669,"o":"m 336 -19 q 187 -3 261 -19 q 57 40 113 13 l 78 229 q 347 151 219 151 q 451 178 414 151 q 489 256 489 206 q 470 320 489 293 q 410 373 451 347 q 293 433 369 399 q 113 551 169 489 q 57 715 57 614 q 96 858 57 796 q 208 956 135 921 q 383 992 282 992 q 636 935 510 992 l 618 751 q 488 803 547 786 q 369 821 429 821 q 272 796 306 821 q 238 722 238 771 q 260 659 238 685 q 315 615 282 633 q 433 556 347 596 q 613 431 557 496 q 669 263 669 365 q 581 57 669 133 q 336 -19 492 -19 m 288 -414 l 347 -261 l 301 -261 l 301 -126 l 440 -126 l 440 -244 l 351 -414 l 288 -414 z "},"Ṡ":{"ha":704,"x_min":57,"x_max":669,"o":"m 336 -19 q 187 -3 261 -19 q 57 40 113 13 l 78 229 q 347 151 219 151 q 451 178 414 151 q 489 256 489 206 q 470 320 489 293 q 410 373 451 347 q 293 433 369 399 q 113 551 169 489 q 57 715 57 614 q 96 858 57 796 q 208 956 135 921 q 383 992 282 992 q 636 935 510 992 l 618 751 q 488 803 547 786 q 369 821 429 821 q 272 796 306 821 q 238 722 238 771 q 260 659 238 685 q 315 615 282 633 q 433 556 347 596 q 613 431 557 496 q 669 263 669 365 q 581 57 669 133 q 336 -19 492 -19 m 307 1235 l 446 1235 l 446 1100 l 307 1100 l 307 1235 z "},"Ṣ":{"ha":704,"x_min":57,"x_max":669,"o":"m 336 -19 q 187 -3 261 -19 q 57 40 113 13 l 78 229 q 347 151 219 151 q 451 178 414 151 q 489 256 489 206 q 470 320 489 293 q 410 373 451 347 q 293 433 369 399 q 113 551 169 489 q 57 715 57 614 q 96 858 57 796 q 208 956 135 921 q 383 992 282 992 q 636 935 510 992 l 618 751 q 488 803 547 786 q 369 821 429 821 q 272 796 306 821 q 238 722 238 771 q 260 659 238 685 q 315 615 282 633 q 433 556 347 596 q 613 431 557 496 q 669 263 669 365 q 581 57 669 133 q 336 -19 492 -19 m 304 -112 l 438 -112 l 438 -247 l 304 -247 l 304 -112 z "},"Ṩ":{"ha":704,"x_min":57,"x_max":669,"o":"m 336 -19 q 187 -3 261 -19 q 57 40 113 13 l 78 229 q 347 151 219 151 q 451 178 414 151 q 489 256 489 206 q 470 320 489 293 q 410 373 451 347 q 293 433 369 399 q 113 551 169 489 q 57 715 57 614 q 96 858 57 796 q 208 956 135 921 q 383 992 282 992 q 636 935 510 992 l 618 751 q 488 803 547 786 q 369 821 429 821 q 272 796 306 821 q 238 722 238 771 q 260 659 238 685 q 315 615 282 633 q 433 556 347 596 q 613 431 557 496 q 669 263 669 365 q 581 57 669 133 q 336 -19 492 -19 m 307 1235 l 446 1235 l 446 1100 l 307 1100 l 307 1235 m 304 -112 l 438 -112 l 438 -247 l 304 -247 l 304 -112 z "},"ẞ":{"ha":806,"x_min":92,"x_max":756,"o":"m 543 571 q 699 476 643 546 q 756 285 756 406 q 679 59 756 138 q 483 -19 603 -19 q 356 0 417 -19 l 356 165 q 439 151 396 151 q 534 190 499 151 q 569 294 569 228 q 533 403 569 365 q 425 442 496 442 l 374 442 l 374 582 l 529 825 q 453 838 494 838 q 317 783 365 838 q 269 632 269 728 l 269 0 l 92 0 l 92 629 q 183 899 92 807 q 431 992 275 992 q 674 922 565 992 l 674 782 l 543 571 z "},"Ə":{"ha":825,"x_min":42,"x_max":783,"o":"m 394 992 q 604 926 517 992 q 738 744 692 861 q 783 472 783 626 q 738 210 783 321 q 606 40 692 99 q 406 -19 521 -19 q 138 92 233 -19 q 42 394 42 204 q 53 522 42 461 l 601 522 q 535 745 594 669 q 351 821 475 821 q 110 757 235 821 l 99 924 q 235 974 164 957 q 394 992 307 992 m 408 151 q 596 364 564 151 l 221 364 q 408 151 221 151 z "},"T":{"ha":661,"x_min":13,"x_max":649,"o":"m 246 817 l 13 817 l 13 972 l 649 972 l 649 817 l 415 817 l 415 0 l 246 0 l 246 817 z "},"Ŧ":{"ha":661,"x_min":13,"x_max":649,"o":"m 415 817 l 415 540 l 596 540 l 596 425 l 415 425 l 415 0 l 246 0 l 246 425 l 65 425 l 65 540 l 246 540 l 246 817 l 13 817 l 13 972 l 649 972 l 649 817 l 415 817 z "},"Ť":{"ha":661,"x_min":13,"x_max":649,"o":"m 246 817 l 13 817 l 13 972 l 649 972 l 649 817 l 415 817 l 415 0 l 246 0 l 246 817 m 175 1192 l 175 1301 l 331 1204 l 486 1301 l 486 1192 l 331 1061 l 175 1192 z "},"Ţ":{"ha":661,"x_min":13,"x_max":649,"o":"m 246 817 l 13 817 l 13 972 l 649 972 l 649 817 l 415 817 l 415 0 l 246 0 l 246 817 m 358 -79 q 440 -111 411 -81 q 469 -196 469 -142 q 429 -297 469 -261 q 325 -332 389 -332 q 225 -314 271 -332 l 251 -237 q 321 -253 289 -253 q 369 -239 351 -253 q 386 -200 386 -225 q 326 -147 386 -147 q 271 -157 303 -147 l 310 0 l 382 0 l 358 -79 z "},"Ț":{"ha":661,"x_min":13,"x_max":649,"o":"m 246 817 l 13 817 l 13 972 l 649 972 l 649 817 l 415 817 l 415 0 l 246 0 l 246 817 m 247 -414 l 307 -261 l 261 -261 l 261 -126 l 400 -126 l 400 -244 l 311 -414 l 247 -414 z "},"Ṭ":{"ha":661,"x_min":13,"x_max":649,"o":"m 246 817 l 13 817 l 13 972 l 649 972 l 649 817 l 415 817 l 415 0 l 246 0 l 246 817 m 264 -112 l 397 -112 l 397 -247 l 264 -247 l 264 -112 z "},"Ṯ":{"ha":661,"x_min":13,"x_max":649,"o":"m 246 817 l 13 817 l 13 972 l 649 972 l 649 817 l 415 817 l 415 0 l 246 0 l 246 817 m 131 -129 l 531 -129 l 531 -236 l 131 -236 l 131 -129 z "},"U":{"ha":861,"x_min":83,"x_max":778,"o":"m 431 -19 q 171 85 258 -19 q 83 375 83 190 l 83 972 l 253 972 l 253 421 q 291 220 253 289 q 431 151 329 151 q 571 220 533 151 q 608 421 608 289 l 608 972 l 778 972 l 778 375 q 690 85 778 190 q 431 -19 603 -19 z "},"Ú":{"ha":861,"x_min":83,"x_max":778,"o":"m 431 -19 q 171 85 258 -19 q 83 375 83 190 l 83 972 l 253 972 l 253 421 q 291 220 253 289 q 431 151 329 151 q 571 220 533 151 q 608 421 608 289 l 608 972 l 778 972 l 778 375 q 690 85 778 190 q 431 -19 603 -19 m 324 1190 l 542 1324 l 542 1164 l 324 1081 l 324 1190 z "},"Ŭ":{"ha":861,"x_min":83,"x_max":778,"o":"m 431 -19 q 171 85 258 -19 q 83 375 83 190 l 83 972 l 253 972 l 253 421 q 291 220 253 289 q 431 151 329 151 q 571 220 533 151 q 608 421 608 289 l 608 972 l 778 972 l 778 375 q 690 85 778 190 q 431 -19 603 -19 m 432 1063 q 287 1114 342 1063 q 232 1239 232 1165 l 350 1239 q 372 1178 350 1200 q 432 1157 394 1157 q 492 1178 469 1157 q 514 1239 514 1200 l 632 1239 q 577 1113 632 1164 q 432 1063 522 1063 z "},"Û":{"ha":861,"x_min":83,"x_max":778,"o":"m 431 -19 q 171 85 258 -19 q 83 375 83 190 l 83 972 l 253 972 l 253 421 q 291 220 253 289 q 431 151 329 151 q 571 220 533 151 q 608 421 608 289 l 608 972 l 778 972 l 778 375 q 690 85 778 190 q 431 -19 603 -19 m 276 1171 l 432 1303 l 588 1171 l 588 1061 l 432 1158 l 276 1061 l 276 1171 z "},"Ȕ":{"ha":861,"x_min":83,"x_max":778,"o":"m 431 -19 q 171 85 258 -19 q 83 375 83 190 l 83 972 l 253 972 l 253 421 q 291 220 253 289 q 431 151 329 151 q 571 220 533 151 q 608 421 608 289 l 608 972 l 778 972 l 778 375 q 690 85 778 190 q 431 -19 603 -19 m 300 1094 l 169 1340 l 321 1340 l 401 1094 l 300 1094 m 497 1094 l 378 1340 l 528 1340 l 597 1094 l 497 1094 z "},"Ü":{"ha":861,"x_min":83,"x_max":778,"o":"m 431 -19 q 171 85 258 -19 q 83 375 83 190 l 83 972 l 253 972 l 253 421 q 291 220 253 289 q 431 151 329 151 q 571 220 533 151 q 608 421 608 289 l 608 972 l 778 972 l 778 375 q 690 85 778 190 q 431 -19 603 -19 m 253 1224 l 381 1224 l 381 1099 l 253 1099 l 253 1224 m 483 1224 l 611 1224 l 611 1099 l 483 1099 l 483 1224 z "},"Ụ":{"ha":861,"x_min":83,"x_max":778,"o":"m 431 -19 q 171 85 258 -19 q 83 375 83 190 l 83 972 l 253 972 l 253 421 q 291 220 253 289 q 431 151 329 151 q 571 220 533 151 q 608 421 608 289 l 608 972 l 778 972 l 778 375 q 690 85 778 190 q 431 -19 603 -19 m 365 -112 l 499 -112 l 499 -247 l 365 -247 l 365 -112 z "},"Ù":{"ha":861,"x_min":83,"x_max":778,"o":"m 431 -19 q 171 85 258 -19 q 83 375 83 190 l 83 972 l 253 972 l 253 421 q 291 220 253 289 q 431 151 329 151 q 571 220 533 151 q 608 421 608 289 l 608 972 l 778 972 l 778 375 q 690 85 778 190 q 431 -19 603 -19 m 322 1167 l 322 1332 l 540 1193 l 540 1078 l 322 1167 z "},"Ủ":{"ha":861,"x_min":83,"x_max":778,"o":"m 431 -19 q 171 85 258 -19 q 83 375 83 190 l 83 972 l 253 972 l 253 421 q 291 220 253 289 q 431 151 329 151 q 571 220 533 151 q 608 421 608 289 l 608 972 l 778 972 l 778 375 q 690 85 778 190 q 431 -19 603 -19 m 403 1071 q 441 1117 429 1099 q 453 1160 453 1136 q 404 1206 453 1206 q 339 1185 374 1206 l 315 1267 q 410 1288 361 1288 q 501 1255 465 1288 q 536 1165 536 1222 q 516 1089 536 1122 q 454 1019 496 1056 l 403 1071 z "},"Ư":{"ha":861,"x_min":83,"x_max":906,"o":"m 906 1075 q 871 953 906 1003 q 778 879 836 903 l 778 375 q 690 85 778 190 q 431 -19 603 -19 q 171 85 258 -19 q 83 375 83 190 l 83 972 l 253 972 l 253 421 q 291 220 253 289 q 431 151 329 151 q 571 220 533 151 q 608 421 608 289 l 608 972 l 665 972 q 765 1075 765 972 l 906 1075 z "},"Ứ":{"ha":861,"x_min":83,"x_max":906,"o":"m 906 1075 q 871 953 906 1003 q 778 879 836 903 l 778 375 q 690 85 778 190 q 431 -19 603 -19 q 171 85 258 -19 q 83 375 83 190 l 83 972 l 253 972 l 253 421 q 291 220 253 289 q 431 151 329 151 q 571 220 533 151 q 608 421 608 289 l 608 972 l 665 972 q 765 1075 765 972 l 906 1075 m 324 1190 l 542 1324 l 542 1164 l 324 1081 l 324 1190 z "},"Ự":{"ha":861,"x_min":83,"x_max":906,"o":"m 906 1075 q 871 953 906 1003 q 778 879 836 903 l 778 375 q 690 85 778 190 q 431 -19 603 -19 q 171 85 258 -19 q 83 375 83 190 l 83 972 l 253 972 l 253 421 q 291 220 253 289 q 431 151 329 151 q 571 220 533 151 q 608 421 608 289 l 608 972 l 665 972 q 765 1075 765 972 l 906 1075 m 365 -112 l 499 -112 l 499 -247 l 365 -247 l 365 -112 z "},"Ừ":{"ha":861,"x_min":83,"x_max":906,"o":"m 906 1075 q 871 953 906 1003 q 778 879 836 903 l 778 375 q 690 85 778 190 q 431 -19 603 -19 q 171 85 258 -19 q 83 375 83 190 l 83 972 l 253 972 l 253 421 q 291 220 253 289 q 431 151 329 151 q 571 220 533 151 q 608 421 608 289 l 608 972 l 665 972 q 765 1075 765 972 l 906 1075 m 322 1167 l 322 1332 l 540 1193 l 540 1078 l 322 1167 z "},"Ử":{"ha":861,"x_min":83,"x_max":906,"o":"m 906 1075 q 871 953 906 1003 q 778 879 836 903 l 778 375 q 690 85 778 190 q 431 -19 603 -19 q 171 85 258 -19 q 83 375 83 190 l 83 972 l 253 972 l 253 421 q 291 220 253 289 q 431 151 329 151 q 571 220 533 151 q 608 421 608 289 l 608 972 l 665 972 q 765 1075 765 972 l 906 1075 m 403 1071 q 441 1117 429 1099 q 453 1160 453 1136 q 404 1206 453 1206 q 339 1185 374 1206 l 315 1267 q 410 1288 361 1288 q 501 1255 465 1288 q 536 1165 536 1222 q 516 1089 536 1122 q 454 1019 496 1056 l 403 1071 z "},"Ữ":{"ha":861,"x_min":83,"x_max":906,"o":"m 906 1075 q 871 953 906 1003 q 778 879 836 903 l 778 375 q 690 85 778 190 q 431 -19 603 -19 q 171 85 258 -19 q 83 375 83 190 l 83 972 l 253 972 l 253 421 q 291 220 253 289 q 431 151 329 151 q 571 220 533 151 q 608 421 608 289 l 608 972 l 665 972 q 765 1075 765 972 l 906 1075 m 528 1081 q 481 1090 501 1081 q 435 1115 460 1099 q 401 1135 415 1129 q 374 1142 388 1142 q 345 1128 356 1142 q 335 1092 335 1114 l 222 1092 q 254 1217 225 1174 q 336 1260 283 1260 q 383 1251 363 1260 q 429 1225 404 1242 q 463 1205 449 1211 q 490 1199 476 1199 q 519 1213 508 1199 q 529 1249 529 1226 l 642 1249 q 610 1124 639 1167 q 528 1081 581 1081 z "},"Ű":{"ha":861,"x_min":83,"x_max":778,"o":"m 431 -19 q 171 85 258 -19 q 83 375 83 190 l 83 972 l 253 972 l 253 421 q 291 220 253 289 q 431 151 329 151 q 571 220 533 151 q 608 421 608 289 l 608 972 l 778 972 l 778 375 q 690 85 778 190 q 431 -19 603 -19 m 353 1313 l 507 1313 l 379 1094 l 275 1094 l 353 1313 m 563 1313 l 717 1313 l 578 1094 l 474 1094 l 563 1313 z "},"Ȗ":{"ha":861,"x_min":83,"x_max":778,"o":"m 431 -19 q 171 85 258 -19 q 83 375 83 190 l 83 972 l 253 972 l 253 421 q 291 220 253 289 q 431 151 329 151 q 571 220 533 151 q 608 421 608 289 l 608 972 l 778 972 l 778 375 q 690 85 778 190 q 431 -19 603 -19 m 432 1260 q 577 1209 522 1260 q 632 1083 632 1158 l 514 1083 q 492 1144 514 1122 q 432 1165 469 1165 q 372 1144 394 1165 q 350 1083 350 1122 l 232 1083 q 287 1208 232 1157 q 432 1260 342 1260 z "},"Ū":{"ha":861,"x_min":83,"x_max":778,"o":"m 431 -19 q 171 85 258 -19 q 83 375 83 190 l 83 972 l 253 972 l 253 421 q 291 220 253 289 q 431 151 329 151 q 571 220 533 151 q 608 421 608 289 l 608 972 l 778 972 l 778 375 q 690 85 778 190 q 431 -19 603 -19 m 218 1201 l 646 1201 l 646 1101 l 218 1101 l 218 1201 z "},"Ṻ":{"ha":861,"x_min":83,"x_max":778,"o":"m 431 -19 q 171 85 258 -19 q 83 375 83 190 l 83 972 l 253 972 l 253 421 q 291 220 253 289 q 431 151 329 151 q 571 220 533 151 q 608 421 608 289 l 608 972 l 778 972 l 778 375 q 690 85 778 190 q 431 -19 603 -19 m 218 1201 l 646 1201 l 646 1101 l 218 1101 l 218 1201 m 253 1446 l 381 1446 l 381 1326 l 253 1326 l 253 1446 m 483 1446 l 611 1446 l 611 1326 l 483 1326 l 483 1446 z "},"Ų":{"ha":861,"x_min":83,"x_max":778,"o":"m 778 972 l 778 375 q 716 121 778 221 q 532 -8 654 21 q 469 -81 492 -49 q 447 -144 447 -112 q 465 -192 447 -176 q 513 -208 482 -208 q 583 -192 546 -208 l 607 -268 q 497 -293 560 -293 q 397 -262 436 -293 q 358 -174 358 -231 q 378 -94 358 -131 q 435 -19 399 -57 l 431 -19 q 171 85 258 -19 q 83 375 83 190 l 83 972 l 253 972 l 253 421 q 291 220 253 289 q 431 151 329 151 q 571 220 533 151 q 608 421 608 289 l 608 972 l 778 972 z "},"Ů":{"ha":861,"x_min":83,"x_max":778,"o":"m 431 -19 q 171 85 258 -19 q 83 375 83 190 l 83 972 l 253 972 l 253 421 q 291 220 253 289 q 431 151 329 151 q 571 220 533 151 q 608 421 608 289 l 608 972 l 778 972 l 778 375 q 690 85 778 190 q 431 -19 603 -19 m 432 1047 q 338 1086 374 1047 q 301 1182 301 1125 q 338 1278 301 1239 q 432 1318 374 1318 q 527 1278 492 1318 q 563 1182 563 1239 q 527 1086 563 1125 q 432 1047 492 1047 m 432 1119 q 470 1137 456 1119 q 485 1182 485 1154 q 470 1227 485 1210 q 432 1244 456 1244 q 394 1227 408 1244 q 379 1182 379 1210 q 394 1137 379 1154 q 432 1119 408 1119 z "},"Ũ":{"ha":861,"x_min":83,"x_max":778,"o":"m 431 -19 q 171 85 258 -19 q 83 375 83 190 l 83 972 l 253 972 l 253 421 q 291 220 253 289 q 431 151 329 151 q 571 220 533 151 q 608 421 608 289 l 608 972 l 778 972 l 778 375 q 690 85 778 190 q 431 -19 603 -19 m 528 1081 q 481 1090 501 1081 q 435 1115 460 1099 q 401 1135 415 1129 q 374 1142 388 1142 q 345 1128 356 1142 q 335 1092 335 1114 l 222 1092 q 254 1217 225 1174 q 336 1260 283 1260 q 383 1251 363 1260 q 429 1225 404 1242 q 463 1205 449 1211 q 490 1199 476 1199 q 519 1213 508 1199 q 529 1249 529 1226 l 642 1249 q 610 1124 639 1167 q 528 1081 581 1081 z "},"Ṹ":{"ha":861,"x_min":83,"x_max":778,"o":"m 431 -19 q 171 85 258 -19 q 83 375 83 190 l 83 972 l 253 972 l 253 421 q 291 220 253 289 q 431 151 329 151 q 571 220 533 151 q 608 421 608 289 l 608 972 l 778 972 l 778 375 q 690 85 778 190 q 431 -19 603 -19 m 539 1079 q 496 1086 517 1079 q 440 1110 475 1093 q 401 1127 421 1119 q 367 1135 382 1135 q 326 1089 326 1135 l 221 1089 q 325 1235 221 1235 q 368 1228 347 1235 q 424 1204 389 1221 q 463 1187 443 1194 q 497 1179 482 1179 q 538 1225 538 1179 l 643 1225 q 539 1079 643 1079 m 324 1378 l 542 1489 l 542 1346 l 324 1282 l 324 1378 z "},"V":{"ha":800,"x_min":-3,"x_max":803,"o":"m -3 972 l 167 972 l 400 214 l 633 972 l 803 972 l 500 0 l 300 0 l -3 972 z "},"W":{"ha":1125,"x_min":-3,"x_max":1128,"o":"m -3 972 l 167 972 l 308 254 l 472 954 l 653 954 l 817 254 l 958 972 l 1128 972 l 911 0 l 731 0 l 563 700 l 394 0 l 214 0 l -3 972 z "},"Ẃ":{"ha":1125,"x_min":-3,"x_max":1128,"o":"m -3 972 l 167 972 l 308 254 l 472 954 l 653 954 l 817 254 l 958 972 l 1128 972 l 911 0 l 731 0 l 563 700 l 394 0 l 214 0 l -3 972 m 454 1150 l 672 1261 l 672 1118 l 454 1054 l 454 1150 z "},"Ŵ":{"ha":1125,"x_min":-3,"x_max":1128,"o":"m -3 972 l 167 972 l 308 254 l 472 954 l 653 954 l 817 254 l 958 972 l 1128 972 l 911 0 l 731 0 l 563 700 l 394 0 l 214 0 l -3 972 m 732 1138 l 732 1035 l 563 1126 l 393 1035 l 393 1138 l 563 1257 l 732 1138 z "},"Ẅ":{"ha":1125,"x_min":-3,"x_max":1128,"o":"m -3 972 l 167 972 l 308 254 l 472 954 l 653 954 l 817 254 l 958 972 l 1128 972 l 911 0 l 731 0 l 563 700 l 394 0 l 214 0 l -3 972 m 383 1207 l 511 1207 l 511 1088 l 383 1088 l 383 1207 m 614 1207 l 742 1207 l 742 1088 l 614 1088 l 614 1207 z "},"Ẁ":{"ha":1125,"x_min":-3,"x_max":1128,"o":"m -3 972 l 167 972 l 308 254 l 472 954 l 653 954 l 817 254 l 958 972 l 1128 972 l 911 0 l 731 0 l 563 700 l 394 0 l 214 0 l -3 972 m 453 1118 l 453 1261 l 671 1150 l 671 1054 l 453 1118 z "},"X":{"ha":771,"x_min":-3,"x_max":774,"o":"m 296 497 l 11 972 l 192 972 l 386 649 l 579 972 l 760 972 l 476 497 l 774 0 l 593 0 l 386 347 l 178 0 l -3 0 l 296 497 z "},"Y":{"ha":729,"x_min":-11,"x_max":740,"o":"m 740 972 l 449 431 l 449 0 l 281 0 l 281 431 l -11 972 l 169 972 l 365 588 l 560 972 l 740 972 z "},"Ý":{"ha":729,"x_min":-11,"x_max":740,"o":"m 740 972 l 449 431 l 449 0 l 281 0 l 281 431 l -11 972 l 169 972 l 365 588 l 560 972 l 740 972 m 257 1190 l 475 1324 l 475 1164 l 257 1081 l 257 1190 z "},"Ŷ":{"ha":729,"x_min":-11,"x_max":740,"o":"m 740 972 l 449 431 l 449 0 l 281 0 l 281 431 l -11 972 l 169 972 l 365 588 l 560 972 l 740 972 m 535 1138 l 535 1035 l 365 1126 l 196 1035 l 196 1138 l 365 1257 l 535 1138 z "},"Ÿ":{"ha":729,"x_min":-11,"x_max":740,"o":"m 740 972 l 449 431 l 449 0 l 281 0 l 281 431 l -11 972 l 169 972 l 365 588 l 560 972 l 740 972 m 186 1224 l 314 1224 l 314 1099 l 186 1099 l 186 1224 m 417 1224 l 544 1224 l 544 1099 l 417 1099 l 417 1224 z "},"Ẏ":{"ha":729,"x_min":-11,"x_max":740,"o":"m 740 972 l 449 431 l 449 0 l 281 0 l 281 431 l -11 972 l 169 972 l 365 588 l 560 972 l 740 972 m 296 1235 l 435 1235 l 435 1100 l 296 1100 l 296 1235 z "},"Ỵ":{"ha":729,"x_min":-11,"x_max":740,"o":"m 740 972 l 449 431 l 449 0 l 281 0 l 281 431 l -11 972 l 169 972 l 365 588 l 560 972 l 740 972 m 299 -112 l 432 -112 l 432 -247 l 299 -247 l 299 -112 z "},"Ỳ":{"ha":729,"x_min":-11,"x_max":740,"o":"m 740 972 l 449 431 l 449 0 l 281 0 l 281 431 l -11 972 l 169 972 l 365 588 l 560 972 l 740 972 m 256 1167 l 256 1332 l 474 1193 l 474 1078 l 256 1167 z "},"Ỷ":{"ha":729,"x_min":-11,"x_max":740,"o":"m 740 972 l 449 431 l 449 0 l 281 0 l 281 431 l -11 972 l 169 972 l 365 588 l 560 972 l 740 972 m 336 1071 q 374 1117 363 1099 q 386 1160 386 1136 q 338 1206 386 1206 q 272 1185 307 1206 l 249 1267 q 343 1288 294 1288 q 434 1255 399 1288 q 469 1165 469 1222 q 449 1089 469 1122 q 388 1019 429 1056 l 336 1071 z "},"Ȳ":{"ha":729,"x_min":-11,"x_max":740,"o":"m 740 972 l 449 431 l 449 0 l 281 0 l 281 431 l -11 972 l 169 972 l 365 588 l 560 972 l 740 972 m 151 1201 l 579 1201 l 579 1101 l 151 1101 l 151 1201 z "},"Ỹ":{"ha":729,"x_min":-11,"x_max":740,"o":"m 740 972 l 449 431 l 449 0 l 281 0 l 281 431 l -11 972 l 169 972 l 365 588 l 560 972 l 740 972 m 461 1081 q 414 1090 435 1081 q 368 1115 393 1099 q 335 1135 349 1129 q 307 1142 321 1142 q 278 1128 289 1142 q 268 1092 268 1114 l 156 1092 q 188 1217 158 1174 q 269 1260 217 1260 q 317 1251 296 1260 q 363 1225 338 1242 q 396 1205 382 1211 q 424 1199 410 1199 q 452 1213 442 1199 q 463 1249 463 1226 l 575 1249 q 543 1124 572 1167 q 461 1081 514 1081 z "},"Z":{"ha":663,"x_min":10,"x_max":651,"o":"m 651 156 l 651 0 l 10 0 l 401 817 l 65 817 l 65 972 l 646 972 l 257 156 l 651 156 z "},"Ź":{"ha":663,"x_min":10,"x_max":651,"o":"m 651 156 l 651 0 l 10 0 l 401 817 l 65 817 l 65 972 l 646 972 l 257 156 l 651 156 m 247 1150 l 465 1261 l 465 1118 l 247 1054 l 247 1150 z "},"Ž":{"ha":663,"x_min":10,"x_max":651,"o":"m 651 156 l 651 0 l 10 0 l 401 817 l 65 817 l 65 972 l 646 972 l 257 156 l 651 156 m 200 1192 l 200 1301 l 356 1204 l 511 1301 l 511 1192 l 356 1061 l 200 1192 z "},"Ż":{"ha":663,"x_min":10,"x_max":651,"o":"m 651 156 l 651 0 l 10 0 l 401 817 l 65 817 l 65 972 l 646 972 l 257 156 l 651 156 m 286 1235 l 425 1235 l 425 1100 l 286 1100 l 286 1235 z "},"Ẓ":{"ha":663,"x_min":10,"x_max":651,"o":"m 651 156 l 651 0 l 10 0 l 401 817 l 65 817 l 65 972 l 646 972 l 257 156 l 651 156 m 264 -112 l 397 -112 l 397 -247 l 264 -247 l 264 -112 z "},"a":{"ha":588,"x_min":17,"x_max":582,"o":"m 201 -14 q 70 37 124 -14 q 17 179 17 88 q 74 333 17 275 q 208 415 132 390 q 346 443 283 440 q 324 531 346 504 q 247 557 301 557 q 167 544 206 557 q 79 504 128 531 l 68 644 q 292 706 179 706 q 455 644 396 706 q 514 449 514 582 l 514 239 q 518 164 514 188 q 531 134 522 140 q 560 128 540 128 l 582 128 l 571 -14 l 497 -14 q 423 8 458 -14 q 371 67 388 31 q 294 6 333 26 q 201 -14 256 -14 m 258 118 q 347 168 306 118 l 347 326 q 236 287 281 318 q 192 196 192 256 q 210 137 192 156 q 258 118 228 118 z "},"á":{"ha":588,"x_min":17,"x_max":582,"o":"m 201 -14 q 70 37 124 -14 q 17 179 17 88 q 74 333 17 275 q 208 415 132 390 q 346 443 283 440 q 324 531 346 504 q 247 557 301 557 q 167 544 206 557 q 79 504 128 531 l 68 644 q 292 706 179 706 q 455 644 396 706 q 514 449 514 582 l 514 239 q 518 164 514 188 q 531 134 522 140 q 560 128 540 128 l 582 128 l 571 -14 l 497 -14 q 423 8 458 -14 q 371 67 388 31 q 294 6 333 26 q 201 -14 256 -14 m 258 118 q 347 168 306 118 l 347 326 q 236 287 281 318 q 192 196 192 256 q 210 137 192 156 q 258 118 228 118 m 186 913 l 404 1046 l 404 886 l 186 803 l 186 913 z "},"ă":{"ha":588,"x_min":17,"x_max":582,"o":"m 201 -14 q 70 37 124 -14 q 17 179 17 88 q 74 333 17 275 q 208 415 132 390 q 346 443 283 440 q 324 531 346 504 q 247 557 301 557 q 167 544 206 557 q 79 504 128 531 l 68 644 q 292 706 179 706 q 455 644 396 706 q 514 449 514 582 l 514 239 q 518 164 514 188 q 531 134 522 140 q 560 128 540 128 l 582 128 l 571 -14 l 497 -14 q 423 8 458 -14 q 371 67 388 31 q 294 6 333 26 q 201 -14 256 -14 m 258 118 q 347 168 306 118 l 347 326 q 236 287 281 318 q 192 196 192 256 q 210 137 192 156 q 258 118 228 118 m 294 815 q 154 867 207 815 q 101 997 101 919 l 214 997 q 235 937 214 958 q 294 915 256 915 q 354 937 333 915 q 375 997 375 958 l 488 997 q 435 867 488 919 q 294 815 382 815 z "},"ắ":{"ha":588,"x_min":17,"x_max":582,"o":"m 201 -14 q 70 37 124 -14 q 17 179 17 88 q 74 333 17 275 q 208 415 132 390 q 346 443 283 440 q 324 531 346 504 q 247 557 301 557 q 167 544 206 557 q 79 504 128 531 l 68 644 q 292 706 179 706 q 455 644 396 706 q 514 449 514 582 l 514 239 q 518 164 514 188 q 531 134 522 140 q 560 128 540 128 l 582 128 l 571 -14 l 497 -14 q 423 8 458 -14 q 371 67 388 31 q 294 6 333 26 q 201 -14 256 -14 m 258 118 q 347 168 306 118 l 347 326 q 236 287 281 318 q 192 196 192 256 q 210 137 192 156 q 258 118 228 118 m 294 785 q 149 836 204 785 q 94 961 94 888 l 213 961 q 235 901 213 922 q 294 879 257 879 q 354 901 332 879 q 376 961 376 922 l 494 961 q 440 835 494 886 q 294 785 385 785 m 186 1121 l 404 1232 l 404 1089 l 186 1025 l 186 1121 z "},"ặ":{"ha":588,"x_min":17,"x_max":582,"o":"m 201 -14 q 70 37 124 -14 q 17 179 17 88 q 74 333 17 275 q 208 415 132 390 q 346 443 283 440 q 324 531 346 504 q 247 557 301 557 q 167 544 206 557 q 79 504 128 531 l 68 644 q 292 706 179 706 q 455 644 396 706 q 514 449 514 582 l 514 239 q 518 164 514 188 q 531 134 522 140 q 560 128 540 128 l 582 128 l 571 -14 l 497 -14 q 423 8 458 -14 q 371 67 388 31 q 294 6 333 26 q 201 -14 256 -14 m 258 118 q 347 168 306 118 l 347 326 q 236 287 281 318 q 192 196 192 256 q 210 137 192 156 q 258 118 228 118 m 294 815 q 154 867 207 815 q 101 997 101 919 l 214 997 q 235 937 214 958 q 294 915 256 915 q 354 937 333 915 q 375 997 375 958 l 488 997 q 435 867 488 919 q 294 815 382 815 m 228 -112 l 361 -112 l 361 -247 l 228 -247 l 228 -112 z "},"ằ":{"ha":588,"x_min":17,"x_max":582,"o":"m 201 -14 q 70 37 124 -14 q 17 179 17 88 q 74 333 17 275 q 208 415 132 390 q 346 443 283 440 q 324 531 346 504 q 247 557 301 557 q 167 544 206 557 q 79 504 128 531 l 68 644 q 292 706 179 706 q 455 644 396 706 q 514 449 514 582 l 514 239 q 518 164 514 188 q 531 134 522 140 q 560 128 540 128 l 582 128 l 571 -14 l 497 -14 q 423 8 458 -14 q 371 67 388 31 q 294 6 333 26 q 201 -14 256 -14 m 258 118 q 347 168 306 118 l 347 326 q 236 287 281 318 q 192 196 192 256 q 210 137 192 156 q 258 118 228 118 m 294 785 q 149 836 204 785 q 94 961 94 888 l 213 961 q 235 901 213 922 q 294 879 257 879 q 354 901 332 879 q 376 961 376 922 l 494 961 q 440 835 494 886 q 294 785 385 785 m 185 1089 l 185 1232 l 403 1121 l 403 1025 l 185 1089 z "},"ẳ":{"ha":588,"x_min":17,"x_max":582,"o":"m 201 -14 q 70 37 124 -14 q 17 179 17 88 q 74 333 17 275 q 208 415 132 390 q 346 443 283 440 q 324 531 346 504 q 247 557 301 557 q 167 544 206 557 q 79 504 128 531 l 68 644 q 292 706 179 706 q 455 644 396 706 q 514 449 514 582 l 514 239 q 518 164 514 188 q 531 134 522 140 q 560 128 540 128 l 582 128 l 571 -14 l 497 -14 q 423 8 458 -14 q 371 67 388 31 q 294 6 333 26 q 201 -14 256 -14 m 258 118 q 347 168 306 118 l 347 326 q 236 287 281 318 q 192 196 192 256 q 210 137 192 156 q 258 118 228 118 m 294 785 q 149 836 204 785 q 94 961 94 888 l 213 961 q 235 901 213 922 q 294 879 257 879 q 354 901 332 879 q 376 961 376 922 l 494 961 q 440 835 494 886 q 294 785 385 785 m 286 1043 q 319 1060 308 1050 q 329 1090 329 1071 q 283 1129 329 1129 q 215 1110 254 1129 l 192 1194 q 292 1214 239 1214 q 383 1185 347 1214 q 418 1107 418 1157 q 390 1031 418 1060 q 301 982 361 1001 l 286 1043 z "},"ẵ":{"ha":588,"x_min":17,"x_max":582,"o":"m 201 -14 q 70 37 124 -14 q 17 179 17 88 q 74 333 17 275 q 208 415 132 390 q 346 443 283 440 q 324 531 346 504 q 247 557 301 557 q 167 544 206 557 q 79 504 128 531 l 68 644 q 292 706 179 706 q 455 644 396 706 q 514 449 514 582 l 514 239 q 518 164 514 188 q 531 134 522 140 q 560 128 540 128 l 582 128 l 571 -14 l 497 -14 q 423 8 458 -14 q 371 67 388 31 q 294 6 333 26 q 201 -14 256 -14 m 258 118 q 347 168 306 118 l 347 326 q 236 287 281 318 q 192 196 192 256 q 210 137 192 156 q 258 118 228 118 m 294 785 q 149 836 204 785 q 94 961 94 888 l 213 961 q 235 901 213 922 q 294 879 257 879 q 354 901 332 879 q 376 961 376 922 l 494 961 q 440 835 494 886 q 294 785 385 785 m 401 1029 q 358 1036 379 1029 q 303 1060 338 1043 q 264 1077 283 1069 q 229 1085 244 1085 q 189 1039 189 1085 l 83 1039 q 188 1185 83 1185 q 231 1178 210 1185 q 286 1154 251 1171 q 325 1137 306 1144 q 360 1129 344 1129 q 400 1175 400 1129 l 506 1175 q 401 1029 506 1029 z "},"â":{"ha":588,"x_min":17,"x_max":582,"o":"m 201 -14 q 70 37 124 -14 q 17 179 17 88 q 74 333 17 275 q 208 415 132 390 q 346 443 283 440 q 324 531 346 504 q 247 557 301 557 q 167 544 206 557 q 79 504 128 531 l 68 644 q 292 706 179 706 q 455 644 396 706 q 514 449 514 582 l 514 239 q 518 164 514 188 q 531 134 522 140 q 560 128 540 128 l 582 128 l 571 -14 l 497 -14 q 423 8 458 -14 q 371 67 388 31 q 294 6 333 26 q 201 -14 256 -14 m 258 118 q 347 168 306 118 l 347 326 q 236 287 281 318 q 192 196 192 256 q 210 137 192 156 q 258 118 228 118 m 139 893 l 294 1025 l 450 893 l 450 783 l 294 881 l 139 783 l 139 893 z "},"ấ":{"ha":588,"x_min":17,"x_max":624,"o":"m 201 -14 q 70 37 124 -14 q 17 179 17 88 q 74 333 17 275 q 208 415 132 390 q 346 443 283 440 q 324 531 346 504 q 247 557 301 557 q 167 544 206 557 q 79 504 128 531 l 68 644 q 292 706 179 706 q 455 644 396 706 q 514 449 514 582 l 514 239 q 518 164 514 188 q 531 134 522 140 q 560 128 540 128 l 582 128 l 571 -14 l 497 -14 q 423 8 458 -14 q 371 67 388 31 q 294 6 333 26 q 201 -14 256 -14 m 258 118 q 347 168 306 118 l 347 326 q 236 287 281 318 q 192 196 192 256 q 210 137 192 156 q 258 118 228 118 m 469 1147 l 624 1147 l 496 971 l 392 971 l 469 1147 m 464 874 l 464 771 l 294 863 l 125 771 l 125 874 l 294 993 l 464 874 z "},"ậ":{"ha":588,"x_min":17,"x_max":582,"o":"m 201 -14 q 70 37 124 -14 q 17 179 17 88 q 74 333 17 275 q 208 415 132 390 q 346 443 283 440 q 324 531 346 504 q 247 557 301 557 q 167 544 206 557 q 79 504 128 531 l 68 644 q 292 706 179 706 q 455 644 396 706 q 514 449 514 582 l 514 239 q 518 164 514 188 q 531 134 522 140 q 560 128 540 128 l 582 128 l 571 -14 l 497 -14 q 423 8 458 -14 q 371 67 388 31 q 294 6 333 26 q 201 -14 256 -14 m 258 118 q 347 168 306 118 l 347 326 q 236 287 281 318 q 192 196 192 256 q 210 137 192 156 q 258 118 228 118 m 139 893 l 294 1025 l 450 893 l 450 783 l 294 881 l 139 783 l 139 893 m 228 -112 l 361 -112 l 361 -247 l 228 -247 l 228 -112 z "},"ầ":{"ha":588,"x_min":17,"x_max":582,"o":"m 201 -14 q 70 37 124 -14 q 17 179 17 88 q 74 333 17 275 q 208 415 132 390 q 346 443 283 440 q 324 531 346 504 q 247 557 301 557 q 167 544 206 557 q 79 504 128 531 l 68 644 q 292 706 179 706 q 455 644 396 706 q 514 449 514 582 l 514 239 q 518 164 514 188 q 531 134 522 140 q 560 128 540 128 l 582 128 l 571 -14 l 497 -14 q 423 8 458 -14 q 371 67 388 31 q 294 6 333 26 q 201 -14 256 -14 m 258 118 q 347 168 306 118 l 347 326 q 236 287 281 318 q 192 196 192 256 q 210 137 192 156 q 258 118 228 118 m 431 971 l 331 1147 l 474 1147 l 531 971 l 431 971 m 464 874 l 464 771 l 294 863 l 125 771 l 125 874 l 294 993 l 464 874 z "},"ẩ":{"ha":588,"x_min":17,"x_max":582,"o":"m 201 -14 q 70 37 124 -14 q 17 179 17 88 q 74 333 17 275 q 208 415 132 390 q 346 443 283 440 q 324 531 346 504 q 247 557 301 557 q 167 544 206 557 q 79 504 128 531 l 68 644 q 292 706 179 706 q 455 644 396 706 q 514 449 514 582 l 514 239 q 518 164 514 188 q 531 134 522 140 q 560 128 540 128 l 582 128 l 571 -14 l 497 -14 q 423 8 458 -14 q 371 67 388 31 q 294 6 333 26 q 201 -14 256 -14 m 258 118 q 347 168 306 118 l 347 326 q 236 287 281 318 q 192 196 192 256 q 210 137 192 156 q 258 118 228 118 m 464 860 l 464 757 l 294 849 l 125 757 l 125 860 l 294 979 l 464 860 m 413 1000 q 445 1017 435 1007 q 456 1047 456 1028 q 410 1086 456 1086 q 342 1067 381 1086 l 318 1151 q 418 1171 365 1171 q 509 1142 474 1171 q 544 1064 544 1114 q 516 988 544 1017 q 428 939 488 958 l 413 1000 z "},"ẫ":{"ha":588,"x_min":17,"x_max":582,"o":"m 201 -14 q 70 37 124 -14 q 17 179 17 88 q 74 333 17 275 q 208 415 132 390 q 346 443 283 440 q 324 531 346 504 q 247 557 301 557 q 167 544 206 557 q 79 504 128 531 l 68 644 q 292 706 179 706 q 455 644 396 706 q 514 449 514 582 l 514 239 q 518 164 514 188 q 531 134 522 140 q 560 128 540 128 l 582 128 l 571 -14 l 497 -14 q 423 8 458 -14 q 371 67 388 31 q 294 6 333 26 q 201 -14 256 -14 m 258 118 q 347 168 306 118 l 347 326 q 236 287 281 318 q 192 196 192 256 q 210 137 192 156 q 258 118 228 118 m 464 860 l 464 757 l 294 849 l 125 757 l 125 860 l 294 979 l 464 860 m 401 1029 q 358 1036 379 1029 q 303 1060 338 1043 q 264 1077 283 1069 q 229 1085 244 1085 q 189 1039 189 1085 l 83 1039 q 188 1185 83 1185 q 231 1178 210 1185 q 286 1154 251 1171 q 325 1137 306 1144 q 360 1129 344 1129 q 400 1175 400 1129 l 506 1175 q 401 1029 506 1029 z "},"ȁ":{"ha":588,"x_min":17,"x_max":582,"o":"m 201 -14 q 70 37 124 -14 q 17 179 17 88 q 74 333 17 275 q 208 415 132 390 q 346 443 283 440 q 324 531 346 504 q 247 557 301 557 q 167 544 206 557 q 79 504 128 531 l 68 644 q 292 706 179 706 q 455 644 396 706 q 514 449 514 582 l 514 239 q 518 164 514 188 q 531 134 522 140 q 560 128 540 128 l 582 128 l 571 -14 l 497 -14 q 423 8 458 -14 q 371 67 388 31 q 294 6 333 26 q 201 -14 256 -14 m 258 118 q 347 168 306 118 l 347 326 q 236 287 281 318 q 192 196 192 256 q 210 137 192 156 q 258 118 228 118 m 163 817 l 32 1063 l 183 1063 l 264 817 l 163 817 m 360 817 l 240 1063 l 390 1063 l 460 817 l 360 817 z "},"ä":{"ha":588,"x_min":17,"x_max":582,"o":"m 201 -14 q 70 37 124 -14 q 17 179 17 88 q 74 333 17 275 q 208 415 132 390 q 346 443 283 440 q 324 531 346 504 q 247 557 301 557 q 167 544 206 557 q 79 504 128 531 l 68 644 q 292 706 179 706 q 455 644 396 706 q 514 449 514 582 l 514 239 q 518 164 514 188 q 531 134 522 140 q 560 128 540 128 l 582 128 l 571 -14 l 497 -14 q 423 8 458 -14 q 371 67 388 31 q 294 6 333 26 q 201 -14 256 -14 m 258 118 q 347 168 306 118 l 347 326 q 236 287 281 318 q 192 196 192 256 q 210 137 192 156 q 258 118 228 118 m 115 946 l 243 946 l 243 821 l 115 821 l 115 946 m 346 946 l 474 946 l 474 821 l 346 821 l 346 946 z "},"ạ":{"ha":588,"x_min":17,"x_max":582,"o":"m 201 -14 q 70 37 124 -14 q 17 179 17 88 q 74 333 17 275 q 208 415 132 390 q 346 443 283 440 q 324 531 346 504 q 247 557 301 557 q 167 544 206 557 q 79 504 128 531 l 68 644 q 292 706 179 706 q 455 644 396 706 q 514 449 514 582 l 514 239 q 518 164 514 188 q 531 134 522 140 q 560 128 540 128 l 582 128 l 571 -14 l 497 -14 q 423 8 458 -14 q 371 67 388 31 q 294 6 333 26 q 201 -14 256 -14 m 258 118 q 347 168 306 118 l 347 326 q 236 287 281 318 q 192 196 192 256 q 210 137 192 156 q 258 118 228 118 m 228 -112 l 361 -112 l 361 -247 l 228 -247 l 228 -112 z "},"à":{"ha":588,"x_min":17,"x_max":582,"o":"m 201 -14 q 70 37 124 -14 q 17 179 17 88 q 74 333 17 275 q 208 415 132 390 q 346 443 283 440 q 324 531 346 504 q 247 557 301 557 q 167 544 206 557 q 79 504 128 531 l 68 644 q 292 706 179 706 q 455 644 396 706 q 514 449 514 582 l 514 239 q 518 164 514 188 q 531 134 522 140 q 560 128 540 128 l 582 128 l 571 -14 l 497 -14 q 423 8 458 -14 q 371 67 388 31 q 294 6 333 26 q 201 -14 256 -14 m 258 118 q 347 168 306 118 l 347 326 q 236 287 281 318 q 192 196 192 256 q 210 137 192 156 q 258 118 228 118 m 185 889 l 185 1054 l 403 915 l 403 800 l 185 889 z "},"ả":{"ha":588,"x_min":17,"x_max":582,"o":"m 201 -14 q 70 37 124 -14 q 17 179 17 88 q 74 333 17 275 q 208 415 132 390 q 346 443 283 440 q 324 531 346 504 q 247 557 301 557 q 167 544 206 557 q 79 504 128 531 l 68 644 q 292 706 179 706 q 455 644 396 706 q 514 449 514 582 l 514 239 q 518 164 514 188 q 531 134 522 140 q 560 128 540 128 l 582 128 l 571 -14 l 497 -14 q 423 8 458 -14 q 371 67 388 31 q 294 6 333 26 q 201 -14 256 -14 m 258 118 q 347 168 306 118 l 347 326 q 236 287 281 318 q 192 196 192 256 q 210 137 192 156 q 258 118 228 118 m 265 793 q 303 840 292 821 q 315 882 315 858 q 267 928 315 928 q 201 907 236 928 l 178 989 q 272 1010 224 1010 q 363 977 328 1010 q 399 888 399 944 q 378 811 399 844 q 317 742 358 778 l 265 793 z "},"ȃ":{"ha":588,"x_min":17,"x_max":582,"o":"m 201 -14 q 70 37 124 -14 q 17 179 17 88 q 74 333 17 275 q 208 415 132 390 q 346 443 283 440 q 324 531 346 504 q 247 557 301 557 q 167 544 206 557 q 79 504 128 531 l 68 644 q 292 706 179 706 q 455 644 396 706 q 514 449 514 582 l 514 239 q 518 164 514 188 q 531 134 522 140 q 560 128 540 128 l 582 128 l 571 -14 l 497 -14 q 423 8 458 -14 q 371 67 388 31 q 294 6 333 26 q 201 -14 256 -14 m 258 118 q 347 168 306 118 l 347 326 q 236 287 281 318 q 192 196 192 256 q 210 137 192 156 q 258 118 228 118 m 294 994 q 445 943 389 994 q 501 815 501 892 l 383 815 q 360 871 383 851 q 294 890 336 890 q 229 871 253 890 q 206 815 206 851 l 88 815 q 144 943 88 892 q 294 994 201 994 z "},"ā":{"ha":588,"x_min":17,"x_max":582,"o":"m 201 -14 q 70 37 124 -14 q 17 179 17 88 q 74 333 17 275 q 208 415 132 390 q 346 443 283 440 q 324 531 346 504 q 247 557 301 557 q 167 544 206 557 q 79 504 128 531 l 68 644 q 292 706 179 706 q 455 644 396 706 q 514 449 514 582 l 514 239 q 518 164 514 188 q 531 134 522 140 q 560 128 540 128 l 582 128 l 571 -14 l 497 -14 q 423 8 458 -14 q 371 67 388 31 q 294 6 333 26 q 201 -14 256 -14 m 258 118 q 347 168 306 118 l 347 326 q 236 287 281 318 q 192 196 192 256 q 210 137 192 156 q 258 118 228 118 m 94 944 l 494 944 l 494 838 l 94 838 l 94 944 z "},"ą":{"ha":588,"x_min":17,"x_max":626,"o":"m 626 -268 q 517 -293 579 -293 q 417 -262 456 -293 q 378 -174 378 -231 q 400 -90 378 -128 q 464 -10 422 -51 q 408 19 433 -1 q 371 67 383 39 q 294 6 333 26 q 201 -14 256 -14 q 70 37 124 -14 q 17 179 17 88 q 74 333 17 275 q 208 415 132 390 q 346 443 283 440 q 324 531 346 504 q 247 557 301 557 q 167 544 206 557 q 79 504 128 531 l 68 644 q 292 706 179 706 q 455 644 396 706 q 514 449 514 582 l 514 239 q 518 164 514 188 q 531 134 522 140 q 560 128 540 128 l 582 128 l 571 -14 l 546 -14 q 487 -83 507 -53 q 467 -144 467 -114 q 484 -192 467 -176 q 532 -208 501 -208 q 603 -192 565 -208 l 626 -268 m 347 326 q 236 287 281 318 q 192 196 192 256 q 210 137 192 156 q 258 118 228 118 q 347 168 306 118 l 347 326 z "},"å":{"ha":588,"x_min":17,"x_max":582,"o":"m 201 -14 q 70 37 124 -14 q 17 179 17 88 q 74 333 17 275 q 208 415 132 390 q 346 443 283 440 q 324 531 346 504 q 247 557 301 557 q 167 544 206 557 q 79 504 128 531 l 68 644 q 292 706 179 706 q 455 644 396 706 q 514 449 514 582 l 514 239 q 518 164 514 188 q 531 134 522 140 q 560 128 540 128 l 582 128 l 571 -14 l 497 -14 q 423 8 458 -14 q 371 67 388 31 q 294 6 333 26 q 201 -14 256 -14 m 258 118 q 347 168 306 118 l 347 326 q 236 287 281 318 q 192 196 192 256 q 210 137 192 156 q 258 118 228 118 m 294 792 q 198 830 232 792 q 164 926 164 868 q 198 1024 164 985 q 294 1063 232 1063 q 391 1024 357 1063 q 425 926 425 985 q 391 830 425 868 q 294 792 357 792 m 294 861 q 332 878 319 861 q 344 926 344 896 q 331 974 344 956 q 294 992 318 992 q 258 974 271 992 q 244 926 244 956 q 257 878 244 896 q 294 861 269 861 z "},"ǻ":{"ha":588,"x_min":17,"x_max":582,"o":"m 201 -14 q 70 37 124 -14 q 17 179 17 88 q 74 333 17 275 q 208 415 132 390 q 346 443 283 440 q 324 531 346 504 q 247 557 301 557 q 167 544 206 557 q 79 504 128 531 l 68 644 q 292 706 179 706 q 455 644 396 706 q 514 449 514 582 l 514 239 q 518 164 514 188 q 531 134 522 140 q 560 128 540 128 l 582 128 l 571 -14 l 497 -14 q 423 8 458 -14 q 371 67 388 31 q 294 6 333 26 q 201 -14 256 -14 m 258 118 q 347 168 306 118 l 347 326 q 236 287 281 318 q 192 196 192 256 q 210 137 192 156 q 258 118 228 118 m 294 792 q 198 830 232 792 q 164 926 164 868 q 198 1024 164 985 q 294 1063 232 1063 q 391 1024 357 1063 q 425 926 425 985 q 391 830 425 868 q 294 792 357 792 m 294 861 q 332 878 319 861 q 344 926 344 896 q 331 974 344 956 q 294 992 318 992 q 258 974 271 992 q 244 926 244 956 q 257 878 244 896 q 294 861 269 861 m 186 1213 l 404 1324 l 404 1181 l 186 1117 l 186 1213 z "},"ã":{"ha":588,"x_min":17,"x_max":582,"o":"m 201 -14 q 70 37 124 -14 q 17 179 17 88 q 74 333 17 275 q 208 415 132 390 q 346 443 283 440 q 324 531 346 504 q 247 557 301 557 q 167 544 206 557 q 79 504 128 531 l 68 644 q 292 706 179 706 q 455 644 396 706 q 514 449 514 582 l 514 239 q 518 164 514 188 q 531 134 522 140 q 560 128 540 128 l 582 128 l 571 -14 l 497 -14 q 423 8 458 -14 q 371 67 388 31 q 294 6 333 26 q 201 -14 256 -14 m 258 118 q 347 168 306 118 l 347 326 q 236 287 281 318 q 192 196 192 256 q 210 137 192 156 q 258 118 228 118 m 390 803 q 343 812 364 803 q 297 838 322 821 q 264 858 278 851 q 236 864 250 864 q 208 850 218 864 q 197 814 197 836 l 85 814 q 117 939 88 896 q 199 982 146 982 q 246 973 225 982 q 292 947 267 964 q 325 927 311 933 q 353 921 339 921 q 381 935 371 921 q 392 971 392 949 l 504 971 q 472 846 501 889 q 390 803 443 803 z "},"æ":{"ha":943,"x_min":17,"x_max":908,"o":"m 908 406 q 900 310 908 363 l 526 310 q 582 169 535 215 q 699 122 629 122 q 878 178 793 122 l 882 32 q 681 -14 797 -14 q 432 97 521 -14 q 328 14 381 42 q 206 -14 276 -14 q 72 37 126 -14 q 17 179 17 88 q 116 360 17 303 q 353 425 215 418 l 353 447 q 327 531 351 506 q 247 557 303 557 q 167 544 206 557 q 79 504 128 531 l 68 644 q 292 706 179 706 q 461 614 410 706 q 668 706 542 706 q 847 622 786 706 q 908 406 908 538 m 740 426 q 643 569 740 569 q 528 426 547 569 l 740 426 m 258 118 q 383 182 324 118 q 356 308 360 242 q 235 276 279 304 q 192 196 192 247 q 210 137 192 156 q 258 118 228 118 z "},"ǽ":{"ha":943,"x_min":17,"x_max":908,"o":"m 908 406 q 900 310 908 363 l 526 310 q 582 169 535 215 q 699 122 629 122 q 878 178 793 122 l 882 32 q 681 -14 797 -14 q 432 97 521 -14 q 328 14 381 42 q 206 -14 276 -14 q 72 37 126 -14 q 17 179 17 88 q 116 360 17 303 q 353 425 215 418 l 353 447 q 327 531 351 506 q 247 557 303 557 q 167 544 206 557 q 79 504 128 531 l 68 644 q 292 706 179 706 q 461 614 410 706 q 668 706 542 706 q 847 622 786 706 q 908 406 908 538 m 740 426 q 643 569 740 569 q 528 426 547 569 l 740 426 m 258 118 q 383 182 324 118 q 356 308 360 242 q 235 276 279 304 q 192 196 192 247 q 210 137 192 156 q 258 118 228 118 m 360 913 l 578 1046 l 578 886 l 360 803 l 360 913 z "},"b":{"ha":685,"x_min":69,"x_max":664,"o":"m 396 706 q 541 657 481 706 q 633 526 601 608 q 664 346 664 444 q 633 165 664 247 q 541 35 601 83 q 396 -14 481 -14 q 229 49 300 -14 l 225 0 l 69 0 l 69 1042 l 236 1042 l 236 646 q 396 706 306 706 m 364 122 q 460 183 425 122 q 494 346 494 244 q 460 508 494 447 q 364 569 425 569 q 262 509 296 569 q 228 346 228 449 q 262 183 228 243 q 364 122 296 122 z "},"c":{"ha":535,"x_min":33,"x_max":503,"o":"m 361 -14 q 183 34 257 -14 q 71 164 108 82 q 33 346 33 246 q 71 528 33 447 q 183 658 108 610 q 367 706 258 706 q 500 682 446 706 l 488 546 q 386 569 438 569 q 251 508 300 569 q 203 346 203 447 q 251 185 203 247 q 385 122 299 122 q 492 147 442 122 l 503 14 q 439 -6 476 1 q 361 -14 401 -14 z "},"ć":{"ha":535,"x_min":33,"x_max":503,"o":"m 361 -14 q 183 34 257 -14 q 71 164 108 82 q 33 346 33 246 q 71 528 33 447 q 183 658 108 610 q 367 706 258 706 q 500 682 446 706 l 488 546 q 386 569 438 569 q 251 508 300 569 q 203 346 203 447 q 251 185 203 247 q 385 122 299 122 q 492 147 442 122 l 503 14 q 439 -6 476 1 q 361 -14 401 -14 m 218 913 l 436 1046 l 436 886 l 218 803 l 218 913 z "},"č":{"ha":535,"x_min":33,"x_max":503,"o":"m 361 -14 q 183 34 257 -14 q 71 164 108 82 q 33 346 33 246 q 71 528 33 447 q 183 658 108 610 q 367 706 258 706 q 500 682 446 706 l 488 546 q 386 569 438 569 q 251 508 300 569 q 203 346 203 447 q 251 185 203 247 q 385 122 299 122 q 492 147 442 122 l 503 14 q 439 -6 476 1 q 361 -14 401 -14 m 171 914 l 171 1024 l 326 926 l 482 1024 l 482 914 l 326 783 l 171 914 z "},"ç":{"ha":535,"x_min":33,"x_max":503,"o":"m 365 -79 q 447 -111 418 -81 q 476 -196 476 -142 q 436 -297 476 -261 q 332 -332 396 -332 q 232 -314 278 -332 l 258 -237 q 328 -253 297 -253 q 376 -239 358 -253 q 393 -200 393 -225 q 333 -147 393 -147 q 278 -157 310 -147 l 314 -11 q 107 105 181 6 q 33 346 33 204 q 71 528 33 447 q 183 658 108 610 q 367 706 258 706 q 500 682 446 706 l 488 546 q 386 569 438 569 q 251 508 300 569 q 203 346 203 447 q 251 185 203 247 q 385 122 299 122 q 492 147 442 122 l 503 14 q 385 -12 451 -11 l 365 -79 z "},"ḉ":{"ha":535,"x_min":33,"x_max":503,"o":"m 436 886 l 218 803 l 218 913 l 436 1046 l 436 886 m 365 -79 q 447 -111 418 -81 q 476 -196 476 -142 q 436 -297 476 -261 q 332 -332 396 -332 q 232 -314 278 -332 l 258 -237 q 328 -253 297 -253 q 376 -239 358 -253 q 393 -200 393 -225 q 333 -147 393 -147 q 278 -157 310 -147 l 314 -11 q 107 105 181 6 q 33 346 33 204 q 71 528 33 447 q 183 658 108 610 q 367 706 258 706 q 500 682 446 706 l 488 546 q 386 569 438 569 q 251 508 300 569 q 203 346 203 447 q 251 185 203 247 q 385 122 299 122 q 492 147 442 122 l 503 14 q 385 -12 451 -11 l 365 -79 z "},"ĉ":{"ha":535,"x_min":33,"x_max":503,"o":"m 361 -14 q 183 34 257 -14 q 71 164 108 82 q 33 346 33 246 q 71 528 33 447 q 183 658 108 610 q 367 706 258 706 q 500 682 446 706 l 488 546 q 386 569 438 569 q 251 508 300 569 q 203 346 203 447 q 251 185 203 247 q 385 122 299 122 q 492 147 442 122 l 503 14 q 439 -6 476 1 q 361 -14 401 -14 m 171 893 l 326 1025 l 482 893 l 482 783 l 326 881 l 171 783 l 171 893 z "},"ċ":{"ha":535,"x_min":33,"x_max":503,"o":"m 361 -14 q 183 34 257 -14 q 71 164 108 82 q 33 346 33 246 q 71 528 33 447 q 183 658 108 610 q 367 706 258 706 q 500 682 446 706 l 488 546 q 386 569 438 569 q 251 508 300 569 q 203 346 203 447 q 251 185 203 247 q 385 122 299 122 q 492 147 442 122 l 503 14 q 439 -6 476 1 q 361 -14 401 -14 m 260 971 l 393 971 l 393 836 l 260 836 l 260 971 z "},"d":{"ha":685,"x_min":21,"x_max":615,"o":"m 615 1042 l 615 0 l 458 0 l 456 44 q 384 1 422 15 q 296 -14 346 -14 q 147 35 210 -14 q 53 165 85 83 q 21 346 21 247 q 53 526 21 444 q 147 657 85 608 q 296 706 210 706 q 449 651 386 706 l 449 1042 l 615 1042 m 321 122 q 423 183 389 122 q 457 346 457 243 q 423 509 457 449 q 321 569 389 569 q 225 508 260 569 q 190 346 190 447 q 225 183 190 244 q 321 122 260 122 z "},"ð":{"ha":613,"x_min":25,"x_max":569,"o":"m 390 822 q 522 614 475 735 q 569 349 569 493 q 497 76 569 171 q 293 -18 425 -18 q 97 66 169 -18 q 25 286 25 150 q 92 506 25 419 q 282 592 158 592 q 392 564 346 592 q 292 760 371 675 l 167 682 l 111 765 l 213 828 q 111 882 164 861 l 146 974 q 311 890 236 944 l 443 972 l 497 889 l 390 822 m 301 122 q 374 169 349 122 q 400 292 400 215 q 374 413 400 368 q 297 457 347 457 q 221 413 247 457 q 194 292 194 368 q 222 168 194 214 q 301 122 249 122 z "},"ď":{"ha":789,"x_min":21,"x_max":803,"o":"m 615 1042 l 615 0 l 458 0 l 456 44 q 384 1 422 15 q 296 -14 346 -14 q 147 35 210 -14 q 53 165 85 83 q 21 346 21 247 q 53 526 21 444 q 147 657 85 608 q 296 706 210 706 q 449 651 386 706 l 449 1042 l 615 1042 m 321 122 q 423 183 389 122 q 457 346 457 243 q 423 509 457 449 q 321 569 389 569 q 225 508 260 569 q 190 346 190 447 q 225 183 190 244 q 321 122 260 122 m 671 1042 l 803 1042 l 763 796 l 671 796 l 671 1042 z "},"đ":{"ha":699,"x_min":21,"x_max":699,"o":"m 699 815 l 615 815 l 615 0 l 458 0 l 456 44 q 384 1 422 15 q 296 -14 346 -14 q 147 35 210 -14 q 53 165 85 83 q 21 346 21 247 q 53 526 21 444 q 147 657 85 608 q 296 706 210 706 q 449 651 386 706 l 449 815 l 254 815 l 254 931 l 449 931 l 449 1042 l 615 1042 l 615 931 l 699 931 l 699 815 m 321 122 q 423 183 389 122 q 457 346 457 243 q 423 509 457 449 q 321 569 389 569 q 225 508 260 569 q 190 346 190 447 q 225 183 190 244 q 321 122 260 122 z "},"ḍ":{"ha":685,"x_min":21,"x_max":615,"o":"m 615 1042 l 615 0 l 458 0 l 456 44 q 384 1 422 15 q 296 -14 346 -14 q 147 35 210 -14 q 53 165 85 83 q 21 346 21 247 q 53 526 21 444 q 147 657 85 608 q 296 706 210 706 q 449 651 386 706 l 449 1042 l 615 1042 m 321 122 q 423 183 389 122 q 457 346 457 243 q 423 509 457 449 q 321 569 389 569 q 225 508 260 569 q 190 346 190 447 q 225 183 190 244 q 321 122 260 122 m 283 -112 l 417 -112 l 417 -247 l 283 -247 l 283 -112 z "},"ḏ":{"ha":685,"x_min":21,"x_max":615,"o":"m 615 1042 l 615 0 l 458 0 l 456 44 q 384 1 422 15 q 296 -14 346 -14 q 147 35 210 -14 q 53 165 85 83 q 21 346 21 247 q 53 526 21 444 q 147 657 85 608 q 296 706 210 706 q 449 651 386 706 l 449 1042 l 615 1042 m 321 122 q 423 183 389 122 q 457 346 457 243 q 423 509 457 449 q 321 569 389 569 q 225 508 260 569 q 190 346 190 447 q 225 183 190 244 q 321 122 260 122 m 150 -129 l 550 -129 l 550 -236 l 150 -236 l 150 -129 z "},"ǆ":{"ha":1242,"x_min":21,"x_max":1221,"o":"m 615 1042 l 615 0 l 458 0 l 456 44 q 384 1 422 15 q 296 -14 346 -14 q 147 35 210 -14 q 53 165 85 83 q 21 346 21 247 q 53 526 21 444 q 147 657 85 608 q 296 706 210 706 q 449 651 386 706 l 449 1042 l 615 1042 m 321 122 q 423 183 389 122 q 457 346 457 243 q 423 509 457 449 q 321 569 389 569 q 225 508 260 569 q 190 346 190 447 q 225 183 190 244 q 321 122 260 122 m 949 140 l 1213 140 l 1213 0 l 710 0 l 982 554 l 728 554 l 728 694 l 1221 694 l 949 140 m 819 914 l 819 1024 l 975 926 l 1131 1024 l 1131 914 l 975 783 l 819 914 z "},"e":{"ha":619,"x_min":31,"x_max":585,"o":"m 585 399 q 576 310 585 358 l 203 310 q 258 169 211 215 q 375 122 306 122 q 554 178 469 122 l 558 32 q 357 -14 474 -14 q 178 35 251 -14 q 67 165 104 83 q 31 347 31 247 q 65 531 31 450 q 168 659 100 613 q 331 706 236 706 q 517 622 449 706 q 585 399 585 539 m 417 426 q 319 569 417 569 q 204 426 224 569 l 417 426 z "},"é":{"ha":619,"x_min":31,"x_max":585,"o":"m 585 399 q 576 310 585 358 l 203 310 q 258 169 211 215 q 375 122 306 122 q 554 178 469 122 l 558 32 q 357 -14 474 -14 q 178 35 251 -14 q 67 165 104 83 q 31 347 31 247 q 65 531 31 450 q 168 659 100 613 q 331 706 236 706 q 517 622 449 706 q 585 399 585 539 m 417 426 q 319 569 417 569 q 204 426 224 569 l 417 426 m 222 913 l 440 1046 l 440 886 l 222 803 l 222 913 z "},"ĕ":{"ha":619,"x_min":31,"x_max":585,"o":"m 585 399 q 576 310 585 358 l 203 310 q 258 169 211 215 q 375 122 306 122 q 554 178 469 122 l 558 32 q 357 -14 474 -14 q 178 35 251 -14 q 67 165 104 83 q 31 347 31 247 q 65 531 31 450 q 168 659 100 613 q 331 706 236 706 q 517 622 449 706 q 585 399 585 539 m 417 426 q 319 569 417 569 q 204 426 224 569 l 417 426 m 331 815 q 190 867 243 815 q 138 997 138 919 l 250 997 q 271 937 250 958 q 331 915 292 915 q 390 937 369 915 q 411 997 411 958 l 524 997 q 471 867 524 919 q 331 815 418 815 z "},"ě":{"ha":619,"x_min":31,"x_max":585,"o":"m 585 399 q 576 310 585 358 l 203 310 q 258 169 211 215 q 375 122 306 122 q 554 178 469 122 l 558 32 q 357 -14 474 -14 q 178 35 251 -14 q 67 165 104 83 q 31 347 31 247 q 65 531 31 450 q 168 659 100 613 q 331 706 236 706 q 517 622 449 706 q 585 399 585 539 m 417 426 q 319 569 417 569 q 204 426 224 569 l 417 426 m 175 914 l 175 1024 l 331 926 l 486 1024 l 486 914 l 331 783 l 175 914 z "},"ḝ":{"ha":619,"x_min":31,"x_max":585,"o":"m 331 815 q 190 867 243 815 q 138 997 138 919 l 250 997 q 271 937 250 958 q 331 915 292 915 q 390 937 369 915 q 411 997 411 958 l 524 997 q 471 867 524 919 q 331 815 418 815 m 585 399 q 576 310 585 358 l 203 310 q 258 169 211 215 q 375 122 306 122 q 554 178 469 122 l 558 32 q 400 -12 492 -4 l 381 -79 q 463 -111 433 -81 q 492 -196 492 -142 q 451 -297 492 -261 q 347 -332 411 -332 q 247 -314 293 -332 l 274 -237 q 343 -253 313 -253 q 391 -239 374 -253 q 408 -200 408 -225 q 349 -147 408 -147 q 293 -157 325 -147 l 329 -12 q 165 42 232 -7 q 64 172 97 92 q 31 347 31 251 q 65 531 31 450 q 168 659 100 613 q 331 706 236 706 q 517 622 449 706 q 585 399 585 539 m 417 426 q 319 569 417 569 q 204 426 224 569 l 417 426 z "},"ê":{"ha":619,"x_min":31,"x_max":585,"o":"m 585 399 q 576 310 585 358 l 203 310 q 258 169 211 215 q 375 122 306 122 q 554 178 469 122 l 558 32 q 357 -14 474 -14 q 178 35 251 -14 q 67 165 104 83 q 31 347 31 247 q 65 531 31 450 q 168 659 100 613 q 331 706 236 706 q 517 622 449 706 q 585 399 585 539 m 417 426 q 319 569 417 569 q 204 426 224 569 l 417 426 m 175 893 l 331 1025 l 486 893 l 486 783 l 331 881 l 175 783 l 175 893 z "},"ế":{"ha":619,"x_min":31,"x_max":660,"o":"m 585 399 q 576 310 585 358 l 203 310 q 258 169 211 215 q 375 122 306 122 q 554 178 469 122 l 558 32 q 357 -14 474 -14 q 178 35 251 -14 q 67 165 104 83 q 31 347 31 247 q 65 531 31 450 q 168 659 100 613 q 331 706 236 706 q 517 622 449 706 q 585 399 585 539 m 417 426 q 319 569 417 569 q 204 426 224 569 l 417 426 m 506 1147 l 660 1147 l 532 971 l 428 971 l 506 1147 m 500 874 l 500 771 l 331 863 l 161 771 l 161 874 l 331 993 l 500 874 z "},"ệ":{"ha":619,"x_min":31,"x_max":585,"o":"m 585 399 q 576 310 585 358 l 203 310 q 258 169 211 215 q 375 122 306 122 q 554 178 469 122 l 558 32 q 357 -14 474 -14 q 178 35 251 -14 q 67 165 104 83 q 31 347 31 247 q 65 531 31 450 q 168 659 100 613 q 331 706 236 706 q 517 622 449 706 q 585 399 585 539 m 417 426 q 319 569 417 569 q 204 426 224 569 l 417 426 m 175 893 l 331 1025 l 486 893 l 486 783 l 331 881 l 175 783 l 175 893 m 286 -112 l 419 -112 l 419 -247 l 286 -247 l 286 -112 z "},"ề":{"ha":619,"x_min":31,"x_max":585,"o":"m 585 399 q 576 310 585 358 l 203 310 q 258 169 211 215 q 375 122 306 122 q 554 178 469 122 l 558 32 q 357 -14 474 -14 q 178 35 251 -14 q 67 165 104 83 q 31 347 31 247 q 65 531 31 450 q 168 659 100 613 q 331 706 236 706 q 517 622 449 706 q 585 399 585 539 m 417 426 q 319 569 417 569 q 204 426 224 569 l 417 426 m 467 971 l 367 1147 l 510 1147 l 567 971 l 467 971 m 500 874 l 500 771 l 331 863 l 161 771 l 161 874 l 331 993 l 500 874 z "},"ể":{"ha":619,"x_min":31,"x_max":585,"o":"m 585 399 q 576 310 585 358 l 203 310 q 258 169 211 215 q 375 122 306 122 q 554 178 469 122 l 558 32 q 357 -14 474 -14 q 178 35 251 -14 q 67 165 104 83 q 31 347 31 247 q 65 531 31 450 q 168 659 100 613 q 331 706 236 706 q 517 622 449 706 q 585 399 585 539 m 417 426 q 319 569 417 569 q 204 426 224 569 l 417 426 m 500 860 l 500 757 l 331 849 l 161 757 l 161 860 l 331 979 l 500 860 m 449 1000 q 481 1017 471 1007 q 492 1047 492 1028 q 446 1086 492 1086 q 378 1067 417 1086 l 354 1151 q 454 1171 401 1171 q 545 1142 510 1171 q 581 1064 581 1114 q 552 988 581 1017 q 464 939 524 958 l 449 1000 z "},"ễ":{"ha":619,"x_min":31,"x_max":585,"o":"m 585 399 q 576 310 585 358 l 203 310 q 258 169 211 215 q 375 122 306 122 q 554 178 469 122 l 558 32 q 357 -14 474 -14 q 178 35 251 -14 q 67 165 104 83 q 31 347 31 247 q 65 531 31 450 q 168 659 100 613 q 331 706 236 706 q 517 622 449 706 q 585 399 585 539 m 417 426 q 319 569 417 569 q 204 426 224 569 l 417 426 m 500 860 l 500 757 l 331 849 l 161 757 l 161 860 l 331 979 l 500 860 m 438 1029 q 394 1036 415 1029 q 339 1060 374 1043 q 300 1077 319 1069 q 265 1085 281 1085 q 225 1039 225 1085 l 119 1039 q 224 1185 119 1185 q 267 1178 246 1185 q 322 1154 288 1171 q 361 1137 342 1144 q 396 1129 381 1129 q 436 1175 436 1129 l 542 1175 q 438 1029 542 1029 z "},"ȅ":{"ha":619,"x_min":31,"x_max":585,"o":"m 585 399 q 576 310 585 358 l 203 310 q 258 169 211 215 q 375 122 306 122 q 554 178 469 122 l 558 32 q 357 -14 474 -14 q 178 35 251 -14 q 67 165 104 83 q 31 347 31 247 q 65 531 31 450 q 168 659 100 613 q 331 706 236 706 q 517 622 449 706 q 585 399 585 539 m 417 426 q 319 569 417 569 q 204 426 224 569 l 417 426 m 199 817 l 68 1063 l 219 1063 l 300 817 l 199 817 m 396 817 l 276 1063 l 426 1063 l 496 817 l 396 817 z "},"ë":{"ha":619,"x_min":31,"x_max":585,"o":"m 585 399 q 576 310 585 358 l 203 310 q 258 169 211 215 q 375 122 306 122 q 554 178 469 122 l 558 32 q 357 -14 474 -14 q 178 35 251 -14 q 67 165 104 83 q 31 347 31 247 q 65 531 31 450 q 168 659 100 613 q 331 706 236 706 q 517 622 449 706 q 585 399 585 539 m 417 426 q 319 569 417 569 q 204 426 224 569 l 417 426 m 151 946 l 279 946 l 279 821 l 151 821 l 151 946 m 382 946 l 510 946 l 510 821 l 382 821 l 382 946 z "},"ė":{"ha":619,"x_min":31,"x_max":585,"o":"m 585 399 q 576 310 585 358 l 203 310 q 258 169 211 215 q 375 122 306 122 q 554 178 469 122 l 558 32 q 357 -14 474 -14 q 178 35 251 -14 q 67 165 104 83 q 31 347 31 247 q 65 531 31 450 q 168 659 100 613 q 331 706 236 706 q 517 622 449 706 q 585 399 585 539 m 417 426 q 319 569 417 569 q 204 426 224 569 l 417 426 m 264 971 l 397 971 l 397 836 l 264 836 l 264 971 z "},"ẹ":{"ha":619,"x_min":31,"x_max":585,"o":"m 585 399 q 576 310 585 358 l 203 310 q 258 169 211 215 q 375 122 306 122 q 554 178 469 122 l 558 32 q 357 -14 474 -14 q 178 35 251 -14 q 67 165 104 83 q 31 347 31 247 q 65 531 31 450 q 168 659 100 613 q 331 706 236 706 q 517 622 449 706 q 585 399 585 539 m 417 426 q 319 569 417 569 q 204 426 224 569 l 417 426 m 286 -112 l 419 -112 l 419 -247 l 286 -247 l 286 -112 z "},"è":{"ha":619,"x_min":31,"x_max":585,"o":"m 585 399 q 576 310 585 358 l 203 310 q 258 169 211 215 q 375 122 306 122 q 554 178 469 122 l 558 32 q 357 -14 474 -14 q 178 35 251 -14 q 67 165 104 83 q 31 347 31 247 q 65 531 31 450 q 168 659 100 613 q 331 706 236 706 q 517 622 449 706 q 585 399 585 539 m 417 426 q 319 569 417 569 q 204 426 224 569 l 417 426 m 221 889 l 221 1054 l 439 915 l 439 800 l 221 889 z "},"ẻ":{"ha":619,"x_min":31,"x_max":585,"o":"m 585 399 q 576 310 585 358 l 203 310 q 258 169 211 215 q 375 122 306 122 q 554 178 469 122 l 558 32 q 357 -14 474 -14 q 178 35 251 -14 q 67 165 104 83 q 31 347 31 247 q 65 531 31 450 q 168 659 100 613 q 331 706 236 706 q 517 622 449 706 q 585 399 585 539 m 417 426 q 319 569 417 569 q 204 426 224 569 l 417 426 m 301 793 q 340 840 328 821 q 351 882 351 858 q 303 928 351 928 q 238 907 272 928 l 214 989 q 308 1010 260 1010 q 399 977 364 1010 q 435 888 435 944 q 415 811 435 844 q 353 742 394 778 l 301 793 z "},"ȇ":{"ha":619,"x_min":31,"x_max":585,"o":"m 585 399 q 576 310 585 358 l 203 310 q 258 169 211 215 q 375 122 306 122 q 554 178 469 122 l 558 32 q 357 -14 474 -14 q 178 35 251 -14 q 67 165 104 83 q 31 347 31 247 q 65 531 31 450 q 168 659 100 613 q 331 706 236 706 q 517 622 449 706 q 585 399 585 539 m 417 426 q 319 569 417 569 q 204 426 224 569 l 417 426 m 331 994 q 481 943 425 994 q 538 815 538 892 l 419 815 q 396 871 419 851 q 331 890 372 890 q 265 871 289 890 q 242 815 242 851 l 124 815 q 181 943 124 892 q 331 994 238 994 z "},"ē":{"ha":619,"x_min":31,"x_max":585,"o":"m 585 399 q 576 310 585 358 l 203 310 q 258 169 211 215 q 375 122 306 122 q 554 178 469 122 l 558 32 q 357 -14 474 -14 q 178 35 251 -14 q 67 165 104 83 q 31 347 31 247 q 65 531 31 450 q 168 659 100 613 q 331 706 236 706 q 517 622 449 706 q 585 399 585 539 m 417 426 q 319 569 417 569 q 204 426 224 569 l 417 426 m 131 944 l 531 944 l 531 838 l 131 838 l 131 944 z "},"ḗ":{"ha":619,"x_min":31,"x_max":585,"o":"m 585 399 q 576 310 585 358 l 203 310 q 258 169 211 215 q 375 122 306 122 q 554 178 469 122 l 558 32 q 357 -14 474 -14 q 178 35 251 -14 q 67 165 104 83 q 31 347 31 247 q 65 531 31 450 q 168 659 100 613 q 331 706 236 706 q 517 622 449 706 q 585 399 585 539 m 417 426 q 319 569 417 569 q 204 426 224 569 l 417 426 m 117 924 l 544 924 l 544 824 l 117 824 l 117 924 m 222 1111 l 440 1222 l 440 1079 l 222 1015 l 222 1111 z "},"ḕ":{"ha":619,"x_min":31,"x_max":585,"o":"m 585 399 q 576 310 585 358 l 203 310 q 258 169 211 215 q 375 122 306 122 q 554 178 469 122 l 558 32 q 357 -14 474 -14 q 178 35 251 -14 q 67 165 104 83 q 31 347 31 247 q 65 531 31 450 q 168 659 100 613 q 331 706 236 706 q 517 622 449 706 q 585 399 585 539 m 417 426 q 319 569 417 569 q 204 426 224 569 l 417 426 m 117 924 l 544 924 l 544 824 l 117 824 l 117 924 m 221 1079 l 221 1222 l 439 1111 l 439 1015 l 221 1079 z "},"ę":{"ha":619,"x_min":31,"x_max":625,"o":"m 625 -236 q 515 -261 578 -261 q 415 -230 454 -261 q 376 -142 376 -199 q 433 -8 376 -75 q 357 -14 401 -14 q 178 35 251 -14 q 67 165 104 83 q 31 347 31 247 q 65 531 31 450 q 168 659 100 613 q 331 706 236 706 q 517 622 449 706 q 585 399 585 539 q 576 310 585 358 l 203 310 q 258 169 211 215 q 375 122 306 122 q 554 178 469 122 l 558 32 q 490 -45 514 -11 q 465 -112 465 -79 q 483 -160 465 -144 q 531 -176 500 -176 q 601 -160 564 -176 l 625 -236 m 319 569 q 204 426 224 569 l 417 426 q 319 569 417 569 z "},"ẽ":{"ha":619,"x_min":31,"x_max":585,"o":"m 585 399 q 576 310 585 358 l 203 310 q 258 169 211 215 q 375 122 306 122 q 554 178 469 122 l 558 32 q 357 -14 474 -14 q 178 35 251 -14 q 67 165 104 83 q 31 347 31 247 q 65 531 31 450 q 168 659 100 613 q 331 706 236 706 q 517 622 449 706 q 585 399 585 539 m 417 426 q 319 569 417 569 q 204 426 224 569 l 417 426 m 426 803 q 379 812 400 803 q 333 838 358 821 q 300 858 314 851 q 272 864 286 864 q 244 850 254 864 q 233 814 233 836 l 121 814 q 153 939 124 896 q 235 982 182 982 q 282 973 261 982 q 328 947 303 964 q 361 927 347 933 q 389 921 375 921 q 417 935 407 921 q 428 971 428 949 l 540 971 q 508 846 538 889 q 426 803 479 803 z "},"ə":{"ha":619,"x_min":35,"x_max":589,"o":"m 263 708 q 442 660 368 708 q 552 529 515 611 q 589 347 589 447 q 554 163 589 244 q 451 35 519 82 q 289 -11 383 -11 q 103 72 171 -11 q 35 296 35 156 q 43 385 35 338 l 417 385 q 361 526 408 479 q 244 572 314 572 q 65 517 150 572 l 61 663 q 263 708 146 708 m 300 125 q 415 268 396 125 l 203 268 q 300 125 203 125 z "},"f":{"ha":407,"x_min":22,"x_max":388,"o":"m 100 553 l 22 553 l 35 694 l 100 694 l 100 842 q 149 987 100 932 q 296 1042 199 1042 q 388 1028 349 1042 l 375 890 q 336 897 357 897 q 285 876 303 897 q 267 817 267 854 l 267 694 l 386 694 l 386 553 l 267 553 l 267 0 l 100 0 l 100 553 z "},"g":{"ha":600,"x_min":29,"x_max":597,"o":"m 404 71 q 551 1 506 47 q 597 -129 597 -46 q 560 -244 597 -194 q 457 -320 524 -293 q 306 -347 390 -347 q 105 -296 181 -347 q 29 -153 29 -244 q 56 -62 29 -101 q 133 7 82 -24 q 74 103 74 42 q 139 201 74 163 q 61 299 89 239 q 33 432 33 360 q 63 571 33 508 q 150 669 93 633 q 283 706 207 706 q 436 656 374 706 q 553 706 493 706 q 588 703 571 706 l 575 596 q 547 599 561 599 q 494 588 518 599 q 533 432 533 521 q 503 293 533 356 q 417 194 474 231 q 283 157 360 157 q 231 163 253 157 q 218 139 218 153 q 228 117 218 125 q 261 104 238 110 l 404 71 m 283 581 q 211 540 236 581 q 186 432 186 499 q 211 323 186 364 q 283 282 236 282 q 355 323 329 282 q 381 432 381 364 q 355 540 381 499 q 283 581 329 581 m 310 -222 q 413 -201 374 -222 q 453 -139 453 -179 q 431 -87 453 -106 q 357 -56 410 -68 l 238 -26 q 181 -73 200 -49 q 163 -129 163 -97 q 203 -198 163 -174 q 310 -222 243 -222 z "},"ğ":{"ha":600,"x_min":29,"x_max":597,"o":"m 404 71 q 551 1 506 47 q 597 -129 597 -46 q 560 -244 597 -194 q 457 -320 524 -293 q 306 -347 390 -347 q 105 -296 181 -347 q 29 -153 29 -244 q 56 -62 29 -101 q 133 7 82 -24 q 74 103 74 42 q 139 201 74 163 q 61 299 89 239 q 33 432 33 360 q 63 571 33 508 q 150 669 93 633 q 283 706 207 706 q 436 656 374 706 q 553 706 493 706 q 588 703 571 706 l 575 596 q 547 599 561 599 q 494 588 518 599 q 533 432 533 521 q 503 293 533 356 q 417 194 474 231 q 283 157 360 157 q 231 163 253 157 q 218 139 218 153 q 228 117 218 125 q 261 104 238 110 l 404 71 m 283 581 q 211 540 236 581 q 186 432 186 499 q 211 323 186 364 q 283 282 236 282 q 355 323 329 282 q 381 432 381 364 q 355 540 381 499 q 283 581 329 581 m 310 -222 q 413 -201 374 -222 q 453 -139 453 -179 q 431 -87 453 -106 q 357 -56 410 -68 l 238 -26 q 181 -73 200 -49 q 163 -129 163 -97 q 203 -198 163 -174 q 310 -222 243 -222 m 300 815 q 160 867 213 815 q 107 997 107 919 l 219 997 q 240 937 219 958 q 300 915 261 915 q 360 937 339 915 q 381 997 381 958 l 493 997 q 440 867 493 919 q 300 815 388 815 z "},"ǧ":{"ha":600,"x_min":29,"x_max":597,"o":"m 404 71 q 551 1 506 47 q 597 -129 597 -46 q 560 -244 597 -194 q 457 -320 524 -293 q 306 -347 390 -347 q 105 -296 181 -347 q 29 -153 29 -244 q 56 -62 29 -101 q 133 7 82 -24 q 74 103 74 42 q 139 201 74 163 q 61 299 89 239 q 33 432 33 360 q 63 571 33 508 q 150 669 93 633 q 283 706 207 706 q 436 656 374 706 q 553 706 493 706 q 588 703 571 706 l 575 596 q 547 599 561 599 q 494 588 518 599 q 533 432 533 521 q 503 293 533 356 q 417 194 474 231 q 283 157 360 157 q 231 163 253 157 q 218 139 218 153 q 228 117 218 125 q 261 104 238 110 l 404 71 m 283 581 q 211 540 236 581 q 186 432 186 499 q 211 323 186 364 q 283 282 236 282 q 355 323 329 282 q 381 432 381 364 q 355 540 381 499 q 283 581 329 581 m 310 -222 q 413 -201 374 -222 q 453 -139 453 -179 q 431 -87 453 -106 q 357 -56 410 -68 l 238 -26 q 181 -73 200 -49 q 163 -129 163 -97 q 203 -198 163 -174 q 310 -222 243 -222 m 144 914 l 144 1024 l 300 926 l 456 1024 l 456 914 l 300 783 l 144 914 z "},"ĝ":{"ha":600,"x_min":29,"x_max":597,"o":"m 404 71 q 551 1 506 47 q 597 -129 597 -46 q 560 -244 597 -194 q 457 -320 524 -293 q 306 -347 390 -347 q 105 -296 181 -347 q 29 -153 29 -244 q 56 -62 29 -101 q 133 7 82 -24 q 74 103 74 42 q 139 201 74 163 q 61 299 89 239 q 33 432 33 360 q 63 571 33 508 q 150 669 93 633 q 283 706 207 706 q 436 656 374 706 q 553 706 493 706 q 588 703 571 706 l 575 596 q 547 599 561 599 q 494 588 518 599 q 533 432 533 521 q 503 293 533 356 q 417 194 474 231 q 283 157 360 157 q 231 163 253 157 q 218 139 218 153 q 228 117 218 125 q 261 104 238 110 l 404 71 m 283 581 q 211 540 236 581 q 186 432 186 499 q 211 323 186 364 q 283 282 236 282 q 355 323 329 282 q 381 432 381 364 q 355 540 381 499 q 283 581 329 581 m 310 -222 q 413 -201 374 -222 q 453 -139 453 -179 q 431 -87 453 -106 q 357 -56 410 -68 l 238 -26 q 181 -73 200 -49 q 163 -129 163 -97 q 203 -198 163 -174 q 310 -222 243 -222 m 144 893 l 300 1025 l 456 893 l 456 783 l 300 881 l 144 783 l 144 893 z "},"ģ":{"ha":600,"x_min":29,"x_max":597,"o":"m 404 71 q 551 1 506 47 q 597 -129 597 -46 q 560 -244 597 -194 q 457 -320 524 -293 q 306 -347 390 -347 q 105 -296 181 -347 q 29 -153 29 -244 q 56 -62 29 -101 q 133 7 82 -24 q 74 103 74 42 q 139 201 74 163 q 61 299 89 239 q 33 432 33 360 q 63 571 33 508 q 150 669 93 633 q 283 706 207 706 q 436 656 374 706 q 553 706 493 706 q 588 703 571 706 l 575 596 q 547 599 561 599 q 494 588 518 599 q 533 432 533 521 q 503 293 533 356 q 417 194 474 231 q 283 157 360 157 q 231 163 253 157 q 218 139 218 153 q 228 117 218 125 q 261 104 238 110 l 404 71 m 283 581 q 211 540 236 581 q 186 432 186 499 q 211 323 186 364 q 283 282 236 282 q 355 323 329 282 q 381 432 381 364 q 355 540 381 499 q 283 581 329 581 m 310 -222 q 413 -201 374 -222 q 453 -139 453 -179 q 431 -87 453 -106 q 357 -56 410 -68 l 238 -26 q 181 -73 200 -49 q 163 -129 163 -97 q 203 -198 163 -174 q 310 -222 243 -222 m 385 1103 l 325 950 l 371 950 l 371 815 l 232 815 l 232 933 l 321 1103 l 385 1103 z "},"ġ":{"ha":600,"x_min":29,"x_max":597,"o":"m 404 71 q 551 1 506 47 q 597 -129 597 -46 q 560 -244 597 -194 q 457 -320 524 -293 q 306 -347 390 -347 q 105 -296 181 -347 q 29 -153 29 -244 q 56 -62 29 -101 q 133 7 82 -24 q 74 103 74 42 q 139 201 74 163 q 61 299 89 239 q 33 432 33 360 q 63 571 33 508 q 150 669 93 633 q 283 706 207 706 q 436 656 374 706 q 553 706 493 706 q 588 703 571 706 l 575 596 q 547 599 561 599 q 494 588 518 599 q 533 432 533 521 q 503 293 533 356 q 417 194 474 231 q 283 157 360 157 q 231 163 253 157 q 218 139 218 153 q 228 117 218 125 q 261 104 238 110 l 404 71 m 283 581 q 211 540 236 581 q 186 432 186 499 q 211 323 186 364 q 283 282 236 282 q 355 323 329 282 q 381 432 381 364 q 355 540 381 499 q 283 581 329 581 m 310 -222 q 413 -201 374 -222 q 453 -139 453 -179 q 431 -87 453 -106 q 357 -56 410 -68 l 238 -26 q 181 -73 200 -49 q 163 -129 163 -97 q 203 -198 163 -174 q 310 -222 243 -222 m 233 971 l 367 971 l 367 836 l 233 836 l 233 971 z "},"ḡ":{"ha":600,"x_min":29,"x_max":597,"o":"m 404 71 q 551 1 506 47 q 597 -129 597 -46 q 560 -244 597 -194 q 457 -320 524 -293 q 306 -347 390 -347 q 105 -296 181 -347 q 29 -153 29 -244 q 56 -62 29 -101 q 133 7 82 -24 q 74 103 74 42 q 139 201 74 163 q 61 299 89 239 q 33 432 33 360 q 63 571 33 508 q 150 669 93 633 q 283 706 207 706 q 436 656 374 706 q 553 706 493 706 q 588 703 571 706 l 575 596 q 547 599 561 599 q 494 588 518 599 q 533 432 533 521 q 503 293 533 356 q 417 194 474 231 q 283 157 360 157 q 231 163 253 157 q 218 139 218 153 q 228 117 218 125 q 261 104 238 110 l 404 71 m 283 581 q 211 540 236 581 q 186 432 186 499 q 211 323 186 364 q 283 282 236 282 q 355 323 329 282 q 381 432 381 364 q 355 540 381 499 q 283 581 329 581 m 310 -222 q 413 -201 374 -222 q 453 -139 453 -179 q 431 -87 453 -106 q 357 -56 410 -68 l 238 -26 q 181 -73 200 -49 q 163 -129 163 -97 q 203 -198 163 -174 q 310 -222 243 -222 m 100 944 l 500 944 l 500 838 l 100 838 l 100 944 z "},"h":{"ha":660,"x_min":61,"x_max":596,"o":"m 382 706 q 541 637 486 706 q 596 451 596 568 l 596 0 l 429 0 l 429 429 q 335 569 429 569 q 228 510 269 569 l 228 0 l 61 0 l 61 1042 l 228 1042 l 228 654 q 382 706 290 706 z "},"ħ":{"ha":682,"x_min":0,"x_max":618,"o":"m 404 706 q 563 637 508 706 q 618 451 618 568 l 618 0 l 451 0 l 451 429 q 357 569 451 569 q 250 510 292 569 l 250 0 l 83 0 l 83 815 l 0 815 l 0 931 l 83 931 l 83 1042 l 250 1042 l 250 931 l 444 931 l 444 815 l 250 815 l 250 654 q 404 706 313 706 z "},"ḫ":{"ha":660,"x_min":61,"x_max":596,"o":"m 382 706 q 541 637 486 706 q 596 451 596 568 l 596 0 l 429 0 l 429 429 q 335 569 429 569 q 228 510 269 569 l 228 0 l 61 0 l 61 1042 l 228 1042 l 228 654 q 382 706 290 706 m 329 -319 q 189 -267 242 -319 q 136 -137 136 -215 l 249 -137 q 269 -198 249 -176 q 329 -219 290 -219 q 389 -198 368 -219 q 410 -137 410 -176 l 522 -137 q 469 -267 522 -215 q 329 -319 417 -319 z "},"ĥ":{"ha":660,"x_min":-25,"x_max":596,"o":"m 382 706 q 541 637 486 706 q 596 451 596 568 l 596 0 l 429 0 l 429 429 q 335 569 429 569 q 228 510 269 569 l 228 0 l 61 0 l 61 1042 l 228 1042 l 228 654 q 382 706 290 706 m 314 1207 l 314 1104 l 144 1196 l -25 1104 l -25 1207 l 144 1326 l 314 1207 z "},"ḥ":{"ha":660,"x_min":61,"x_max":596,"o":"m 382 706 q 541 637 486 706 q 596 451 596 568 l 596 0 l 429 0 l 429 429 q 335 569 429 569 q 228 510 269 569 l 228 0 l 61 0 l 61 1042 l 228 1042 l 228 654 q 382 706 290 706 m 263 -112 l 396 -112 l 396 -247 l 263 -247 l 263 -112 z "},"i":{"ha":289,"x_min":61,"x_max":228,"o":"m 61 972 l 228 972 l 228 800 l 61 800 l 61 972 m 61 694 l 228 694 l 228 0 l 61 0 l 61 694 z "},"ı":{"ha":288,"x_min":61,"x_max":226,"o":"m 61 694 l 226 694 l 226 0 l 61 0 l 61 694 z "},"í":{"ha":288,"x_min":36,"x_max":254,"o":"m 61 694 l 226 694 l 226 0 l 61 0 l 61 694 m 36 913 l 254 1046 l 254 886 l 36 803 l 36 913 z "},"ĭ":{"ha":288,"x_min":-49,"x_max":338,"o":"m 61 694 l 226 694 l 226 0 l 61 0 l 61 694 m 144 815 q 4 867 57 815 q -49 997 -49 919 l 64 997 q 85 937 64 958 q 144 915 106 915 q 204 937 183 915 q 225 997 225 958 l 338 997 q 285 867 338 919 q 144 815 232 815 z "},"î":{"ha":288,"x_min":-11,"x_max":300,"o":"m 61 694 l 226 694 l 226 0 l 61 0 l 61 694 m -11 893 l 144 1025 l 300 893 l 300 783 l 144 881 l -11 783 l -11 893 z "},"ȉ":{"ha":288,"x_min":-118,"x_max":310,"o":"m 61 694 l 226 694 l 226 0 l 61 0 l 61 694 m 13 817 l -118 1063 l 33 1063 l 114 817 l 13 817 m 210 817 l 90 1063 l 240 1063 l 310 817 l 210 817 z "},"ï":{"ha":288,"x_min":-35,"x_max":324,"o":"m 61 694 l 226 694 l 226 0 l 61 0 l 61 694 m -35 946 l 93 946 l 93 821 l -35 821 l -35 946 m 196 946 l 324 946 l 324 821 l 196 821 l 196 946 z "},"ḯ":{"ha":288,"x_min":-35,"x_max":324,"o":"m 61 694 l 226 694 l 226 0 l 61 0 l 61 694 m -35 929 l 93 929 l 93 810 l -35 810 l -35 929 m 196 929 l 324 929 l 324 810 l 196 810 l 196 929 m 36 1081 l 254 1192 l 254 1049 l 36 985 l 36 1081 z "},"ị":{"ha":289,"x_min":61,"x_max":228,"o":"m 61 972 l 228 972 l 228 800 l 61 800 l 61 972 m 61 694 l 228 694 l 228 0 l 61 0 l 61 694 m 78 -112 l 211 -112 l 211 -247 l 78 -247 l 78 -112 z "},"ì":{"ha":288,"x_min":35,"x_max":253,"o":"m 61 694 l 226 694 l 226 0 l 61 0 l 61 694 m 35 889 l 35 1054 l 253 915 l 253 800 l 35 889 z "},"ỉ":{"ha":288,"x_min":28,"x_max":249,"o":"m 61 694 l 226 694 l 226 0 l 61 0 l 61 694 m 115 793 q 153 840 142 821 q 165 882 165 858 q 117 928 165 928 q 51 907 86 928 l 28 989 q 122 1010 74 1010 q 213 977 178 1010 q 249 888 249 944 q 228 811 249 844 q 167 742 208 778 l 115 793 z "},"ȋ":{"ha":288,"x_min":-62,"x_max":351,"o":"m 61 694 l 226 694 l 226 0 l 61 0 l 61 694 m 144 994 q 295 943 239 994 q 351 815 351 892 l 233 815 q 210 871 233 851 q 144 890 186 890 q 79 871 103 890 q 56 815 56 851 l -62 815 q -6 943 -62 892 q 144 994 51 994 z "},"ĳ":{"ha":578,"x_min":61,"x_max":517,"o":"m 61 972 l 228 972 l 228 800 l 61 800 l 61 972 m 61 694 l 228 694 l 228 0 l 61 0 l 61 694 m 350 972 l 517 972 l 517 800 l 350 800 l 350 972 m 285 -194 q 335 -175 319 -194 q 350 -108 350 -156 l 350 694 l 517 694 l 517 -154 q 475 -291 517 -246 q 342 -336 433 -336 l 299 -336 l 285 -194 z "},"ī":{"ha":288,"x_min":-56,"x_max":344,"o":"m 61 694 l 226 694 l 226 0 l 61 0 l 61 694 m -56 944 l 344 944 l 344 838 l -56 838 l -56 944 z "},"į":{"ha":289,"x_min":46,"x_max":294,"o":"m 61 972 l 228 972 l 228 800 l 61 800 l 61 972 m 61 694 l 228 694 l 228 0 l 61 0 l 61 694 m 228 0 q 159 -77 183 -43 q 135 -144 135 -111 q 152 -192 135 -176 q 200 -208 169 -208 q 271 -192 233 -208 l 294 -268 q 185 -293 247 -293 q 85 -262 124 -293 q 46 -174 46 -231 q 71 -85 46 -125 q 142 0 96 -44 l 228 0 z "},"ĩ":{"ha":288,"x_min":-65,"x_max":354,"o":"m 61 694 l 226 694 l 226 0 l 61 0 l 61 694 m 240 803 q 193 812 214 803 q 147 838 172 821 q 114 858 128 851 q 86 864 100 864 q 58 850 68 864 q 47 814 47 836 l -65 814 q -33 939 -62 896 q 49 982 -4 982 q 96 973 75 982 q 142 947 117 964 q 175 927 161 933 q 203 921 189 921 q 231 935 221 921 q 242 971 242 949 l 354 971 q 322 846 351 889 q 240 803 293 803 z "},"j":{"ha":289,"x_min":-4,"x_max":228,"o":"m 61 972 l 228 972 l 228 800 l 61 800 l 61 972 m -4 -194 q 46 -175 31 -194 q 61 -108 61 -156 l 61 694 l 228 694 l 228 -154 q 186 -291 228 -246 q 53 -336 144 -336 l 10 -336 l -4 -194 z "},"ȷ":{"ha":289,"x_min":-4,"x_max":228,"o":"m -4 -194 q 46 -175 31 -194 q 61 -108 61 -156 l 61 694 l 228 694 l 228 -154 q 186 -291 228 -246 q 53 -336 144 -336 l 10 -336 l -4 -194 z "},"ĵ":{"ha":289,"x_min":-11,"x_max":300,"o":"m -4 -194 q 46 -175 31 -194 q 61 -108 61 -156 l 61 694 l 228 694 l 228 -154 q 186 -291 228 -246 q 53 -336 144 -336 l 10 -336 l -4 -194 m -11 893 l 144 1025 l 300 893 l 300 783 l 144 881 l -11 783 l -11 893 z "},"k":{"ha":586,"x_min":58,"x_max":590,"o":"m 58 1042 l 225 1042 l 225 417 l 396 694 l 585 694 l 379 367 l 590 0 l 401 0 l 225 315 l 225 0 l 58 0 l 58 1042 z "},"ķ":{"ha":586,"x_min":58,"x_max":590,"o":"m 58 1042 l 225 1042 l 225 417 l 396 694 l 585 694 l 379 367 l 590 0 l 401 0 l 225 315 l 225 0 l 58 0 l 58 1042 m 231 -414 l 290 -261 l 244 -261 l 244 -126 l 383 -126 l 383 -244 l 294 -414 l 231 -414 z "},"ĸ":{"ha":664,"x_min":69,"x_max":658,"o":"m 69 694 l 236 694 l 236 406 l 457 694 l 658 694 l 389 356 l 658 0 l 457 0 l 236 304 l 236 0 l 69 0 l 69 694 z "},"l":{"ha":317,"x_min":64,"x_max":293,"o":"m 217 -14 q 102 35 140 -14 q 64 168 64 83 l 64 1042 l 231 1042 l 231 225 q 242 147 231 167 q 293 128 254 128 l 279 -14 l 217 -14 z "},"ĺ":{"ha":317,"x_min":39,"x_max":293,"o":"m 217 -14 q 102 35 140 -14 q 64 168 64 83 l 64 1042 l 231 1042 l 231 225 q 242 147 231 167 q 293 128 254 128 l 279 -14 l 217 -14 m 39 1219 l 257 1331 l 257 1188 l 39 1124 l 39 1219 z "},"ľ":{"ha":404,"x_min":64,"x_max":418,"o":"m 217 -14 q 102 35 140 -14 q 64 168 64 83 l 64 1042 l 231 1042 l 231 225 q 242 147 231 167 q 293 128 254 128 l 279 -14 l 217 -14 m 286 1042 l 418 1042 l 378 796 l 286 796 l 286 1042 z "},"ļ":{"ha":317,"x_min":64,"x_max":293,"o":"m 217 -14 q 102 35 140 -14 q 64 168 64 83 l 64 1042 l 231 1042 l 231 225 q 242 147 231 167 q 293 128 254 128 l 279 -14 l 217 -14 m 106 -414 l 165 -261 l 119 -261 l 119 -126 l 258 -126 l 258 -244 l 169 -414 l 106 -414 z "},"ŀ":{"ha":444,"x_min":64,"x_max":442,"o":"m 217 -14 q 102 35 140 -14 q 64 168 64 83 l 64 1042 l 231 1042 l 231 225 q 242 147 231 167 q 293 128 254 128 l 279 -14 l 217 -14 m 297 660 l 442 660 l 442 493 l 297 493 l 297 660 z "},"ḷ":{"ha":317,"x_min":64,"x_max":293,"o":"m 217 -14 q 102 35 140 -14 q 64 168 64 83 l 64 1042 l 231 1042 l 231 225 q 242 147 231 167 q 293 128 254 128 l 279 -14 l 217 -14 m 122 -112 l 256 -112 l 256 -247 l 122 -247 l 122 -112 z "},"ǉ":{"ha":606,"x_min":64,"x_max":544,"o":"m 217 -14 q 102 35 140 -14 q 64 168 64 83 l 64 1042 l 231 1042 l 231 225 q 242 147 231 167 q 293 128 254 128 l 279 -14 l 217 -14 m 378 972 l 544 972 l 544 800 l 378 800 l 378 972 m 313 -194 q 363 -175 347 -194 q 378 -108 378 -156 l 378 694 l 544 694 l 544 -154 q 503 -291 544 -246 q 369 -336 461 -336 l 326 -336 l 313 -194 z "},"ḻ":{"ha":317,"x_min":-11,"x_max":389,"o":"m 217 -14 q 102 35 140 -14 q 64 168 64 83 l 64 1042 l 231 1042 l 231 225 q 242 147 231 167 q 293 128 254 128 l 279 -14 l 217 -14 m -11 -129 l 389 -129 l 389 -236 l -11 -236 l -11 -129 z "},"ł":{"ha":329,"x_min":-14,"x_max":318,"o":"m 228 596 l 228 225 q 240 147 228 167 q 290 128 251 128 l 276 -14 l 214 -14 q 99 35 138 -14 q 61 168 61 83 l 61 549 l -14 528 l -14 649 l 61 669 l 61 1042 l 228 1042 l 228 717 l 318 742 l 318 621 l 228 596 z "},"m":{"ha":1038,"x_min":69,"x_max":972,"o":"m 744 706 q 914 637 856 706 q 972 451 972 568 l 972 0 l 806 0 l 806 429 q 783 533 806 497 q 710 569 761 569 q 631 540 658 569 q 604 451 604 510 l 604 0 l 438 0 l 438 429 q 343 569 438 569 q 236 510 278 569 l 236 0 l 69 0 l 69 694 l 211 694 l 218 639 q 381 706 282 706 q 482 682 438 706 q 551 615 526 658 q 634 682 585 658 q 744 706 683 706 z "},"ṃ":{"ha":1038,"x_min":69,"x_max":972,"o":"m 744 706 q 914 637 856 706 q 972 451 972 568 l 972 0 l 806 0 l 806 429 q 783 533 806 497 q 710 569 761 569 q 631 540 658 569 q 604 451 604 510 l 604 0 l 438 0 l 438 429 q 343 569 438 569 q 236 510 278 569 l 236 0 l 69 0 l 69 694 l 211 694 l 218 639 q 381 706 282 706 q 482 682 438 706 q 551 615 526 658 q 634 682 585 658 q 744 706 683 706 m 456 -112 l 589 -112 l 589 -247 l 456 -247 l 456 -112 z "},"n":{"ha":668,"x_min":69,"x_max":604,"o":"m 390 706 q 549 637 494 706 q 604 451 604 568 l 604 0 l 438 0 l 438 429 q 343 569 438 569 q 236 510 278 569 l 236 0 l 69 0 l 69 694 l 214 694 l 221 640 q 390 706 289 706 z "},"ń":{"ha":668,"x_min":69,"x_max":604,"o":"m 390 706 q 549 637 494 706 q 604 451 604 568 l 604 0 l 438 0 l 438 429 q 343 569 438 569 q 236 510 278 569 l 236 0 l 69 0 l 69 694 l 214 694 l 221 640 q 390 706 289 706 m 239 899 l 457 1032 l 457 872 l 239 789 l 239 899 z "},"ŉ":{"ha":885,"x_min":69,"x_max":821,"o":"m 69 685 l 129 838 l 83 838 l 83 972 l 222 972 l 222 854 l 133 685 l 69 685 m 607 706 q 766 637 711 706 q 821 451 821 568 l 821 0 l 654 0 l 654 429 q 560 569 654 569 q 453 510 494 569 l 453 0 l 286 0 l 286 694 l 431 694 l 438 640 q 607 706 506 706 z "},"ň":{"ha":668,"x_min":69,"x_max":604,"o":"m 390 706 q 549 637 494 706 q 604 451 604 568 l 604 0 l 438 0 l 438 429 q 343 569 438 569 q 236 510 278 569 l 236 0 l 69 0 l 69 694 l 214 694 l 221 640 q 390 706 289 706 m 192 900 l 192 1010 l 347 913 l 503 1010 l 503 900 l 347 769 l 192 900 z "},"ņ":{"ha":668,"x_min":69,"x_max":604,"o":"m 390 706 q 549 637 494 706 q 604 451 604 568 l 604 0 l 438 0 l 438 429 q 343 569 438 569 q 236 510 278 569 l 236 0 l 69 0 l 69 694 l 214 694 l 221 640 q 390 706 289 706 m 257 -414 l 317 -261 l 271 -261 l 271 -126 l 410 -126 l 410 -244 l 321 -414 l 257 -414 z "},"ṅ":{"ha":668,"x_min":69,"x_max":604,"o":"m 390 706 q 549 637 494 706 q 604 451 604 568 l 604 0 l 438 0 l 438 429 q 343 569 438 569 q 236 510 278 569 l 236 0 l 69 0 l 69 694 l 214 694 l 221 640 q 390 706 289 706 m 281 957 l 414 957 l 414 822 l 281 822 l 281 957 z "},"ṇ":{"ha":668,"x_min":69,"x_max":604,"o":"m 390 706 q 549 637 494 706 q 604 451 604 568 l 604 0 l 438 0 l 438 429 q 343 569 438 569 q 236 510 278 569 l 236 0 l 69 0 l 69 694 l 214 694 l 221 640 q 390 706 289 706 m 274 -112 l 407 -112 l 407 -247 l 274 -247 l 274 -112 z "},"ŋ":{"ha":682,"x_min":69,"x_max":618,"o":"m 618 14 q 546 -181 618 -114 q 356 -249 474 -249 q 243 -233 297 -249 l 261 -100 q 340 -112 301 -112 q 417 -83 389 -112 q 446 0 446 -54 l 446 429 q 424 535 446 501 q 351 569 401 569 q 236 510 281 569 l 236 0 l 69 0 l 69 694 l 214 694 l 221 640 q 399 706 304 706 q 563 634 507 706 q 618 443 618 563 l 618 14 z "},"ǌ":{"ha":957,"x_min":69,"x_max":896,"o":"m 390 706 q 549 637 494 706 q 604 451 604 568 l 604 0 l 438 0 l 438 429 q 343 569 438 569 q 236 510 278 569 l 236 0 l 69 0 l 69 694 l 214 694 l 221 640 q 390 706 289 706 m 729 972 l 896 972 l 896 800 l 729 800 l 729 972 m 664 -194 q 714 -175 699 -194 q 729 -108 729 -156 l 729 694 l 896 694 l 896 -154 q 854 -291 896 -246 q 721 -336 813 -336 l 678 -336 l 664 -194 z "},"ṉ":{"ha":668,"x_min":69,"x_max":604,"o":"m 390 706 q 549 637 494 706 q 604 451 604 568 l 604 0 l 438 0 l 438 429 q 343 569 438 569 q 236 510 278 569 l 236 0 l 69 0 l 69 694 l 214 694 l 221 640 q 390 706 289 706 m 140 -129 l 540 -129 l 540 -236 l 140 -236 l 140 -129 z "},"ñ":{"ha":668,"x_min":69,"x_max":604,"o":"m 390 706 q 549 637 494 706 q 604 451 604 568 l 604 0 l 438 0 l 438 429 q 343 569 438 569 q 236 510 278 569 l 236 0 l 69 0 l 69 694 l 214 694 l 221 640 q 390 706 289 706 m 443 789 q 396 798 417 789 q 350 824 375 807 q 317 844 331 838 q 289 850 303 850 q 260 836 271 850 q 250 800 250 822 l 138 800 q 169 925 140 882 q 251 968 199 968 q 299 959 278 968 q 344 933 319 950 q 378 913 364 919 q 406 907 392 907 q 434 921 424 907 q 444 957 444 935 l 557 957 q 525 832 554 875 q 443 789 496 789 z "},"o":{"ha":682,"x_min":33,"x_max":649,"o":"m 340 -14 q 176 35 246 -14 q 70 165 107 83 q 33 346 33 247 q 70 526 33 444 q 176 657 107 608 q 340 706 246 706 q 505 657 435 706 q 612 526 575 608 q 649 346 649 444 q 612 165 649 247 q 505 35 575 83 q 340 -14 435 -14 m 340 122 q 442 183 406 122 q 479 346 479 244 q 442 508 479 447 q 340 569 406 569 q 240 508 276 569 q 203 346 203 446 q 240 184 203 246 q 340 122 276 122 z "},"ó":{"ha":682,"x_min":33,"x_max":649,"o":"m 340 -14 q 176 35 246 -14 q 70 165 107 83 q 33 346 33 247 q 70 526 33 444 q 176 657 107 608 q 340 706 246 706 q 505 657 435 706 q 612 526 575 608 q 649 346 649 444 q 612 165 649 247 q 505 35 575 83 q 340 -14 435 -14 m 340 122 q 442 183 406 122 q 479 346 479 244 q 442 508 479 447 q 340 569 406 569 q 240 508 276 569 q 203 346 203 446 q 240 184 203 246 q 340 122 276 122 m 233 913 l 451 1046 l 451 886 l 233 803 l 233 913 z "},"ŏ":{"ha":682,"x_min":33,"x_max":649,"o":"m 340 -14 q 176 35 246 -14 q 70 165 107 83 q 33 346 33 247 q 70 526 33 444 q 176 657 107 608 q 340 706 246 706 q 505 657 435 706 q 612 526 575 608 q 649 346 649 444 q 612 165 649 247 q 505 35 575 83 q 340 -14 435 -14 m 340 122 q 442 183 406 122 q 479 346 479 244 q 442 508 479 447 q 340 569 406 569 q 240 508 276 569 q 203 346 203 446 q 240 184 203 246 q 340 122 276 122 m 342 815 q 201 867 254 815 q 149 997 149 919 l 261 997 q 282 937 261 958 q 342 915 303 915 q 401 937 381 915 q 422 997 422 958 l 535 997 q 482 867 535 919 q 342 815 429 815 z "},"ô":{"ha":682,"x_min":33,"x_max":649,"o":"m 340 -14 q 176 35 246 -14 q 70 165 107 83 q 33 346 33 247 q 70 526 33 444 q 176 657 107 608 q 340 706 246 706 q 505 657 435 706 q 612 526 575 608 q 649 346 649 444 q 612 165 649 247 q 505 35 575 83 q 340 -14 435 -14 m 340 122 q 442 183 406 122 q 479 346 479 244 q 442 508 479 447 q 340 569 406 569 q 240 508 276 569 q 203 346 203 446 q 240 184 203 246 q 340 122 276 122 m 186 893 l 342 1025 l 497 893 l 497 783 l 342 881 l 186 783 l 186 893 z "},"ố":{"ha":682,"x_min":33,"x_max":671,"o":"m 340 -14 q 176 35 246 -14 q 70 165 107 83 q 33 346 33 247 q 70 526 33 444 q 176 657 107 608 q 340 706 246 706 q 505 657 435 706 q 612 526 575 608 q 649 346 649 444 q 612 165 649 247 q 505 35 575 83 q 340 -14 435 -14 m 340 122 q 442 183 406 122 q 479 346 479 244 q 442 508 479 447 q 340 569 406 569 q 240 508 276 569 q 203 346 203 446 q 240 184 203 246 q 340 122 276 122 m 517 1147 l 671 1147 l 543 971 l 439 971 l 517 1147 m 511 874 l 511 771 l 342 863 l 172 771 l 172 874 l 342 993 l 511 874 z "},"ộ":{"ha":682,"x_min":33,"x_max":649,"o":"m 340 -14 q 176 35 246 -14 q 70 165 107 83 q 33 346 33 247 q 70 526 33 444 q 176 657 107 608 q 340 706 246 706 q 505 657 435 706 q 612 526 575 608 q 649 346 649 444 q 612 165 649 247 q 505 35 575 83 q 340 -14 435 -14 m 340 122 q 442 183 406 122 q 479 346 479 244 q 442 508 479 447 q 340 569 406 569 q 240 508 276 569 q 203 346 203 446 q 240 184 203 246 q 340 122 276 122 m 186 893 l 342 1025 l 497 893 l 497 783 l 342 881 l 186 783 l 186 893 m 275 -112 l 408 -112 l 408 -247 l 275 -247 l 275 -112 z "},"ồ":{"ha":682,"x_min":33,"x_max":649,"o":"m 340 -14 q 176 35 246 -14 q 70 165 107 83 q 33 346 33 247 q 70 526 33 444 q 176 657 107 608 q 340 706 246 706 q 505 657 435 706 q 612 526 575 608 q 649 346 649 444 q 612 165 649 247 q 505 35 575 83 q 340 -14 435 -14 m 340 122 q 442 183 406 122 q 479 346 479 244 q 442 508 479 447 q 340 569 406 569 q 240 508 276 569 q 203 346 203 446 q 240 184 203 246 q 340 122 276 122 m 478 971 l 378 1147 l 521 1147 l 578 971 l 478 971 m 511 874 l 511 771 l 342 863 l 172 771 l 172 874 l 342 993 l 511 874 z "},"ổ":{"ha":682,"x_min":33,"x_max":649,"o":"m 340 -14 q 176 35 246 -14 q 70 165 107 83 q 33 346 33 247 q 70 526 33 444 q 176 657 107 608 q 340 706 246 706 q 505 657 435 706 q 612 526 575 608 q 649 346 649 444 q 612 165 649 247 q 505 35 575 83 q 340 -14 435 -14 m 340 122 q 442 183 406 122 q 479 346 479 244 q 442 508 479 447 q 340 569 406 569 q 240 508 276 569 q 203 346 203 446 q 240 184 203 246 q 340 122 276 122 m 511 860 l 511 757 l 342 849 l 172 757 l 172 860 l 342 979 l 511 860 m 460 1000 q 492 1017 482 1007 q 503 1047 503 1028 q 457 1086 503 1086 q 389 1067 428 1086 l 365 1151 q 465 1171 413 1171 q 556 1142 521 1171 q 592 1064 592 1114 q 563 988 592 1017 q 475 939 535 958 l 460 1000 z "},"ỗ":{"ha":682,"x_min":33,"x_max":649,"o":"m 340 -14 q 176 35 246 -14 q 70 165 107 83 q 33 346 33 247 q 70 526 33 444 q 176 657 107 608 q 340 706 246 706 q 505 657 435 706 q 612 526 575 608 q 649 346 649 444 q 612 165 649 247 q 505 35 575 83 q 340 -14 435 -14 m 340 122 q 442 183 406 122 q 479 346 479 244 q 442 508 479 447 q 340 569 406 569 q 240 508 276 569 q 203 346 203 446 q 240 184 203 246 q 340 122 276 122 m 511 860 l 511 757 l 342 849 l 172 757 l 172 860 l 342 979 l 511 860 m 449 1029 q 406 1036 426 1029 q 350 1060 385 1043 q 311 1077 331 1069 q 276 1085 292 1085 q 236 1039 236 1085 l 131 1039 q 235 1185 131 1185 q 278 1178 257 1185 q 333 1154 299 1171 q 372 1137 353 1144 q 407 1129 392 1129 q 447 1175 447 1129 l 553 1175 q 449 1029 553 1029 z "},"ȍ":{"ha":682,"x_min":33,"x_max":649,"o":"m 340 -14 q 176 35 246 -14 q 70 165 107 83 q 33 346 33 247 q 70 526 33 444 q 176 657 107 608 q 340 706 246 706 q 505 657 435 706 q 612 526 575 608 q 649 346 649 444 q 612 165 649 247 q 505 35 575 83 q 340 -14 435 -14 m 340 122 q 442 183 406 122 q 479 346 479 244 q 442 508 479 447 q 340 569 406 569 q 240 508 276 569 q 203 346 203 446 q 240 184 203 246 q 340 122 276 122 m 210 817 l 79 1063 l 231 1063 l 311 817 l 210 817 m 407 817 l 288 1063 l 438 1063 l 507 817 l 407 817 z "},"ö":{"ha":682,"x_min":33,"x_max":649,"o":"m 340 -14 q 176 35 246 -14 q 70 165 107 83 q 33 346 33 247 q 70 526 33 444 q 176 657 107 608 q 340 706 246 706 q 505 657 435 706 q 612 526 575 608 q 649 346 649 444 q 612 165 649 247 q 505 35 575 83 q 340 -14 435 -14 m 340 122 q 442 183 406 122 q 479 346 479 244 q 442 508 479 447 q 340 569 406 569 q 240 508 276 569 q 203 346 203 446 q 240 184 203 246 q 340 122 276 122 m 163 946 l 290 946 l 290 821 l 163 821 l 163 946 m 393 946 l 521 946 l 521 821 l 393 821 l 393 946 z "},"ȫ":{"ha":682,"x_min":33,"x_max":649,"o":"m 340 -14 q 176 35 246 -14 q 70 165 107 83 q 33 346 33 247 q 70 526 33 444 q 176 657 107 608 q 340 706 246 706 q 505 657 435 706 q 612 526 575 608 q 649 346 649 444 q 612 165 649 247 q 505 35 575 83 q 340 -14 435 -14 m 340 122 q 442 183 406 122 q 479 346 479 244 q 442 508 479 447 q 340 569 406 569 q 240 508 276 569 q 203 346 203 446 q 240 184 203 246 q 340 122 276 122 m 163 929 l 290 929 l 290 810 l 163 810 l 163 929 m 393 929 l 521 929 l 521 810 l 393 810 l 393 929 m 128 1132 l 556 1132 l 556 1032 l 128 1032 l 128 1132 z "},"ȱ":{"ha":682,"x_min":33,"x_max":649,"o":"m 340 -14 q 176 35 246 -14 q 70 165 107 83 q 33 346 33 247 q 70 526 33 444 q 176 657 107 608 q 340 706 246 706 q 505 657 435 706 q 612 526 575 608 q 649 346 649 444 q 612 165 649 247 q 505 35 575 83 q 340 -14 435 -14 m 340 122 q 442 183 406 122 q 479 346 479 244 q 442 508 479 447 q 340 569 406 569 q 240 508 276 569 q 203 346 203 446 q 240 184 203 246 q 340 122 276 122 m 272 957 l 411 957 l 411 822 l 272 822 l 272 957 m 128 1174 l 556 1174 l 556 1074 l 128 1074 l 128 1174 z "},"ọ":{"ha":682,"x_min":33,"x_max":649,"o":"m 340 -14 q 176 35 246 -14 q 70 165 107 83 q 33 346 33 247 q 70 526 33 444 q 176 657 107 608 q 340 706 246 706 q 505 657 435 706 q 612 526 575 608 q 649 346 649 444 q 612 165 649 247 q 505 35 575 83 q 340 -14 435 -14 m 340 122 q 442 183 406 122 q 479 346 479 244 q 442 508 479 447 q 340 569 406 569 q 240 508 276 569 q 203 346 203 446 q 240 184 203 246 q 340 122 276 122 m 275 -112 l 408 -112 l 408 -247 l 275 -247 l 275 -112 z "},"ò":{"ha":682,"x_min":33,"x_max":649,"o":"m 340 -14 q 176 35 246 -14 q 70 165 107 83 q 33 346 33 247 q 70 526 33 444 q 176 657 107 608 q 340 706 246 706 q 505 657 435 706 q 612 526 575 608 q 649 346 649 444 q 612 165 649 247 q 505 35 575 83 q 340 -14 435 -14 m 340 122 q 442 183 406 122 q 479 346 479 244 q 442 508 479 447 q 340 569 406 569 q 240 508 276 569 q 203 346 203 446 q 240 184 203 246 q 340 122 276 122 m 232 889 l 232 1054 l 450 915 l 450 800 l 232 889 z "},"ỏ":{"ha":682,"x_min":33,"x_max":649,"o":"m 340 -14 q 176 35 246 -14 q 70 165 107 83 q 33 346 33 247 q 70 526 33 444 q 176 657 107 608 q 340 706 246 706 q 505 657 435 706 q 612 526 575 608 q 649 346 649 444 q 612 165 649 247 q 505 35 575 83 q 340 -14 435 -14 m 340 122 q 442 183 406 122 q 479 346 479 244 q 442 508 479 447 q 340 569 406 569 q 240 508 276 569 q 203 346 203 446 q 240 184 203 246 q 340 122 276 122 m 313 793 q 351 840 339 821 q 363 882 363 858 q 314 928 363 928 q 249 907 283 928 l 225 989 q 319 1010 271 1010 q 410 977 375 1010 q 446 888 446 944 q 426 811 446 844 q 364 742 406 778 l 313 793 z "},"ơ":{"ha":682,"x_min":33,"x_max":649,"o":"m 550 618 q 623 497 597 568 q 649 346 649 426 q 612 165 649 247 q 505 35 575 83 q 340 -14 435 -14 q 176 35 246 -14 q 70 165 107 83 q 33 346 33 247 q 70 526 33 444 q 176 657 107 608 q 340 706 246 706 q 421 694 381 706 q 506 797 506 703 l 646 797 q 550 618 646 676 m 340 122 q 442 183 406 122 q 479 346 479 244 q 442 508 479 447 q 340 569 406 569 q 240 508 276 569 q 203 346 203 446 q 240 184 203 246 q 340 122 276 122 z "},"ớ":{"ha":682,"x_min":33,"x_max":649,"o":"m 550 618 q 623 497 597 568 q 649 346 649 426 q 612 165 649 247 q 505 35 575 83 q 340 -14 435 -14 q 176 35 246 -14 q 70 165 107 83 q 33 346 33 247 q 70 526 33 444 q 176 657 107 608 q 340 706 246 706 q 421 694 381 706 q 506 797 506 703 l 646 797 q 550 618 646 676 m 340 122 q 442 183 406 122 q 479 346 479 244 q 442 508 479 447 q 340 569 406 569 q 240 508 276 569 q 203 346 203 446 q 240 184 203 246 q 340 122 276 122 m 233 913 l 451 1046 l 451 886 l 233 803 l 233 913 z "},"ợ":{"ha":682,"x_min":33,"x_max":649,"o":"m 550 618 q 623 497 597 568 q 649 346 649 426 q 612 165 649 247 q 505 35 575 83 q 340 -14 435 -14 q 176 35 246 -14 q 70 165 107 83 q 33 346 33 247 q 70 526 33 444 q 176 657 107 608 q 340 706 246 706 q 421 694 381 706 q 506 797 506 703 l 646 797 q 550 618 646 676 m 340 122 q 442 183 406 122 q 479 346 479 244 q 442 508 479 447 q 340 569 406 569 q 240 508 276 569 q 203 346 203 446 q 240 184 203 246 q 340 122 276 122 m 275 -112 l 408 -112 l 408 -247 l 275 -247 l 275 -112 z "},"ờ":{"ha":682,"x_min":33,"x_max":649,"o":"m 550 618 q 623 497 597 568 q 649 346 649 426 q 612 165 649 247 q 505 35 575 83 q 340 -14 435 -14 q 176 35 246 -14 q 70 165 107 83 q 33 346 33 247 q 70 526 33 444 q 176 657 107 608 q 340 706 246 706 q 421 694 381 706 q 506 797 506 703 l 646 797 q 550 618 646 676 m 340 122 q 442 183 406 122 q 479 346 479 244 q 442 508 479 447 q 340 569 406 569 q 240 508 276 569 q 203 346 203 446 q 240 184 203 246 q 340 122 276 122 m 232 889 l 232 1054 l 450 915 l 450 800 l 232 889 z "},"ở":{"ha":682,"x_min":33,"x_max":649,"o":"m 550 618 q 623 497 597 568 q 649 346 649 426 q 612 165 649 247 q 505 35 575 83 q 340 -14 435 -14 q 176 35 246 -14 q 70 165 107 83 q 33 346 33 247 q 70 526 33 444 q 176 657 107 608 q 340 706 246 706 q 421 694 381 706 q 506 797 506 703 l 646 797 q 550 618 646 676 m 340 122 q 442 183 406 122 q 479 346 479 244 q 442 508 479 447 q 340 569 406 569 q 240 508 276 569 q 203 346 203 446 q 240 184 203 246 q 340 122 276 122 m 313 793 q 351 840 339 821 q 363 882 363 858 q 314 928 363 928 q 249 907 283 928 l 225 989 q 319 1010 271 1010 q 410 977 375 1010 q 446 888 446 944 q 426 811 446 844 q 364 742 406 778 l 313 793 z "},"ỡ":{"ha":682,"x_min":33,"x_max":649,"o":"m 550 618 q 623 497 597 568 q 649 346 649 426 q 612 165 649 247 q 505 35 575 83 q 340 -14 435 -14 q 176 35 246 -14 q 70 165 107 83 q 33 346 33 247 q 70 526 33 444 q 176 657 107 608 q 340 706 246 706 q 421 694 381 706 q 506 797 506 703 l 646 797 q 550 618 646 676 m 340 122 q 442 183 406 122 q 479 346 479 244 q 442 508 479 447 q 340 569 406 569 q 240 508 276 569 q 203 346 203 446 q 240 184 203 246 q 340 122 276 122 m 438 803 q 390 812 411 803 q 344 838 369 821 q 311 858 325 851 q 283 864 297 864 q 255 850 265 864 q 244 814 244 836 l 132 814 q 164 939 135 896 q 246 982 193 982 q 293 973 272 982 q 339 947 314 964 q 372 927 358 933 q 400 921 386 921 q 428 935 418 921 q 439 971 439 949 l 551 971 q 519 846 549 889 q 438 803 490 803 z "},"ő":{"ha":682,"x_min":33,"x_max":649,"o":"m 340 -14 q 176 35 246 -14 q 70 165 107 83 q 33 346 33 247 q 70 526 33 444 q 176 657 107 608 q 340 706 246 706 q 505 657 435 706 q 612 526 575 608 q 649 346 649 444 q 612 165 649 247 q 505 35 575 83 q 340 -14 435 -14 m 340 122 q 442 183 406 122 q 479 346 479 244 q 442 508 479 447 q 340 569 406 569 q 240 508 276 569 q 203 346 203 446 q 240 184 203 246 q 340 122 276 122 m 265 1063 l 417 1063 l 289 817 l 188 817 l 265 1063 m 481 1063 l 632 1063 l 493 817 l 392 817 l 481 1063 z "},"ȏ":{"ha":682,"x_min":33,"x_max":649,"o":"m 340 -14 q 176 35 246 -14 q 70 165 107 83 q 33 346 33 247 q 70 526 33 444 q 176 657 107 608 q 340 706 246 706 q 505 657 435 706 q 612 526 575 608 q 649 346 649 444 q 612 165 649 247 q 505 35 575 83 q 340 -14 435 -14 m 340 122 q 442 183 406 122 q 479 346 479 244 q 442 508 479 447 q 340 569 406 569 q 240 508 276 569 q 203 346 203 446 q 240 184 203 246 q 340 122 276 122 m 342 994 q 492 943 436 994 q 549 815 549 892 l 431 815 q 407 871 431 851 q 342 890 383 890 q 276 871 300 890 q 253 815 253 851 l 135 815 q 192 943 135 892 q 342 994 249 994 z "},"ō":{"ha":682,"x_min":33,"x_max":649,"o":"m 340 -14 q 176 35 246 -14 q 70 165 107 83 q 33 346 33 247 q 70 526 33 444 q 176 657 107 608 q 340 706 246 706 q 505 657 435 706 q 612 526 575 608 q 649 346 649 444 q 612 165 649 247 q 505 35 575 83 q 340 -14 435 -14 m 340 122 q 442 183 406 122 q 479 346 479 244 q 442 508 479 447 q 340 569 406 569 q 240 508 276 569 q 203 346 203 446 q 240 184 203 246 q 340 122 276 122 m 142 944 l 542 944 l 542 838 l 142 838 l 142 944 z "},"ṓ":{"ha":682,"x_min":33,"x_max":649,"o":"m 340 -14 q 176 35 246 -14 q 70 165 107 83 q 33 346 33 247 q 70 526 33 444 q 176 657 107 608 q 340 706 246 706 q 505 657 435 706 q 612 526 575 608 q 649 346 649 444 q 612 165 649 247 q 505 35 575 83 q 340 -14 435 -14 m 340 122 q 442 183 406 122 q 479 346 479 244 q 442 508 479 447 q 340 569 406 569 q 240 508 276 569 q 203 346 203 446 q 240 184 203 246 q 340 122 276 122 m 128 924 l 556 924 l 556 824 l 128 824 l 128 924 m 233 1111 l 451 1222 l 451 1079 l 233 1015 l 233 1111 z "},"ṑ":{"ha":682,"x_min":33,"x_max":649,"o":"m 340 -14 q 176 35 246 -14 q 70 165 107 83 q 33 346 33 247 q 70 526 33 444 q 176 657 107 608 q 340 706 246 706 q 505 657 435 706 q 612 526 575 608 q 649 346 649 444 q 612 165 649 247 q 505 35 575 83 q 340 -14 435 -14 m 340 122 q 442 183 406 122 q 479 346 479 244 q 442 508 479 447 q 340 569 406 569 q 240 508 276 569 q 203 346 203 446 q 240 184 203 246 q 340 122 276 122 m 128 924 l 556 924 l 556 824 l 128 824 l 128 924 m 232 1079 l 232 1222 l 450 1111 l 450 1015 l 232 1079 z "},"ǫ":{"ha":682,"x_min":33,"x_max":649,"o":"m 404 -7 q 342 -79 364 -46 q 319 -144 319 -112 q 337 -192 319 -176 q 385 -208 354 -208 q 456 -192 418 -208 l 479 -268 q 369 -293 432 -293 q 269 -262 308 -293 q 231 -174 231 -231 q 252 -92 231 -129 q 314 -12 274 -54 q 164 44 228 -6 q 67 174 100 94 q 33 346 33 253 q 70 526 33 444 q 176 657 107 608 q 340 706 246 706 q 505 657 435 706 q 612 526 575 608 q 649 346 649 444 q 583 115 649 213 q 404 -7 518 17 m 203 346 q 240 184 203 246 q 340 122 276 122 q 442 183 406 122 q 479 346 479 244 q 442 508 479 447 q 340 569 406 569 q 240 508 276 569 q 203 346 203 446 z "},"ø":{"ha":682,"x_min":33,"x_max":649,"o":"m 556 613 q 625 494 601 563 q 649 346 649 425 q 612 165 649 247 q 505 35 575 83 q 340 -14 435 -14 q 207 17 268 -14 l 164 -56 l 53 -56 l 129 75 q 58 195 82 125 q 33 346 33 265 q 70 526 33 444 q 176 657 107 608 q 340 706 246 706 q 481 672 417 706 l 518 736 l 629 736 l 556 613 m 203 346 q 219 228 203 278 l 407 547 q 340 569 378 569 q 240 508 276 569 q 203 346 203 446 m 340 122 q 442 183 406 122 q 479 346 479 244 q 465 457 479 404 l 279 140 q 340 122 308 122 z "},"ǿ":{"ha":682,"x_min":33,"x_max":649,"o":"m 556 613 q 625 494 601 563 q 649 346 649 425 q 612 165 649 247 q 505 35 575 83 q 340 -14 435 -14 q 207 17 268 -14 l 164 -56 l 53 -56 l 129 75 q 58 195 82 125 q 33 346 33 265 q 70 526 33 444 q 176 657 107 608 q 340 706 246 706 q 481 672 417 706 l 518 736 l 629 736 l 556 613 m 203 346 q 219 228 203 278 l 407 547 q 340 569 378 569 q 240 508 276 569 q 203 346 203 446 m 340 122 q 442 183 406 122 q 479 346 479 244 q 465 457 479 404 l 279 140 q 340 122 308 122 m 233 913 l 451 1046 l 451 886 l 233 803 l 233 913 z "},"õ":{"ha":682,"x_min":33,"x_max":649,"o":"m 340 -14 q 176 35 246 -14 q 70 165 107 83 q 33 346 33 247 q 70 526 33 444 q 176 657 107 608 q 340 706 246 706 q 505 657 435 706 q 612 526 575 608 q 649 346 649 444 q 612 165 649 247 q 505 35 575 83 q 340 -14 435 -14 m 340 122 q 442 183 406 122 q 479 346 479 244 q 442 508 479 447 q 340 569 406 569 q 240 508 276 569 q 203 346 203 446 q 240 184 203 246 q 340 122 276 122 m 438 803 q 390 812 411 803 q 344 838 369 821 q 311 858 325 851 q 283 864 297 864 q 255 850 265 864 q 244 814 244 836 l 132 814 q 164 939 135 896 q 246 982 193 982 q 293 973 272 982 q 339 947 314 964 q 372 927 358 933 q 400 921 386 921 q 428 935 418 921 q 439 971 439 949 l 551 971 q 519 846 549 889 q 438 803 490 803 z "},"ṍ":{"ha":682,"x_min":33,"x_max":649,"o":"m 340 -14 q 176 35 246 -14 q 70 165 107 83 q 33 346 33 247 q 70 526 33 444 q 176 657 107 608 q 340 706 246 706 q 505 657 435 706 q 612 526 575 608 q 649 346 649 444 q 612 165 649 247 q 505 35 575 83 q 340 -14 435 -14 m 340 122 q 442 183 406 122 q 479 346 479 244 q 442 508 479 447 q 340 569 406 569 q 240 508 276 569 q 203 346 203 446 q 240 184 203 246 q 340 122 276 122 m 449 801 q 406 808 426 801 q 350 832 385 815 q 311 849 331 842 q 276 857 292 857 q 236 811 236 857 l 131 811 q 235 957 131 957 q 278 950 257 957 q 333 926 299 943 q 372 909 353 917 q 407 901 392 901 q 447 947 447 901 l 553 947 q 449 801 553 801 m 233 1100 l 451 1211 l 451 1068 l 233 1004 l 233 1100 z "},"ṏ":{"ha":682,"x_min":33,"x_max":649,"o":"m 340 -14 q 176 35 246 -14 q 70 165 107 83 q 33 346 33 247 q 70 526 33 444 q 176 657 107 608 q 340 706 246 706 q 505 657 435 706 q 612 526 575 608 q 649 346 649 444 q 612 165 649 247 q 505 35 575 83 q 340 -14 435 -14 m 340 122 q 442 183 406 122 q 479 346 479 244 q 442 508 479 447 q 340 569 406 569 q 240 508 276 569 q 203 346 203 446 q 240 184 203 246 q 340 122 276 122 m 449 801 q 406 808 426 801 q 350 832 385 815 q 311 849 331 842 q 276 857 292 857 q 236 811 236 857 l 131 811 q 235 957 131 957 q 278 950 257 957 q 333 926 299 943 q 372 909 353 917 q 407 901 392 901 q 447 947 447 901 l 553 947 q 449 801 553 801 m 163 1157 l 290 1157 l 290 1038 l 163 1038 l 163 1157 m 393 1157 l 521 1157 l 521 1038 l 393 1038 l 393 1157 z "},"ȭ":{"ha":682,"x_min":33,"x_max":649,"o":"m 340 -14 q 176 35 246 -14 q 70 165 107 83 q 33 346 33 247 q 70 526 33 444 q 176 657 107 608 q 340 706 246 706 q 505 657 435 706 q 612 526 575 608 q 649 346 649 444 q 612 165 649 247 q 505 35 575 83 q 340 -14 435 -14 m 340 122 q 442 183 406 122 q 479 346 479 244 q 442 508 479 447 q 340 569 406 569 q 240 508 276 569 q 203 346 203 446 q 240 184 203 246 q 340 122 276 122 m 449 801 q 406 808 426 801 q 350 832 385 815 q 311 849 331 842 q 276 857 292 857 q 236 811 236 857 l 131 811 q 235 957 131 957 q 278 950 257 957 q 333 926 299 943 q 372 909 353 917 q 407 901 392 901 q 447 947 447 901 l 553 947 q 449 801 553 801 m 128 1151 l 556 1151 l 556 1051 l 128 1051 l 128 1151 z "},"œ":{"ha":1072,"x_min":33,"x_max":1038,"o":"m 1038 414 q 1026 310 1038 368 l 653 310 q 708 172 663 215 q 831 128 753 128 q 1007 185 924 128 l 1011 39 q 922 1 974 15 q 810 -14 869 -14 q 565 110 650 -14 q 468 19 525 51 q 340 -14 411 -14 q 176 35 246 -14 q 70 165 107 83 q 33 346 33 247 q 70 526 33 444 q 176 657 107 608 q 340 706 246 706 q 467 674 410 706 q 564 585 524 642 q 662 674 604 642 q 793 706 719 706 q 973 627 908 706 q 1038 414 1038 549 m 340 128 q 441 188 404 128 q 478 346 478 247 q 441 504 478 444 q 340 564 404 564 q 240 504 276 564 q 203 346 203 444 q 240 188 203 247 q 340 128 276 128 m 869 426 q 848 524 869 483 q 778 564 826 564 q 695 527 726 564 q 654 426 664 490 l 869 426 z "},"p":{"ha":685,"x_min":63,"x_max":657,"o":"m 389 706 q 534 657 474 706 q 626 526 594 608 q 657 346 657 444 q 626 165 657 247 q 534 35 594 83 q 389 -14 474 -14 q 299 -2 336 -14 q 229 36 263 10 l 229 -336 l 63 -336 l 63 694 l 196 694 l 214 631 q 293 686 251 667 q 389 706 335 706 m 357 122 q 453 184 418 122 q 488 346 488 246 q 453 508 488 446 q 357 569 418 569 q 255 509 289 569 q 221 346 221 449 q 255 183 221 243 q 357 122 289 122 z "},"þ":{"ha":686,"x_min":64,"x_max":658,"o":"m 390 706 q 535 657 475 706 q 627 526 596 608 q 658 346 658 444 q 627 165 658 247 q 535 35 596 83 q 390 -14 475 -14 q 301 -2 338 -14 q 231 36 264 10 l 231 -336 l 64 -336 l 64 1042 l 231 1042 l 231 644 q 390 706 299 706 m 358 122 q 454 184 419 122 q 489 346 489 246 q 454 508 489 446 q 358 569 419 569 q 256 509 290 569 q 222 346 222 449 q 256 183 222 243 q 358 122 290 122 z "},"q":{"ha":685,"x_min":63,"x_max":657,"o":"m 657 694 l 657 -336 l 490 -336 l 490 33 q 338 -14 428 -14 q 189 35 251 -14 q 94 165 126 83 q 63 346 63 247 q 94 526 63 444 q 189 657 126 608 q 338 706 251 706 q 510 635 439 706 l 531 694 l 657 694 m 363 122 q 465 183 431 122 q 499 346 499 243 q 465 509 499 449 q 363 569 431 569 q 267 508 301 569 q 232 346 232 447 q 267 183 232 244 q 363 122 301 122 z "},"r":{"ha":399,"x_min":63,"x_max":408,"o":"m 63 694 l 208 694 l 219 621 q 292 685 258 664 q 372 706 326 706 q 408 701 392 706 l 396 533 q 351 540 375 540 q 292 525 318 540 q 229 474 265 510 l 229 0 l 63 0 l 63 694 z "},"ŕ":{"ha":399,"x_min":63,"x_max":408,"o":"m 63 694 l 208 694 l 219 621 q 292 685 258 664 q 372 706 326 706 q 408 701 392 706 l 396 533 q 351 540 375 540 q 292 525 318 540 q 229 474 265 510 l 229 0 l 63 0 l 63 694 m 136 913 l 354 1046 l 354 886 l 136 803 l 136 913 z "},"ř":{"ha":399,"x_min":63,"x_max":408,"o":"m 63 694 l 208 694 l 219 621 q 292 685 258 664 q 372 706 326 706 q 408 701 392 706 l 396 533 q 351 540 375 540 q 292 525 318 540 q 229 474 265 510 l 229 0 l 63 0 l 63 694 m 89 914 l 89 1024 l 244 926 l 400 1024 l 400 914 l 244 783 l 89 914 z "},"ŗ":{"ha":399,"x_min":63,"x_max":408,"o":"m 63 694 l 208 694 l 219 621 q 292 685 258 664 q 372 706 326 706 q 408 701 392 706 l 396 533 q 351 540 375 540 q 292 525 318 540 q 229 474 265 510 l 229 0 l 63 0 l 63 694 m 63 -414 l 122 -261 l 76 -261 l 76 -126 l 215 -126 l 215 -244 l 126 -414 l 63 -414 z "},"ȑ":{"ha":399,"x_min":-18,"x_max":410,"o":"m 63 694 l 208 694 l 219 621 q 292 685 258 664 q 372 706 326 706 q 408 701 392 706 l 396 533 q 351 540 375 540 q 292 525 318 540 q 229 474 265 510 l 229 0 l 63 0 l 63 694 m 113 817 l -18 1063 l 133 1063 l 214 817 l 113 817 m 310 817 l 190 1063 l 340 1063 l 410 817 l 310 817 z "},"ṛ":{"ha":399,"x_min":63,"x_max":408,"o":"m 63 694 l 208 694 l 219 621 q 292 685 258 664 q 372 706 326 706 q 408 701 392 706 l 396 533 q 351 540 375 540 q 292 525 318 540 q 229 474 265 510 l 229 0 l 63 0 l 63 694 m 79 -112 l 213 -112 l 213 -247 l 79 -247 l 79 -112 z "},"ȓ":{"ha":399,"x_min":38,"x_max":451,"o":"m 63 694 l 208 694 l 219 621 q 292 685 258 664 q 372 706 326 706 q 408 701 392 706 l 396 533 q 351 540 375 540 q 292 525 318 540 q 229 474 265 510 l 229 0 l 63 0 l 63 694 m 244 994 q 395 943 339 994 q 451 815 451 892 l 333 815 q 310 871 333 851 q 244 890 286 890 q 179 871 203 890 q 156 815 156 851 l 38 815 q 94 943 38 892 q 244 994 151 994 z "},"ṟ":{"ha":399,"x_min":-54,"x_max":408,"o":"m 63 694 l 208 694 l 219 621 q 292 685 258 664 q 372 706 326 706 q 408 701 392 706 l 396 533 q 351 540 375 540 q 292 525 318 540 q 229 474 265 510 l 229 0 l 63 0 l 63 694 m -54 -129 l 346 -129 l 346 -236 l -54 -236 l -54 -129 z "},"s":{"ha":513,"x_min":40,"x_max":482,"o":"m 239 -14 q 135 -2 182 -14 q 40 35 89 10 l 56 182 q 226 115 153 115 q 299 133 274 115 q 324 183 324 151 q 301 238 324 217 q 211 292 278 260 q 83 380 122 335 q 43 504 43 425 q 107 650 43 594 q 279 706 171 706 q 461 654 376 706 l 446 511 q 369 564 406 546 q 290 582 332 582 q 226 565 250 582 q 201 515 201 547 q 227 463 201 483 q 331 403 253 443 q 445 315 408 363 q 482 190 482 267 q 416 41 482 96 q 239 -14 350 -14 z "},"ś":{"ha":513,"x_min":40,"x_max":482,"o":"m 239 -14 q 135 -2 182 -14 q 40 35 89 10 l 56 182 q 226 115 153 115 q 299 133 274 115 q 324 183 324 151 q 301 238 324 217 q 211 292 278 260 q 83 380 122 335 q 43 504 43 425 q 107 650 43 594 q 279 706 171 706 q 461 654 376 706 l 446 511 q 369 564 406 546 q 290 582 332 582 q 226 565 250 582 q 201 515 201 547 q 227 463 201 483 q 331 403 253 443 q 445 315 408 363 q 482 190 482 267 q 416 41 482 96 q 239 -14 350 -14 m 167 913 l 385 1046 l 385 886 l 167 803 l 167 913 z "},"ṥ":{"ha":513,"x_min":40,"x_max":482,"o":"m 239 -14 q 135 -2 182 -14 q 40 35 89 10 l 56 182 q 226 115 153 115 q 299 133 274 115 q 324 183 324 151 q 301 238 324 217 q 211 292 278 260 q 83 380 122 335 q 43 504 43 425 q 107 650 43 594 q 279 706 171 706 q 461 654 376 706 l 446 511 q 369 564 406 546 q 290 582 332 582 q 226 565 250 582 q 201 515 201 547 q 227 463 201 483 q 331 403 253 443 q 445 315 408 363 q 482 190 482 267 q 416 41 482 96 q 239 -14 350 -14 m 167 872 l 385 983 l 385 840 l 167 776 l 167 872 m 206 1182 l 344 1182 l 344 1047 l 206 1047 l 206 1182 z "},"š":{"ha":513,"x_min":40,"x_max":482,"o":"m 239 -14 q 135 -2 182 -14 q 40 35 89 10 l 56 182 q 226 115 153 115 q 299 133 274 115 q 324 183 324 151 q 301 238 324 217 q 211 292 278 260 q 83 380 122 335 q 43 504 43 425 q 107 650 43 594 q 279 706 171 706 q 461 654 376 706 l 446 511 q 369 564 406 546 q 290 582 332 582 q 226 565 250 582 q 201 515 201 547 q 227 463 201 483 q 331 403 253 443 q 445 315 408 363 q 482 190 482 267 q 416 41 482 96 q 239 -14 350 -14 m 119 914 l 119 1024 l 275 926 l 431 1024 l 431 914 l 275 783 l 119 914 z "},"ṧ":{"ha":513,"x_min":40,"x_max":482,"o":"m 239 -14 q 135 -2 182 -14 q 40 35 89 10 l 56 182 q 226 115 153 115 q 299 133 274 115 q 324 183 324 151 q 301 238 324 217 q 211 292 278 260 q 83 380 122 335 q 43 504 43 425 q 107 650 43 594 q 279 706 171 706 q 461 654 376 706 l 446 511 q 369 564 406 546 q 290 582 332 582 q 226 565 250 582 q 201 515 201 547 q 227 463 201 483 q 331 403 253 443 q 445 315 408 363 q 482 190 482 267 q 416 41 482 96 q 239 -14 350 -14 m 106 925 l 106 1028 l 275 936 l 444 1028 l 444 925 l 275 806 l 106 925 m 206 1215 l 344 1215 l 344 1081 l 206 1081 l 206 1215 z "},"ş":{"ha":513,"x_min":40,"x_max":482,"o":"m 482 190 q 431 56 482 108 q 294 -10 381 3 l 274 -79 q 356 -111 326 -81 q 385 -196 385 -142 q 344 -297 385 -261 q 240 -332 304 -332 q 140 -314 186 -332 l 167 -237 q 236 -253 206 -253 q 284 -239 267 -253 q 301 -200 301 -225 q 242 -147 301 -147 q 186 -157 218 -147 l 222 -14 q 129 0 172 -12 q 40 35 86 13 l 56 182 q 226 115 153 115 q 299 133 274 115 q 324 183 324 151 q 301 238 324 217 q 211 292 278 260 q 83 380 122 335 q 43 504 43 425 q 107 650 43 594 q 279 706 171 706 q 461 654 376 706 l 446 511 q 369 564 406 546 q 290 582 332 582 q 226 565 250 582 q 201 515 201 547 q 227 463 201 483 q 331 403 253 443 q 445 315 408 363 q 482 190 482 267 z "},"ŝ":{"ha":513,"x_min":40,"x_max":482,"o":"m 239 -14 q 135 -2 182 -14 q 40 35 89 10 l 56 182 q 226 115 153 115 q 299 133 274 115 q 324 183 324 151 q 301 238 324 217 q 211 292 278 260 q 83 380 122 335 q 43 504 43 425 q 107 650 43 594 q 279 706 171 706 q 461 654 376 706 l 446 511 q 369 564 406 546 q 290 582 332 582 q 226 565 250 582 q 201 515 201 547 q 227 463 201 483 q 331 403 253 443 q 445 315 408 363 q 482 190 482 267 q 416 41 482 96 q 239 -14 350 -14 m 119 893 l 275 1025 l 431 893 l 431 783 l 275 881 l 119 783 l 119 893 z "},"ș":{"ha":513,"x_min":40,"x_max":482,"o":"m 239 -14 q 135 -2 182 -14 q 40 35 89 10 l 56 182 q 226 115 153 115 q 299 133 274 115 q 324 183 324 151 q 301 238 324 217 q 211 292 278 260 q 83 380 122 335 q 43 504 43 425 q 107 650 43 594 q 279 706 171 706 q 461 654 376 706 l 446 511 q 369 564 406 546 q 290 582 332 582 q 226 565 250 582 q 201 515 201 547 q 227 463 201 483 q 331 403 253 443 q 445 315 408 363 q 482 190 482 267 q 416 41 482 96 q 239 -14 350 -14 m 163 -414 l 222 -261 l 176 -261 l 176 -126 l 315 -126 l 315 -244 l 226 -414 l 163 -414 z "},"ṡ":{"ha":513,"x_min":40,"x_max":482,"o":"m 239 -14 q 135 -2 182 -14 q 40 35 89 10 l 56 182 q 226 115 153 115 q 299 133 274 115 q 324 183 324 151 q 301 238 324 217 q 211 292 278 260 q 83 380 122 335 q 43 504 43 425 q 107 650 43 594 q 279 706 171 706 q 461 654 376 706 l 446 511 q 369 564 406 546 q 290 582 332 582 q 226 565 250 582 q 201 515 201 547 q 227 463 201 483 q 331 403 253 443 q 445 315 408 363 q 482 190 482 267 q 416 41 482 96 q 239 -14 350 -14 m 208 971 l 342 971 l 342 836 l 208 836 l 208 971 z "},"ṣ":{"ha":513,"x_min":40,"x_max":482,"o":"m 239 -14 q 135 -2 182 -14 q 40 35 89 10 l 56 182 q 226 115 153 115 q 299 133 274 115 q 324 183 324 151 q 301 238 324 217 q 211 292 278 260 q 83 380 122 335 q 43 504 43 425 q 107 650 43 594 q 279 706 171 706 q 461 654 376 706 l 446 511 q 369 564 406 546 q 290 582 332 582 q 226 565 250 582 q 201 515 201 547 q 227 463 201 483 q 331 403 253 443 q 445 315 408 363 q 482 190 482 267 q 416 41 482 96 q 239 -14 350 -14 m 179 -112 l 313 -112 l 313 -247 l 179 -247 l 179 -112 z "},"ṩ":{"ha":513,"x_min":40,"x_max":482,"o":"m 239 -14 q 135 -2 182 -14 q 40 35 89 10 l 56 182 q 226 115 153 115 q 299 133 274 115 q 324 183 324 151 q 301 238 324 217 q 211 292 278 260 q 83 380 122 335 q 43 504 43 425 q 107 650 43 594 q 279 706 171 706 q 461 654 376 706 l 446 511 q 369 564 406 546 q 290 582 332 582 q 226 565 250 582 q 201 515 201 547 q 227 463 201 483 q 331 403 253 443 q 445 315 408 363 q 482 190 482 267 q 416 41 482 96 q 239 -14 350 -14 m 208 971 l 342 971 l 342 836 l 208 836 l 208 971 m 179 -112 l 313 -112 l 313 -247 l 179 -247 l 179 -112 z "},"ß":{"ha":771,"x_min":22,"x_max":757,"o":"m 457 -19 q 333 -7 399 -19 l 333 129 q 458 117 396 117 q 553 147 518 117 q 588 232 588 178 q 559 311 588 281 q 475 378 531 342 q 412 424 435 406 q 373 470 389 442 q 357 536 357 499 q 378 612 357 576 q 444 694 400 647 q 505 768 489 743 q 521 826 521 793 q 493 899 521 872 q 413 925 465 925 q 306 875 346 925 q 265 739 265 825 l 265 0 l 100 0 l 100 553 l 22 553 l 38 694 l 100 694 l 100 736 q 184 976 100 890 q 419 1061 268 1061 q 614 1000 540 1061 q 688 838 688 939 q 672 751 688 786 q 615 676 656 717 q 542 599 558 619 q 526 553 526 579 q 544 513 526 531 q 606 463 563 494 q 683 402 653 429 q 735 333 713 375 q 757 235 757 290 q 715 94 757 151 q 606 9 674 38 q 457 -19 538 -19 z "},"t":{"ha":415,"x_min":22,"x_max":389,"o":"m 264 -14 q 142 32 185 -14 q 100 168 100 78 l 100 553 l 22 553 l 38 694 l 100 694 l 100 847 l 267 865 l 267 694 l 388 694 l 388 553 l 267 553 l 267 211 q 284 148 267 168 q 339 128 301 128 l 389 128 l 374 -14 l 264 -14 z "},"ŧ":{"ha":415,"x_min":22,"x_max":389,"o":"m 389 128 l 374 -14 l 264 -14 q 142 32 185 -14 q 100 168 100 78 l 100 311 l 22 311 l 22 426 l 100 426 l 100 553 l 22 553 l 38 694 l 100 694 l 100 847 l 267 865 l 267 694 l 388 694 l 388 553 l 267 553 l 267 426 l 381 426 l 381 311 l 267 311 l 267 211 q 284 148 267 168 q 339 128 301 128 l 389 128 z "},"ť":{"ha":415,"x_min":22,"x_max":444,"o":"m 264 -14 q 142 32 185 -14 q 100 168 100 78 l 100 553 l 22 553 l 38 694 l 100 694 l 100 847 l 267 865 l 267 694 l 388 694 l 388 553 l 267 553 l 267 211 q 284 148 267 168 q 339 128 301 128 l 389 128 l 374 -14 l 264 -14 m 313 1003 l 444 1003 l 404 757 l 313 757 l 313 1003 z "},"ţ":{"ha":415,"x_min":22,"x_max":393,"o":"m 282 -79 q 364 -111 335 -81 q 393 -196 393 -142 q 353 -297 393 -261 q 249 -332 313 -332 q 149 -314 194 -332 l 175 -237 q 244 -253 214 -253 q 292 -239 275 -253 q 310 -200 310 -225 q 250 -147 310 -147 q 194 -157 226 -147 l 231 -11 q 134 43 168 -3 q 100 168 100 89 l 100 553 l 22 553 l 38 694 l 100 694 l 100 847 l 267 865 l 267 694 l 388 694 l 388 553 l 267 553 l 267 211 q 284 148 267 168 q 339 128 301 128 l 389 128 l 374 -14 l 301 -14 l 282 -79 z "},"ț":{"ha":415,"x_min":22,"x_max":389,"o":"m 264 -14 q 142 32 185 -14 q 100 168 100 78 l 100 553 l 22 553 l 38 694 l 100 694 l 100 847 l 267 865 l 267 694 l 388 694 l 388 553 l 267 553 l 267 211 q 284 148 267 168 q 339 128 301 128 l 389 128 l 374 -14 l 264 -14 m 171 -414 l 231 -261 l 185 -261 l 185 -126 l 324 -126 l 324 -244 l 235 -414 l 171 -414 z "},"ẗ":{"ha":415,"x_min":4,"x_max":389,"o":"m 264 -14 q 142 32 185 -14 q 100 168 100 78 l 100 553 l 22 553 l 38 694 l 100 694 l 100 847 l 267 865 l 267 694 l 388 694 l 388 553 l 267 553 l 267 211 q 284 148 267 168 q 339 128 301 128 l 389 128 l 374 -14 l 264 -14 m 4 1107 l 132 1107 l 132 982 l 4 982 l 4 1107 m 235 1107 l 363 1107 l 363 982 l 235 982 l 235 1107 z "},"ṭ":{"ha":415,"x_min":22,"x_max":389,"o":"m 264 -14 q 142 32 185 -14 q 100 168 100 78 l 100 553 l 22 553 l 38 694 l 100 694 l 100 847 l 267 865 l 267 694 l 388 694 l 388 553 l 267 553 l 267 211 q 284 148 267 168 q 339 128 301 128 l 389 128 l 374 -14 l 264 -14 m 188 -112 l 321 -112 l 321 -247 l 188 -247 l 188 -112 z "},"ṯ":{"ha":415,"x_min":22,"x_max":454,"o":"m 264 -14 q 142 32 185 -14 q 100 168 100 78 l 100 553 l 22 553 l 38 694 l 100 694 l 100 847 l 267 865 l 267 694 l 388 694 l 388 553 l 267 553 l 267 211 q 284 148 267 168 q 339 128 301 128 l 389 128 l 374 -14 l 264 -14 m 54 -129 l 454 -129 l 454 -236 l 54 -236 l 54 -129 z "},"u":{"ha":650,"x_min":64,"x_max":599,"o":"m 599 694 l 599 0 l 454 0 l 447 54 q 278 -11 379 -11 q 119 58 174 -11 q 64 243 64 126 l 64 694 l 231 694 l 231 265 q 325 125 231 125 q 432 185 390 125 l 432 694 l 599 694 z "},"ú":{"ha":650,"x_min":64,"x_max":599,"o":"m 599 694 l 599 0 l 454 0 l 447 54 q 278 -11 379 -11 q 119 58 174 -11 q 64 243 64 126 l 64 694 l 231 694 l 231 265 q 325 125 231 125 q 432 185 390 125 l 432 694 l 599 694 m 224 913 l 442 1046 l 442 886 l 224 803 l 224 913 z "},"ŭ":{"ha":650,"x_min":64,"x_max":599,"o":"m 599 694 l 599 0 l 454 0 l 447 54 q 278 -11 379 -11 q 119 58 174 -11 q 64 243 64 126 l 64 694 l 231 694 l 231 265 q 325 125 231 125 q 432 185 390 125 l 432 694 l 599 694 m 332 815 q 192 867 244 815 q 139 997 139 919 l 251 997 q 272 937 251 958 q 332 915 293 915 q 392 937 371 915 q 413 997 413 958 l 525 997 q 472 867 525 919 q 332 815 419 815 z "},"û":{"ha":650,"x_min":64,"x_max":599,"o":"m 599 694 l 599 0 l 454 0 l 447 54 q 278 -11 379 -11 q 119 58 174 -11 q 64 243 64 126 l 64 694 l 231 694 l 231 265 q 325 125 231 125 q 432 185 390 125 l 432 694 l 599 694 m 176 893 l 332 1025 l 488 893 l 488 783 l 332 881 l 176 783 l 176 893 z "},"ȕ":{"ha":650,"x_min":64,"x_max":599,"o":"m 599 694 l 599 0 l 454 0 l 447 54 q 278 -11 379 -11 q 119 58 174 -11 q 64 243 64 126 l 64 694 l 231 694 l 231 265 q 325 125 231 125 q 432 185 390 125 l 432 694 l 599 694 m 200 817 l 69 1063 l 221 1063 l 301 817 l 200 817 m 397 817 l 278 1063 l 428 1063 l 497 817 l 397 817 z "},"ü":{"ha":650,"x_min":64,"x_max":599,"o":"m 599 694 l 599 0 l 454 0 l 447 54 q 278 -11 379 -11 q 119 58 174 -11 q 64 243 64 126 l 64 694 l 231 694 l 231 265 q 325 125 231 125 q 432 185 390 125 l 432 694 l 599 694 m 153 946 l 281 946 l 281 821 l 153 821 l 153 946 m 383 946 l 511 946 l 511 821 l 383 821 l 383 946 z "},"ụ":{"ha":650,"x_min":64,"x_max":599,"o":"m 599 694 l 599 0 l 454 0 l 447 54 q 278 -11 379 -11 q 119 58 174 -11 q 64 243 64 126 l 64 694 l 231 694 l 231 265 q 325 125 231 125 q 432 185 390 125 l 432 694 l 599 694 m 258 -112 l 392 -112 l 392 -247 l 258 -247 l 258 -112 z "},"ù":{"ha":650,"x_min":64,"x_max":599,"o":"m 599 694 l 599 0 l 454 0 l 447 54 q 278 -11 379 -11 q 119 58 174 -11 q 64 243 64 126 l 64 694 l 231 694 l 231 265 q 325 125 231 125 q 432 185 390 125 l 432 694 l 599 694 m 222 889 l 222 1054 l 440 915 l 440 800 l 222 889 z "},"ủ":{"ha":650,"x_min":64,"x_max":599,"o":"m 599 694 l 599 0 l 454 0 l 447 54 q 278 -11 379 -11 q 119 58 174 -11 q 64 243 64 126 l 64 694 l 231 694 l 231 265 q 325 125 231 125 q 432 185 390 125 l 432 694 l 599 694 m 303 793 q 341 840 329 821 q 353 882 353 858 q 304 928 353 928 q 239 907 274 928 l 215 989 q 310 1010 261 1010 q 401 977 365 1010 q 436 888 436 944 q 416 811 436 844 q 354 742 396 778 l 303 793 z "},"ư":{"ha":650,"x_min":64,"x_max":714,"o":"m 714 797 q 683 680 714 728 q 599 607 653 632 l 599 0 l 454 0 l 447 54 q 278 -11 379 -11 q 119 58 174 -11 q 64 243 64 126 l 64 694 l 231 694 l 231 265 q 325 125 231 125 q 432 185 390 125 l 432 694 l 474 694 q 574 797 574 694 l 714 797 z "},"ứ":{"ha":650,"x_min":64,"x_max":714,"o":"m 714 797 q 683 680 714 728 q 599 607 653 632 l 599 0 l 454 0 l 447 54 q 278 -11 379 -11 q 119 58 174 -11 q 64 243 64 126 l 64 694 l 231 694 l 231 265 q 325 125 231 125 q 432 185 390 125 l 432 694 l 474 694 q 574 797 574 694 l 714 797 m 224 913 l 442 1046 l 442 886 l 224 803 l 224 913 z "},"ự":{"ha":650,"x_min":64,"x_max":714,"o":"m 714 797 q 683 680 714 728 q 599 607 653 632 l 599 0 l 454 0 l 447 54 q 278 -11 379 -11 q 119 58 174 -11 q 64 243 64 126 l 64 694 l 231 694 l 231 265 q 325 125 231 125 q 432 185 390 125 l 432 694 l 474 694 q 574 797 574 694 l 714 797 m 258 -112 l 392 -112 l 392 -247 l 258 -247 l 258 -112 z "},"ừ":{"ha":650,"x_min":64,"x_max":714,"o":"m 714 797 q 683 680 714 728 q 599 607 653 632 l 599 0 l 454 0 l 447 54 q 278 -11 379 -11 q 119 58 174 -11 q 64 243 64 126 l 64 694 l 231 694 l 231 265 q 325 125 231 125 q 432 185 390 125 l 432 694 l 474 694 q 574 797 574 694 l 714 797 m 222 889 l 222 1054 l 440 915 l 440 800 l 222 889 z "},"ử":{"ha":650,"x_min":64,"x_max":714,"o":"m 714 797 q 683 680 714 728 q 599 607 653 632 l 599 0 l 454 0 l 447 54 q 278 -11 379 -11 q 119 58 174 -11 q 64 243 64 126 l 64 694 l 231 694 l 231 265 q 325 125 231 125 q 432 185 390 125 l 432 694 l 474 694 q 574 797 574 694 l 714 797 m 303 793 q 341 840 329 821 q 353 882 353 858 q 304 928 353 928 q 239 907 274 928 l 215 989 q 310 1010 261 1010 q 401 977 365 1010 q 436 888 436 944 q 416 811 436 844 q 354 742 396 778 l 303 793 z "},"ữ":{"ha":650,"x_min":64,"x_max":714,"o":"m 714 797 q 683 680 714 728 q 599 607 653 632 l 599 0 l 454 0 l 447 54 q 278 -11 379 -11 q 119 58 174 -11 q 64 243 64 126 l 64 694 l 231 694 l 231 265 q 325 125 231 125 q 432 185 390 125 l 432 694 l 474 694 q 574 797 574 694 l 714 797 m 428 803 q 381 812 401 803 q 335 838 360 821 q 301 858 315 851 q 274 864 288 864 q 245 850 256 864 q 235 814 235 836 l 122 814 q 154 939 125 896 q 236 982 183 982 q 283 973 263 982 q 329 947 304 964 q 363 927 349 933 q 390 921 376 921 q 419 935 408 921 q 429 971 429 949 l 542 971 q 510 846 539 889 q 428 803 481 803 z "},"ű":{"ha":650,"x_min":64,"x_max":622,"o":"m 599 694 l 599 0 l 454 0 l 447 54 q 278 -11 379 -11 q 119 58 174 -11 q 64 243 64 126 l 64 694 l 231 694 l 231 265 q 325 125 231 125 q 432 185 390 125 l 432 694 l 599 694 m 256 1063 l 407 1063 l 279 817 l 178 817 l 256 1063 m 471 1063 l 622 1063 l 483 817 l 382 817 l 471 1063 z "},"ȗ":{"ha":650,"x_min":64,"x_max":599,"o":"m 599 694 l 599 0 l 454 0 l 447 54 q 278 -11 379 -11 q 119 58 174 -11 q 64 243 64 126 l 64 694 l 231 694 l 231 265 q 325 125 231 125 q 432 185 390 125 l 432 694 l 599 694 m 332 994 q 483 943 426 994 q 539 815 539 892 l 421 815 q 397 871 421 851 q 332 890 374 890 q 267 871 290 890 q 243 815 243 851 l 125 815 q 182 943 125 892 q 332 994 239 994 z "},"ū":{"ha":650,"x_min":64,"x_max":599,"o":"m 599 694 l 599 0 l 454 0 l 447 54 q 278 -11 379 -11 q 119 58 174 -11 q 64 243 64 126 l 64 694 l 231 694 l 231 265 q 325 125 231 125 q 432 185 390 125 l 432 694 l 599 694 m 132 944 l 532 944 l 532 838 l 132 838 l 132 944 z "},"ṻ":{"ha":650,"x_min":64,"x_max":599,"o":"m 599 694 l 599 0 l 454 0 l 447 54 q 278 -11 379 -11 q 119 58 174 -11 q 64 243 64 126 l 64 694 l 231 694 l 231 265 q 325 125 231 125 q 432 185 390 125 l 432 694 l 599 694 m 118 924 l 546 924 l 546 824 l 118 824 l 118 924 m 153 1168 l 281 1168 l 281 1049 l 153 1049 l 153 1168 m 383 1168 l 511 1168 l 511 1049 l 383 1049 l 383 1168 z "},"ų":{"ha":650,"x_min":64,"x_max":665,"o":"m 665 -268 q 556 -293 618 -293 q 456 -262 494 -293 q 417 -174 417 -231 q 442 -85 417 -125 q 513 0 467 -44 l 454 0 l 447 54 q 278 -11 379 -11 q 119 58 174 -11 q 64 243 64 126 l 64 694 l 231 694 l 231 265 q 325 125 231 125 q 432 185 390 125 l 432 694 l 599 694 l 599 0 q 530 -77 554 -43 q 506 -144 506 -111 q 523 -192 506 -176 q 571 -208 540 -208 q 642 -192 604 -208 l 665 -268 z "},"ů":{"ha":650,"x_min":64,"x_max":599,"o":"m 599 694 l 599 0 l 454 0 l 447 54 q 278 -11 379 -11 q 119 58 174 -11 q 64 243 64 126 l 64 694 l 231 694 l 231 265 q 325 125 231 125 q 432 185 390 125 l 432 694 l 599 694 m 332 792 q 235 830 269 792 q 201 926 201 868 q 235 1024 201 985 q 332 1063 269 1063 q 428 1024 394 1063 q 463 926 463 985 q 428 830 463 868 q 332 792 394 792 m 332 861 q 369 878 357 861 q 382 926 382 896 q 369 974 382 956 q 332 992 356 992 q 295 974 308 992 q 282 926 282 956 q 294 878 282 896 q 332 861 307 861 z "},"ũ":{"ha":650,"x_min":64,"x_max":599,"o":"m 599 694 l 599 0 l 454 0 l 447 54 q 278 -11 379 -11 q 119 58 174 -11 q 64 243 64 126 l 64 694 l 231 694 l 231 265 q 325 125 231 125 q 432 185 390 125 l 432 694 l 599 694 m 428 803 q 381 812 401 803 q 335 838 360 821 q 301 858 315 851 q 274 864 288 864 q 245 850 256 864 q 235 814 235 836 l 122 814 q 154 939 125 896 q 236 982 183 982 q 283 973 263 982 q 329 947 304 964 q 363 927 349 933 q 390 921 376 921 q 419 935 408 921 q 429 971 429 949 l 542 971 q 510 846 539 889 q 428 803 481 803 z "},"ṹ":{"ha":650,"x_min":64,"x_max":599,"o":"m 599 694 l 599 0 l 454 0 l 447 54 q 278 -11 379 -11 q 119 58 174 -11 q 64 243 64 126 l 64 694 l 231 694 l 231 265 q 325 125 231 125 q 432 185 390 125 l 432 694 l 599 694 m 439 801 q 396 808 417 801 q 340 832 375 815 q 301 849 321 842 q 267 857 282 857 q 226 811 226 857 l 121 811 q 225 957 121 957 q 268 950 247 957 q 324 926 289 943 q 363 909 343 917 q 397 901 382 901 q 438 947 438 901 l 543 947 q 439 801 543 801 m 224 1100 l 442 1211 l 442 1068 l 224 1004 l 224 1100 z "},"v":{"ha":619,"x_min":3,"x_max":617,"o":"m 3 694 l 176 694 l 310 222 l 443 694 l 617 694 l 382 0 l 238 0 l 3 694 z "},"w":{"ha":874,"x_min":3,"x_max":871,"o":"m 3 694 l 171 694 l 272 222 l 368 681 l 507 681 l 607 222 l 703 694 l 871 694 l 678 0 l 535 0 l 438 447 l 340 0 l 197 0 l 3 694 z "},"ẃ":{"ha":874,"x_min":3,"x_max":871,"o":"m 3 694 l 171 694 l 272 222 l 368 681 l 507 681 l 607 222 l 703 694 l 871 694 l 678 0 l 535 0 l 438 447 l 340 0 l 197 0 l 3 694 m 329 913 l 547 1046 l 547 886 l 329 803 l 329 913 z "},"ŵ":{"ha":874,"x_min":3,"x_max":871,"o":"m 3 694 l 171 694 l 272 222 l 368 681 l 507 681 l 607 222 l 703 694 l 871 694 l 678 0 l 535 0 l 438 447 l 340 0 l 197 0 l 3 694 m 282 893 l 438 1025 l 593 893 l 593 783 l 438 881 l 282 783 l 282 893 z "},"ẅ":{"ha":874,"x_min":3,"x_max":871,"o":"m 3 694 l 171 694 l 272 222 l 368 681 l 507 681 l 607 222 l 703 694 l 871 694 l 678 0 l 535 0 l 438 447 l 340 0 l 197 0 l 3 694 m 258 946 l 386 946 l 386 821 l 258 821 l 258 946 m 489 946 l 617 946 l 617 821 l 489 821 l 489 946 z "},"ẁ":{"ha":874,"x_min":3,"x_max":871,"o":"m 3 694 l 171 694 l 272 222 l 368 681 l 507 681 l 607 222 l 703 694 l 871 694 l 678 0 l 535 0 l 438 447 l 340 0 l 197 0 l 3 694 m 328 889 l 328 1054 l 546 915 l 546 800 l 328 889 z "},"x":{"ha":589,"x_min":6,"x_max":583,"o":"m 203 347 l 6 694 l 190 694 l 299 490 l 401 694 l 583 694 l 381 347 l 581 0 l 396 0 l 288 204 l 192 0 l 7 0 l 203 347 z "},"y":{"ha":665,"x_min":11,"x_max":653,"o":"m 249 32 l 11 694 l 185 694 l 332 222 l 479 694 l 653 694 l 274 -336 l 104 -336 l 249 32 z "},"ý":{"ha":665,"x_min":11,"x_max":653,"o":"m 249 32 l 11 694 l 185 694 l 332 222 l 479 694 l 653 694 l 274 -336 l 104 -336 l 249 32 m 226 913 l 444 1046 l 444 886 l 226 803 l 226 913 z "},"ŷ":{"ha":665,"x_min":11,"x_max":653,"o":"m 249 32 l 11 694 l 185 694 l 332 222 l 479 694 l 653 694 l 274 -336 l 104 -336 l 249 32 m 179 893 l 335 1025 l 490 893 l 490 783 l 335 881 l 179 783 l 179 893 z "},"ÿ":{"ha":665,"x_min":11,"x_max":653,"o":"m 249 32 l 11 694 l 185 694 l 332 222 l 479 694 l 653 694 l 274 -336 l 104 -336 l 249 32 m 156 946 l 283 946 l 283 821 l 156 821 l 156 946 m 386 946 l 514 946 l 514 821 l 386 821 l 386 946 z "},"ẏ":{"ha":665,"x_min":11,"x_max":653,"o":"m 249 32 l 11 694 l 185 694 l 332 222 l 479 694 l 653 694 l 274 -336 l 104 -336 l 249 32 m 268 971 l 401 971 l 401 836 l 268 836 l 268 971 z "},"ỵ":{"ha":665,"x_min":11,"x_max":653,"o":"m 356 -112 l 401 -112 l 401 -247 l 307 -247 l 274 -336 l 104 -336 l 249 32 l 11 694 l 185 694 l 332 222 l 479 694 l 653 694 l 356 -112 z "},"ỳ":{"ha":665,"x_min":11,"x_max":653,"o":"m 249 32 l 11 694 l 185 694 l 332 222 l 479 694 l 653 694 l 274 -336 l 104 -336 l 249 32 m 225 889 l 225 1054 l 443 915 l 443 800 l 225 889 z "},"ỷ":{"ha":665,"x_min":11,"x_max":653,"o":"m 249 32 l 11 694 l 185 694 l 332 222 l 479 694 l 653 694 l 274 -336 l 104 -336 l 249 32 m 306 793 q 344 840 332 821 q 356 882 356 858 q 307 928 356 928 q 242 907 276 928 l 218 989 q 313 1010 264 1010 q 403 977 368 1010 q 439 888 439 944 q 419 811 439 844 q 357 742 399 778 l 306 793 z "},"ȳ":{"ha":665,"x_min":11,"x_max":653,"o":"m 249 32 l 11 694 l 185 694 l 332 222 l 479 694 l 653 694 l 274 -336 l 104 -336 l 249 32 m 135 944 l 535 944 l 535 838 l 135 838 l 135 944 z "},"ỹ":{"ha":665,"x_min":11,"x_max":653,"o":"m 249 32 l 11 694 l 185 694 l 332 222 l 479 694 l 653 694 l 274 -336 l 104 -336 l 249 32 m 431 803 q 383 812 404 803 q 338 838 363 821 q 304 858 318 851 q 276 864 290 864 q 248 850 258 864 q 238 814 238 836 l 125 814 q 157 939 128 896 q 239 982 186 982 q 286 973 265 982 q 332 947 307 964 q 365 927 351 933 q 393 921 379 921 q 422 935 411 921 q 432 971 432 949 l 544 971 q 513 846 542 889 q 431 803 483 803 z "},"z":{"ha":557,"x_min":25,"x_max":536,"o":"m 264 140 l 528 140 l 528 0 l 25 0 l 297 554 l 43 554 l 43 694 l 536 694 l 264 140 z "},"ź":{"ha":557,"x_min":25,"x_max":536,"o":"m 264 140 l 528 140 l 528 0 l 25 0 l 297 554 l 43 554 l 43 694 l 536 694 l 264 140 m 182 913 l 400 1046 l 400 886 l 182 803 l 182 913 z "},"ž":{"ha":557,"x_min":25,"x_max":536,"o":"m 264 140 l 528 140 l 528 0 l 25 0 l 297 554 l 43 554 l 43 694 l 536 694 l 264 140 m 135 914 l 135 1024 l 290 926 l 446 1024 l 446 914 l 290 783 l 135 914 z "},"ż":{"ha":557,"x_min":25,"x_max":536,"o":"m 264 140 l 528 140 l 528 0 l 25 0 l 297 554 l 43 554 l 43 694 l 536 694 l 264 140 m 224 971 l 357 971 l 357 836 l 224 836 l 224 971 z "},"ẓ":{"ha":557,"x_min":25,"x_max":536,"o":"m 264 140 l 528 140 l 528 0 l 25 0 l 297 554 l 43 554 l 43 694 l 536 694 l 264 140 m 210 -112 l 343 -112 l 343 -247 l 210 -247 l 210 -112 z "},"ª":{"ha":432,"x_min":36,"x_max":396,"o":"m 144 603 q 68 631 100 603 q 36 713 36 660 q 88 821 36 783 q 221 869 139 858 q 181 899 221 899 q 71 878 131 899 l 65 990 q 211 1017 140 1017 q 320 979 281 1017 q 360 872 360 942 l 360 754 q 381 721 360 721 l 396 721 l 389 603 l 328 603 q 238 647 267 603 q 144 603 201 603 m 200 706 q 222 717 214 706 l 222 782 q 193 765 204 778 q 182 732 182 751 q 200 706 182 706 z "},"º":{"ha":463,"x_min":36,"x_max":426,"o":"m 232 603 q 128 631 172 603 q 60 708 83 660 q 36 810 36 756 q 60 912 36 864 q 128 988 83 960 q 232 1017 172 1017 q 336 988 292 1017 q 403 912 381 960 q 426 810 426 864 q 403 708 426 756 q 336 631 381 660 q 232 603 292 603 m 232 710 q 271 740 256 710 q 286 810 286 769 q 271 880 286 850 q 232 910 256 910 q 192 880 208 910 q 176 810 176 850 q 192 740 176 769 q 232 710 208 710 z "},"π":{"ha":706,"x_min":19,"x_max":683,"o":"m 643 125 q 681 135 664 125 l 681 7 q 597 -14 647 -14 q 474 35 517 -14 q 431 175 431 83 l 431 553 l 271 553 l 271 0 l 104 0 l 104 553 l 19 553 l 19 694 l 683 694 l 683 553 l 597 553 l 597 189 q 643 125 597 125 z "},"₀":{"ha":514,"x_min":47,"x_max":467,"o":"m 257 -100 q 103 -22 158 -100 q 47 182 47 56 q 103 381 47 307 q 257 456 158 456 q 411 381 356 456 q 467 182 467 307 q 411 -22 467 56 q 257 -100 356 -100 m 257 15 q 331 182 331 15 q 313 301 331 263 q 257 340 294 340 q 201 301 219 340 q 183 182 183 263 q 257 15 183 15 z "},"₁":{"ha":301,"x_min":42,"x_max":238,"o":"m 111 288 q 49 242 83 256 l 42 353 q 96 388 68 364 q 139 436 124 411 l 238 436 l 238 -81 l 111 -81 l 111 288 z "},"₂":{"ha":375,"x_min":36,"x_max":344,"o":"m 344 35 l 344 -81 l 36 -81 l 149 139 q 181 213 172 185 q 190 267 190 240 q 175 316 190 297 q 131 335 160 335 q 49 296 93 335 l 39 424 q 169 456 99 456 q 283 411 240 456 q 326 294 326 367 q 312 211 326 250 q 257 96 297 172 l 224 35 l 344 35 z "},"₃":{"ha":390,"x_min":33,"x_max":357,"o":"m 271 190 q 333 141 310 174 q 357 60 357 108 q 310 -57 357 -14 q 189 -100 264 -100 q 33 -67 103 -100 l 60 53 q 154 21 110 21 q 203 35 185 21 q 221 75 221 50 q 150 132 221 132 l 140 132 l 140 239 l 151 239 q 190 251 176 239 q 204 288 204 264 q 191 322 204 308 q 151 335 178 335 q 72 304 113 335 l 63 431 q 186 456 115 456 q 299 415 257 456 q 340 311 340 375 q 322 238 340 269 q 271 190 304 207 z "},"₄":{"ha":465,"x_min":11,"x_max":421,"o":"m 421 118 l 421 22 l 365 22 l 365 -81 l 249 -81 l 249 22 l 11 22 l 258 436 l 365 436 l 365 118 l 421 118 m 249 163 l 253 275 l 222 204 l 176 118 l 249 118 l 249 163 z "},"₅":{"ha":413,"x_min":40,"x_max":369,"o":"m 208 249 q 326 203 283 249 q 369 83 369 158 q 317 -51 369 -1 q 182 -100 264 -100 q 40 -64 108 -100 l 64 56 q 168 21 119 21 q 215 34 197 21 q 233 74 233 47 q 211 118 233 103 q 149 133 189 133 q 69 124 111 133 l 101 436 l 347 436 l 338 321 l 193 321 l 186 247 q 208 249 193 249 z "},"₆":{"ha":442,"x_min":50,"x_max":403,"o":"m 254 238 q 363 190 322 238 q 403 69 403 143 q 354 -53 403 -6 q 233 -100 306 -100 q 98 -46 146 -100 q 50 104 50 8 q 117 310 50 218 q 286 456 183 401 l 363 368 q 261 306 308 343 q 186 224 214 269 q 254 238 218 238 m 232 6 q 272 24 257 6 q 286 69 286 42 q 272 117 286 99 q 232 135 257 135 q 192 117 207 135 q 178 69 178 99 q 192 23 178 40 q 232 6 207 6 z "},"₇":{"ha":372,"x_min":33,"x_max":356,"o":"m 356 444 l 189 -81 l 67 -81 l 194 329 l 33 329 l 33 444 l 356 444 z "},"₈":{"ha":411,"x_min":33,"x_max":378,"o":"m 304 203 q 359 146 340 182 q 378 63 378 110 q 331 -55 378 -10 q 207 -100 285 -100 q 81 -55 128 -100 q 33 63 33 -10 q 53 147 33 110 q 108 204 72 183 q 61 313 61 243 q 100 414 61 372 q 210 456 139 456 q 316 414 279 456 q 353 313 353 372 q 340 250 353 278 q 304 203 328 222 m 207 357 q 178 342 189 357 q 168 304 168 328 q 178 267 168 282 q 207 251 189 251 q 235 267 225 251 q 246 304 246 282 q 235 342 246 328 q 207 357 225 357 m 207 0 q 245 19 232 0 q 258 72 258 39 q 245 121 258 103 q 207 139 232 139 q 167 121 182 139 q 153 72 153 103 q 167 19 153 39 q 207 0 182 0 z "},"₉":{"ha":442,"x_min":39,"x_max":392,"o":"m 208 456 q 344 401 296 456 q 392 251 392 347 q 325 46 392 138 q 156 -100 258 -46 l 79 -12 q 181 49 133 13 q 256 132 228 86 q 188 118 224 118 q 79 165 119 118 q 39 286 39 213 q 88 408 39 361 q 208 456 136 456 m 210 221 q 249 239 235 221 q 264 286 264 257 q 249 333 264 315 q 210 350 235 350 q 170 332 185 350 q 156 286 156 314 q 170 239 156 257 q 210 221 185 221 z "},"⁰":{"ha":514,"x_min":47,"x_max":467,"o":"m 257 517 q 103 594 158 517 q 47 799 47 672 q 103 998 47 924 q 257 1072 158 1072 q 411 998 356 1072 q 467 799 467 924 q 411 594 467 672 q 257 517 356 517 m 257 632 q 331 799 331 632 q 313 918 331 879 q 257 957 294 957 q 201 918 219 957 q 183 799 183 879 q 257 632 183 632 z "},"¹":{"ha":301,"x_min":42,"x_max":238,"o":"m 111 904 q 49 858 83 872 l 42 969 q 96 1004 68 981 q 139 1053 124 1028 l 238 1053 l 238 536 l 111 536 l 111 904 z "},"²":{"ha":375,"x_min":36,"x_max":344,"o":"m 344 651 l 344 536 l 36 536 l 149 756 q 181 829 172 801 q 190 883 190 857 q 175 933 190 914 q 131 951 160 951 q 49 913 93 951 l 39 1040 q 169 1072 99 1072 q 283 1028 240 1072 q 326 911 326 983 q 312 828 326 867 q 257 713 297 789 l 224 651 l 344 651 z "}}}
